Athiti-400.ufo
<glyph name="numbersign" format="1">
  <advance width="697"/>
  <unicode hex="0023"/>
  <note>
	numbersign
  </note>
  <outline>
    <contour>
      <point x="247" y="182" type="line"/>
      <point x="407" y="182" type="line"/>
      <point x="382" y="-1" type="line"/>
      <point x="443" y="-4" type="line"/>
      <point x="468" y="182" type="line"/>
      <point x="586" y="182" type="line"/>
      <point x="586" y="238" type="line"/>
      <point x="476" y="238" type="line"/>
      <point x="496" y="389" type="line"/>
      <point x="611" y="389" type="line"/>
      <point x="611" y="445" type="line"/>
      <point x="503" y="445" type="line"/>
      <point x="527" y="623" type="line"/>
      <point x="468" y="626" type="line"/>
      <point x="443" y="445" type="line"/>
      <point x="282" y="445" type="line"/>
      <point x="306" y="623" type="line"/>
      <point x="247" y="626" type="line"/>
      <point x="221" y="445" type="line"/>
      <point x="102" y="445" type="line"/>
      <point x="102" y="389" type="line"/>
      <point x="214" y="389" type="line"/>
      <point x="193" y="238" type="line"/>
      <point x="77" y="238" type="line"/>
      <point x="77" y="182" type="line"/>
      <point x="185" y="182" type="line"/>
      <point x="161" y="-1" type="line"/>
      <point x="221" y="-4" type="line"/>
    </contour>
    <contour>
      <point x="274" y="389" type="line"/>
      <point x="435" y="389" type="line"/>
      <point x="415" y="238" type="line"/>
      <point x="254" y="238" type="line"/>
    </contour>
  </outline>
</glyph>
<glyph name="percent" format="1">
  <advance width="775"/>
  <unicode hex="0025"/>
  <note>
	percent
  </note>
  <outline>
    <contour>
      <point x="596" y="593" type="line"/>
      <point x="551" y="610" type="line"/>
      <point x="184" y="11" type="line"/>
      <point x="226" y="-9" type="line"/>
    </contour>
    <contour>
      <point x="285" y="308"/>
      <point x="323" y="367"/>
      <point x="323" y="461" type="curve" smooth="yes"/>
      <point x="323" y="556"/>
      <point x="286" y="604"/>
      <point x="209" y="604" type="curve" smooth="yes"/>
      <point x="123" y="604"/>
      <point x="87" y="545"/>
      <point x="87" y="451" type="curve" smooth="yes"/>
      <point x="87" y="353"/>
      <point x="126" y="308"/>
      <point x="200" y="308" type="curve" smooth="yes"/>
    </contour>
    <contour>
      <point x="149" y="352"/>
      <point x="136" y="380"/>
      <point x="136" y="459" type="curve" smooth="yes"/>
      <point x="136" y="494"/>
      <point x="140" y="521"/>
      <point x="148" y="551" type="curve"/>
      <point x="163" y="557"/>
      <point x="179" y="560"/>
      <point x="203" y="560" type="curve" smooth="yes"/>
      <point x="262" y="560"/>
      <point x="274" y="530"/>
      <point x="274" y="453" type="curve" smooth="yes"/>
      <point x="274" y="418"/>
      <point x="271" y="391"/>
      <point x="262" y="361" type="curve"/>
      <point x="246" y="355"/>
      <point x="228" y="352"/>
      <point x="205" y="352" type="curve" smooth="yes"/>
    </contour>
    <contour>
      <point x="650" y="-8"/>
      <point x="688" y="51"/>
      <point x="688" y="145" type="curve" smooth="yes"/>
      <point x="688" y="240"/>
      <point x="651" y="288"/>
      <point x="574" y="288" type="curve" smooth="yes"/>
      <point x="488" y="288"/>
      <point x="452" y="229"/>
      <point x="452" y="135" type="curve" smooth="yes"/>
      <point x="452" y="37"/>
      <point x="491" y="-8"/>
      <point x="565" y="-8" type="curve" smooth="yes"/>
    </contour>
    <contour>
      <point x="514" y="36"/>
      <point x="501" y="64"/>
      <point x="501" y="143" type="curve" smooth="yes"/>
      <point x="501" y="178"/>
      <point x="505" y="205"/>
      <point x="513" y="235" type="curve"/>
      <point x="528" y="241"/>
      <point x="544" y="244"/>
      <point x="568" y="244" type="curve" smooth="yes"/>
      <point x="627" y="244"/>
      <point x="639" y="214"/>
      <point x="639" y="137" type="curve" smooth="yes"/>
      <point x="639" y="102"/>
      <point x="636" y="75"/>
      <point x="627" y="45" type="curve"/>
      <point x="611" y="39"/>
      <point x="593" y="36"/>
      <point x="570" y="36" type="curve" smooth="yes"/>
    </contour>
  </outline>
</glyph>
<glyph name="quotesingle" format="1">
  <advance width="231"/>
  <unicode hex="0027"/>
  <note>
	quotesingle
  </note>
  <outline>
    <contour>
      <point x="134" y="423" type="line"/>
      <point x="142" y="548" type="line" smooth="yes"/>
      <point x="143" y="569"/>
      <point x="143" y="590"/>
      <point x="139" y="614" type="curve"/>
      <point x="91" y="614" type="line"/>
      <point x="87" y="590"/>
      <point x="87" y="569"/>
      <point x="88" y="548" type="curve" smooth="yes"/>
      <point x="96" y="423" type="line"/>
    </contour>
  </outline>
</glyph>
<glyph name="parenleft" format="1">
  <advance width="327"/>
  <unicode hex="0028"/>
  <note>
	parenleft
  </note>
  <outline>
    <contour>
      <point x="196" y="-97"/>
      <point x="220" y="-95"/>
      <point x="239" y="-92" type="curve"/>
      <point x="239" y="-37" type="line"/>
      <point x="155" y="-37" type="line"/>
      <point x="155" y="651" type="line"/>
      <point x="239" y="651" type="line"/>
      <point x="239" y="706" type="line"/>
      <point x="220" y="709"/>
      <point x="196" y="711"/>
      <point x="172" y="711" type="curve"/>
      <point x="131" y="698"/>
      <point x="97" y="664"/>
      <point x="92" y="630" type="curve"/>
      <point x="92" y="-16" type="line"/>
      <point x="97" y="-51"/>
      <point x="131" y="-85"/>
      <point x="172" y="-97" type="curve"/>
    </contour>
  </outline>
</glyph>
<glyph name="parenright" format="1">
  <advance width="327"/>
  <unicode hex="0029"/>
  <note>
	parenright
  </note>
  <outline>
    <contour>
      <point x="197" y="-85"/>
      <point x="231" y="-51"/>
      <point x="236" y="-16" type="curve"/>
      <point x="236" y="630" type="line"/>
      <point x="231" y="664"/>
      <point x="197" y="698"/>
      <point x="156" y="711" type="curve"/>
      <point x="132" y="711"/>
      <point x="108" y="709"/>
      <point x="89" y="706" type="curve"/>
      <point x="89" y="651" type="line"/>
      <point x="173" y="651" type="line"/>
      <point x="173" y="-37" type="line"/>
      <point x="89" y="-37" type="line"/>
      <point x="89" y="-92" type="line"/>
      <point x="108" y="-95"/>
      <point x="132" y="-97"/>
      <point x="156" y="-97" type="curve"/>
    </contour>
  </outline>
</glyph>
<glyph name="plus" format="1">
  <advance width="557"/>
  <unicode hex="002B"/>
  <note>
	plus
  </note>
  <outline>
    <contour>
      <point x="306" y="84" type="line"/>
      <point x="306" y="280" type="line"/>
      <point x="490" y="280" type="line"/>
      <point x="490" y="331" type="line"/>
      <point x="306" y="331" type="line"/>
      <point x="306" y="510" type="line"/>
      <point x="251" y="510" type="line"/>
      <point x="251" y="331" type="line"/>
      <point x="67" y="331" type="line"/>
      <point x="67" y="280" type="line"/>
      <point x="251" y="280" type="line"/>
      <point x="251" y="84" type="line"/>
    </contour>
  </outline>
</glyph>
<glyph name="comma" format="1">
  <advance width="238"/>
  <unicode hex="002C"/>
  <note>
	comma
  </note>
  <outline>
    <contour>
      <point x="154" y="-62"/>
      <point x="172" y="-18"/>
      <point x="172" y="25" type="curve" smooth="yes"/>
      <point x="172" y="69"/>
      <point x="152" y="92"/>
      <point x="111" y="92" type="curve" smooth="yes"/>
      <point x="96" y="92"/>
      <point x="81" y="89"/>
      <point x="68" y="84" type="curve"/>
      <point x="68" y="41" type="line"/>
      <point x="122" y="41" type="line"/>
      <point x="122" y="-10"/>
      <point x="109" y="-49"/>
      <point x="87" y="-89" type="curve"/>
      <point x="125" y="-98" type="line"/>
    </contour>
  </outline>
</glyph>
<glyph name="hyphen" format="1">
  <advance width="405"/>
  <unicode hex="002D"/>
  <note>
	hyphen
  </note>
  <outline>
    <contour>
      <point x="334" y="253" type="line"/>
      <point x="334" y="306" type="line"/>
      <point x="71" y="306" type="line"/>
      <point x="71" y="253" type="line"/>
    </contour>
  </outline>
</glyph>
<glyph name="slash" format="1">
  <advance width="464"/>
  <unicode hex="002F"/>
  <note>
	slash
  </note>
  <outline>
    <contour>
      <point x="390" y="648" type="line"/>
      <point x="336" y="661" type="line"/>
      <point x="75" y="-79" type="line"/>
      <point x="129" y="-93" type="line"/>
    </contour>
  </outline>
</glyph>
<glyph name="three" format="1">
  <advance width="526"/>
  <unicode hex="0033"/>
  <note>
	three
  </note>
  <outline>
    <contour>
      <point x="400" y="-8"/>
      <point x="446" y="61"/>
      <point x="446" y="156" type="curve" smooth="yes"/>
      <point x="446" y="226"/>
      <point x="425" y="268"/>
      <point x="347" y="295" type="curve"/>
      <point x="347" y="301" type="line"/>
      <point x="409" y="329"/>
      <point x="439" y="367"/>
      <point x="439" y="441" type="curve" smooth="yes"/>
      <point x="439" y="542"/>
      <point x="385" y="604"/>
      <point x="259" y="604" type="curve" smooth="yes"/>
      <point x="182" y="604"/>
      <point x="126" y="589"/>
      <point x="66" y="566" type="curve"/>
      <point x="66" y="530" type="line" smooth="yes"/>
      <point x="66" y="501"/>
      <point x="73" y="470"/>
      <point x="81" y="446" type="curve"/>
      <point x="129" y="446" type="line"/>
      <point x="129" y="532" type="line"/>
      <point x="172" y="542"/>
      <point x="208" y="547"/>
      <point x="253" y="547" type="curve" smooth="yes"/>
      <point x="335" y="547"/>
      <point x="377" y="511"/>
      <point x="377" y="433" type="curve" smooth="yes"/>
      <point x="377" y="364"/>
      <point x="335" y="324"/>
      <point x="246" y="324" type="curve" smooth="yes"/>
      <point x="157" y="324" type="line"/>
      <point x="157" y="268" type="line"/>
      <point x="246" y="268" type="line" smooth="yes"/>
      <point x="350" y="268"/>
      <point x="384" y="231"/>
      <point x="384" y="156" type="curve" smooth="yes"/>
      <point x="384" y="118"/>
      <point x="377" y="86"/>
      <point x="361" y="61" type="curve"/>
      <point x="323" y="53"/>
      <point x="292" y="50"/>
      <point x="244" y="50" type="curve" smooth="yes"/>
      <point x="185" y="50"/>
      <point x="126" y="57"/>
      <point x="74" y="72" type="curve"/>
      <point x="63" y="16" type="line"/>
      <point x="119" y="1"/>
      <point x="181" y="-8"/>
      <point x="243" y="-8" type="curve" smooth="yes"/>
    </contour>
  </outline>
</glyph>
<glyph name="five" format="1">
  <advance width="527"/>
  <unicode hex="0035"/>
  <note>
	five
  </note>
  <outline>
    <contour>
      <point x="411" y="-8"/>
      <point x="463" y="67"/>
      <point x="463" y="192" type="curve" smooth="yes"/>
      <point x="463" y="316"/>
      <point x="396" y="365"/>
      <point x="283" y="365" type="curve" smooth="yes"/>
      <point x="235" y="365"/>
      <point x="197" y="357"/>
      <point x="151" y="343" type="curve"/>
      <point x="166" y="546" type="line"/>
      <point x="421" y="546" type="line"/>
      <point x="421" y="604" type="line"/>
      <point x="108" y="604" type="line"/>
      <point x="88" y="324" type="line"/>
      <point x="142" y="282" type="line"/>
      <point x="190" y="300"/>
      <point x="225" y="307"/>
      <point x="276" y="307" type="curve" smooth="yes"/>
      <point x="361" y="307"/>
      <point x="400" y="280"/>
      <point x="400" y="185" type="curve" smooth="yes"/>
      <point x="400" y="138"/>
      <point x="392" y="102"/>
      <point x="378" y="66" type="curve"/>
      <point x="341" y="55"/>
      <point x="308" y="50"/>
      <point x="256" y="50" type="curve" smooth="yes"/>
      <point x="197" y="50"/>
      <point x="143" y="59"/>
      <point x="80" y="76" type="curve"/>
      <point x="71" y="18" type="line"/>
      <point x="133" y="0"/>
      <point x="185" y="-8"/>
      <point x="250" y="-8" type="curve" smooth="yes"/>
    </contour>
  </outline>
</glyph>
<glyph name="eight" format="1">
  <advance width="568"/>
  <unicode hex="0038"/>
  <note>
	eight
  </note>
  <outline>
    <contour>
      <point x="436" y="-7"/>
      <point x="492" y="54"/>
      <point x="492" y="159" type="curve" smooth="yes"/>
      <point x="492" y="223"/>
      <point x="470" y="261"/>
      <point x="411" y="296" type="curve"/>
      <point x="411" y="304" type="line"/>
      <point x="455" y="332"/>
      <point x="480" y="369"/>
      <point x="480" y="433" type="curve" smooth="yes"/>
      <point x="480" y="540"/>
      <point x="422" y="604"/>
      <point x="301" y="604" type="curve" smooth="yes"/>
      <point x="160" y="604"/>
      <point x="92" y="537"/>
      <point x="92" y="435" type="curve" smooth="yes"/>
      <point x="92" y="375"/>
      <point x="118" y="346"/>
      <point x="160" y="317" type="curve"/>
      <point x="160" y="310" type="line"/>
      <point x="111" y="275"/>
      <point x="77" y="244"/>
      <point x="77" y="162" type="curve" smooth="yes"/>
      <point x="77" y="55"/>
      <point x="146" y="-7"/>
      <point x="282" y="-7" type="curve" smooth="yes"/>
    </contour>
    <contour>
      <point x="187" y="49"/>
      <point x="138" y="74"/>
      <point x="138" y="164" type="curve" smooth="yes"/>
      <point x="138" y="207"/>
      <point x="146" y="237"/>
      <point x="169" y="268" type="curve"/>
      <point x="203" y="277"/>
      <point x="241" y="279"/>
      <point x="281" y="279" type="curve" smooth="yes"/>
      <point x="394" y="279"/>
      <point x="429" y="247"/>
      <point x="429" y="146" type="curve" smooth="yes"/>
      <point x="429" y="118"/>
      <point x="425" y="93"/>
      <point x="416" y="70" type="curve"/>
      <point x="387" y="57"/>
      <point x="349" y="49"/>
      <point x="301" y="49" type="curve" smooth="yes"/>
    </contour>
    <contour>
      <point x="204" y="329"/>
      <point x="153" y="352"/>
      <point x="153" y="441" type="curve" smooth="yes"/>
      <point x="153" y="474"/>
      <point x="158" y="498"/>
      <point x="171" y="530" type="curve"/>
      <point x="204" y="542"/>
      <point x="245" y="547"/>
      <point x="282" y="547" type="curve" smooth="yes"/>
      <point x="385" y="547"/>
      <point x="419" y="521"/>
      <point x="419" y="422" type="curve" smooth="yes"/>
      <point x="419" y="394"/>
      <point x="415" y="369"/>
      <point x="405" y="343" type="curve"/>
      <point x="377" y="333"/>
      <point x="349" y="329"/>
      <point x="305" y="329" type="curve" smooth="yes"/>
    </contour>
  </outline>
</glyph>
<glyph name="nine" format="1">
  <advance width="526"/>
  <unicode hex="0039"/>
  <note>
	nine
  </note>
  <outline>
    <contour>
      <point x="376" y="93"/>
      <point x="455" y="188"/>
      <point x="455" y="359" type="curve" smooth="yes"/>
      <point x="455" y="503"/>
      <point x="396" y="602"/>
      <point x="256" y="602" type="curve" smooth="yes"/>
      <point x="107" y="602"/>
      <point x="51" y="504"/>
      <point x="51" y="394" type="curve" smooth="yes"/>
      <point x="51" y="279"/>
      <point x="122" y="214"/>
      <point x="228" y="214" type="curve" smooth="yes"/>
      <point x="289" y="214"/>
      <point x="334" y="231"/>
      <point x="380" y="259" type="curve"/>
      <point x="352" y="164"/>
      <point x="289" y="104"/>
      <point x="177" y="29" type="curve"/>
      <point x="231" y="0" type="line"/>
    </contour>
    <contour>
      <point x="156" y="270"/>
      <point x="114" y="311"/>
      <point x="114" y="394" type="curve" smooth="yes"/>
      <point x="114" y="446"/>
      <point x="123" y="486"/>
      <point x="140" y="530" type="curve"/>
      <point x="173" y="541"/>
      <point x="208" y="545"/>
      <point x="248" y="545" type="curve" smooth="yes"/>
      <point x="345" y="545"/>
      <point x="393" y="483"/>
      <point x="393" y="359" type="curve" smooth="yes"/>
      <point x="393" y="344"/>
      <point x="392" y="328"/>
      <point x="391" y="314" type="curve"/>
      <point x="341" y="282"/>
      <point x="296" y="270"/>
      <point x="238" y="270" type="curve" smooth="yes"/>
    </contour>
  </outline>
</glyph>
<glyph name="colon" format="1">
  <advance width="241"/>
  <unicode hex="003A"/>
  <note>
	colon
  </note>
  <outline>
    <contour>
      <point x="160" y="344" type="line"/>
      <point x="160" y="425" type="line"/>
      <point x="81" y="425" type="line"/>
      <point x="81" y="344" type="line"/>
    </contour>
    <contour>
      <point x="160" y="9" type="line"/>
      <point x="160" y="90" type="line"/>
      <point x="81" y="90" type="line"/>
      <point x="81" y="9" type="line"/>
    </contour>
  </outline>
</glyph>
<glyph name="semicolon" format="1">
  <advance width="266"/>
  <unicode hex="003B"/>
  <note>
	semicolon
  </note>
  <outline>
    <contour>
      <point x="167" y="-13"/>
      <point x="185" y="31"/>
      <point x="185" y="74" type="curve" smooth="yes"/>
      <point x="185" y="118"/>
      <point x="165" y="141"/>
      <point x="124" y="141" type="curve" smooth="yes"/>
      <point x="109" y="141"/>
      <point x="94" y="138"/>
      <point x="81" y="133" type="curve"/>
      <point x="81" y="90" type="line"/>
      <point x="135" y="90" type="line"/>
      <point x="135" y="39"/>
      <point x="122" y="0"/>
      <point x="100" y="-40" type="curve"/>
      <point x="138" y="-49" type="line"/>
    </contour>
    <contour>
      <point x="168" y="344" type="line"/>
      <point x="168" y="425" type="line"/>
      <point x="89" y="425" type="line"/>
      <point x="89" y="344" type="line"/>
    </contour>
  </outline>
</glyph>
<glyph name="greater" format="1">
  <advance width="584"/>
  <unicode hex="003E"/>
  <note>
	greater
  </note>
  <outline>
    <contour>
      <point x="512" y="218" type="line"/>
      <point x="512" y="279" type="line"/>
      <point x="108" y="466" type="line"/>
      <point x="92" y="409" type="line"/>
      <point x="451" y="252" type="line"/>
      <point x="451" y="246" type="line"/>
      <point x="92" y="88" type="line"/>
      <point x="108" y="32" type="line"/>
    </contour>
  </outline>
</glyph>
<glyph name="question" format="1">
  <advance width="535"/>
  <unicode hex="003F"/>
  <note>
	question
  </note>
  <outline>
    <contour>
      <point x="269" y="154" type="line"/>
      <point x="269" y="210" type="line" smooth="yes"/>
      <point x="269" y="234"/>
      <point x="272" y="241"/>
      <point x="288" y="254" type="curve" smooth="yes"/>
      <point x="398" y="335" type="line" smooth="yes"/>
      <point x="445" y="369"/>
      <point x="455" y="406"/>
      <point x="455" y="464" type="curve" smooth="yes"/>
      <point x="455" y="567"/>
      <point x="405" y="625"/>
      <point x="271" y="625" type="curve" smooth="yes"/>
      <point x="190" y="625"/>
      <point x="112" y="603"/>
      <point x="77" y="583" type="curve"/>
      <point x="77" y="552" type="line" smooth="yes"/>
      <point x="77" y="525"/>
      <point x="82" y="499"/>
      <point x="91" y="474" type="curve"/>
      <point x="137" y="474" type="line"/>
      <point x="137" y="551" type="line"/>
      <point x="175" y="562"/>
      <point x="222" y="567"/>
      <point x="269" y="567" type="curve" smooth="yes"/>
      <point x="355" y="567"/>
      <point x="393" y="540"/>
      <point x="393" y="468" type="curve" smooth="yes"/>
      <point x="393" y="399" type="line"/>
      <point x="233" y="279" type="line" smooth="yes"/>
      <point x="213" y="263"/>
      <point x="207" y="249"/>
      <point x="207" y="220" type="curve" smooth="yes"/>
      <point x="207" y="154" type="line"/>
    </contour>
    <contour>
      <point x="270" y="0" type="line"/>
      <point x="270" y="83" type="line"/>
      <point x="205" y="83" type="line"/>
      <point x="205" y="0" type="line"/>
    </contour>
  </outline>
</glyph>
<glyph name="B" format="1">
  <advance width="535"/>
  <unicode hex="0042"/>
  <note>
	B
  </note>
  <outline>
    <contour>
      <point x="244" y="0" type="line" smooth="yes"/>
      <point x="432" y="0"/>
      <point x="484" y="63"/>
      <point x="484" y="172" type="curve" smooth="yes"/>
      <point x="484" y="237"/>
      <point x="450" y="285"/>
      <point x="373" y="310" type="curve"/>
      <point x="373" y="315" type="line"/>
      <point x="428" y="348"/>
      <point x="454" y="394"/>
      <point x="454" y="455" type="curve" smooth="yes"/>
      <point x="454" y="566"/>
      <point x="387" y="624"/>
      <point x="241" y="624" type="curve" smooth="yes"/>
      <point x="190" y="624"/>
      <point x="133" y="616"/>
      <point x="81" y="602" type="curve"/>
      <point x="81" y="0" type="line"/>
    </contour>
    <contour>
      <point x="143" y="281" type="line"/>
      <point x="284" y="281" type="line" smooth="yes"/>
      <point x="378" y="281"/>
      <point x="422" y="235"/>
      <point x="422" y="169" type="curve" smooth="yes"/>
      <point x="422" y="93"/>
      <point x="386" y="57"/>
      <point x="237" y="57" type="curve" smooth="yes"/>
      <point x="143" y="57" type="line"/>
    </contour>
    <contour>
      <point x="143" y="557" type="line"/>
      <point x="173" y="562"/>
      <point x="206" y="566"/>
      <point x="238" y="566" type="curve" smooth="yes"/>
      <point x="341" y="566"/>
      <point x="392" y="536"/>
      <point x="392" y="454" type="curve" smooth="yes"/>
      <point x="392" y="406"/>
      <point x="375" y="369"/>
      <point x="339" y="338" type="curve"/>
      <point x="143" y="338" type="line"/>
    </contour>
  </outline>
</glyph>
<glyph name="F" format="1">
  <advance width="491"/>
  <unicode hex="0046"/>
  <note>
	F
  </note>
  <outline>
    <contour>
      <point x="145" y="0" type="line"/>
      <point x="145" y="280" type="line"/>
      <point x="410" y="280" type="line"/>
      <point x="410" y="336" type="line"/>
      <point x="145" y="336" type="line"/>
      <point x="145" y="558" type="line"/>
      <point x="461" y="558" type="line"/>
      <point x="461" y="616" type="line"/>
      <point x="82" y="616" type="line"/>
      <point x="82" y="0" type="line"/>
    </contour>
  </outline>
</glyph>
<glyph name="I" format="1">
  <advance width="231"/>
  <unicode hex="0049"/>
  <note>
	I
  </note>
  <outline>
    <contour>
      <point x="147" y="0" type="line"/>
      <point x="147" y="614" type="line"/>
      <point x="84" y="614" type="line"/>
      <point x="84" y="0" type="line"/>
    </contour>
  </outline>
</glyph>
<glyph name="J" format="1">
  <advance width="416"/>
  <unicode hex="004A"/>
  <note>
	J
  </note>
  <outline>
    <contour>
      <point x="272" y="-9"/>
      <point x="337" y="35"/>
      <point x="337" y="125" type="curve" smooth="yes"/>
      <point x="337" y="616" type="line"/>
      <point x="274" y="616" type="line"/>
      <point x="274" y="128" type="line" smooth="yes"/>
      <point x="274" y="103"/>
      <point x="272" y="86"/>
      <point x="266" y="69" type="curve"/>
      <point x="245" y="57"/>
      <point x="213" y="48"/>
      <point x="169" y="48" type="curve" smooth="yes"/>
      <point x="124" y="48"/>
      <point x="80" y="58"/>
      <point x="46" y="71" type="curve"/>
      <point x="31" y="16" type="line"/>
      <point x="68" y="1"/>
      <point x="120" y="-9"/>
      <point x="167" y="-9" type="curve" smooth="yes"/>
    </contour>
  </outline>
</glyph>
<glyph name="L" format="1">
  <advance width="456"/>
  <unicode hex="004C"/>
  <note>
	L
  </note>
  <outline>
    <contour>
      <point x="427" y="0" type="line"/>
      <point x="427" y="58" type="line"/>
      <point x="145" y="58" type="line"/>
      <point x="145" y="614" type="line"/>
      <point x="82" y="614" type="line"/>
      <point x="82" y="0" type="line"/>
    </contour>
  </outline>
</glyph>
<glyph name="N" format="1">
  <advance width="617"/>
  <unicode hex="004E"/>
  <note>
	N
  </note>
  <outline>
    <contour>
      <point x="145" y="0" type="line"/>
      <point x="145" y="326" type="line"/>
      <point x="137" y="516" type="line"/>
      <point x="144" y="518" type="line"/>
      <point x="464" y="0" type="line"/>
      <point x="535" y="0" type="line"/>
      <point x="535" y="614" type="line"/>
      <point x="472" y="614" type="line"/>
      <point x="472" y="288" type="line"/>
      <point x="481" y="98" type="line"/>
      <point x="473" y="96" type="line"/>
      <point x="153" y="614" type="line"/>
      <point x="82" y="614" type="line"/>
      <point x="82" y="0" type="line"/>
    </contour>
  </outline>
</glyph>
<glyph name="Q" format="1">
  <advance width="613"/>
  <unicode hex="0051"/>
  <note>
	Q
  </note>
  <outline>
    <contour>
      <point x="427" y="-137"/>
      <point x="473" y="-134"/>
      <point x="517" y="-123" type="curve"/>
      <point x="506" y="-74" type="line"/>
      <point x="461" y="-83"/>
      <point x="416" y="-86"/>
      <point x="372" y="-86" type="curve" smooth="yes"/>
      <point x="344" y="-86"/>
      <point x="311" y="-83"/>
      <point x="287" y="-78" type="curve"/>
      <point x="287" y="-3" type="line"/>
      <point x="292" y="-4"/>
      <point x="297" y="-4"/>
      <point x="302" y="-4" type="curve" smooth="yes"/>
      <point x="490" y="-2"/>
      <point x="554" y="115"/>
      <point x="554" y="320" type="curve" smooth="yes"/>
      <point x="554" y="521"/>
      <point x="481" y="624"/>
      <point x="315" y="624" type="curve" smooth="yes"/>
      <point x="122" y="624"/>
      <point x="57" y="506"/>
      <point x="57" y="300" type="curve" smooth="yes"/>
      <point x="57" y="122"/>
      <point x="117" y="21"/>
      <point x="243" y="1" type="curve"/>
      <point x="226" y="-72" type="line"/>
      <point x="226" y="-115" type="line"/>
      <point x="256" y="-127"/>
      <point x="324" y="-137"/>
      <point x="373" y="-137" type="curve" smooth="yes"/>
    </contour>
    <contour>
      <point x="167" y="55"/>
      <point x="120" y="133"/>
      <point x="120" y="314" type="curve" smooth="yes"/>
      <point x="120" y="406"/>
      <point x="140" y="484"/>
      <point x="172" y="541" type="curve"/>
      <point x="201" y="556"/>
      <point x="254" y="565"/>
      <point x="301" y="565" type="curve" smooth="yes"/>
      <point x="444" y="565"/>
      <point x="491" y="487"/>
      <point x="491" y="306" type="curve" smooth="yes"/>
      <point x="491" y="213"/>
      <point x="467" y="134"/>
      <point x="436" y="79" type="curve"/>
      <point x="407" y="64"/>
      <point x="357" y="55"/>
      <point x="310" y="55" type="curve" smooth="yes"/>
    </contour>
  </outline>
</glyph>
<glyph name="T" format="1">
  <advance width="533"/>
  <unicode hex="0054"/>
  <note>
	T
  </note>
  <outline>
    <contour>
      <point x="298" y="0" type="line"/>
      <point x="298" y="555" type="line"/>
      <point x="496" y="555" type="line"/>
      <point x="496" y="614" type="line"/>
      <point x="37" y="614" type="line"/>
      <point x="37" y="555" type="line"/>
      <point x="235" y="555" type="line"/>
      <point x="235" y="0" type="line"/>
    </contour>
  </outline>
</glyph>
<glyph name="Y" format="1">
  <advance width="601"/>
  <unicode hex="0059"/>
  <note>
	Y
  </note>
  <outline>
    <contour>
      <point x="332" y="0" type="line"/>
      <point x="332" y="221" type="line"/>
      <point x="351" y="221" type="line"/>
      <point x="440" y="334"/>
      <point x="507" y="452"/>
      <point x="570" y="602" type="curve"/>
      <point x="507" y="619" type="line"/>
      <point x="453" y="484"/>
      <point x="382" y="360"/>
      <point x="318" y="271" type="curve"/>
      <point x="283" y="271" type="line"/>
      <point x="218" y="360"/>
      <point x="147" y="484"/>
      <point x="93" y="619" type="curve"/>
      <point x="30" y="602" type="line"/>
      <point x="94" y="452"/>
      <point x="161" y="334"/>
      <point x="249" y="221" type="curve"/>
      <point x="269" y="221" type="line"/>
      <point x="269" y="0" type="line"/>
    </contour>
  </outline>
</glyph>
<glyph name="bracketright" format="1">
  <advance width="283"/>
  <unicode hex="005D"/>
  <note>
	bracketright
  </note>
  <outline>
    <contour>
      <point x="201" y="-85" type="line"/>
      <point x="201" y="707" type="line"/>
      <point x="78" y="707" type="line"/>
      <point x="78" y="652" type="line"/>
      <point x="140" y="652" type="line"/>
      <point x="140" y="-31" type="line"/>
      <point x="78" y="-31" type="line"/>
      <point x="78" y="-85" type="line"/>
    </contour>
  </outline>
</glyph>
<glyph name="asciicircum" format="1">
  <advance width="574"/>
  <unicode hex="005E"/>
  <note>
	asciicircum
  </note>
  <outline>
    <contour>
      <point x="284" y="550" type="line"/>
      <point x="290" y="550" type="line"/>
      <point x="447" y="273" type="line"/>
      <point x="500" y="297" type="line"/>
      <point x="316" y="614" type="line"/>
      <point x="258" y="614" type="line"/>
      <point x="74" y="297" type="line"/>
      <point x="127" y="273" type="line"/>
    </contour>
  </outline>
</glyph>
<glyph name="grave" format="1">
  <advance width="311"/>
  <unicode hex="0060"/>
  <note>
	grave
  </note>
  <outline>
    <contour>
      <point x="195" y="758" type="line"/>
      <point x="112" y="901" type="line"/>
      <point x="31" y="892" type="line"/>
      <point x="150" y="750" type="line"/>
    </contour>
  </outline>
</glyph>
<glyph name="b" format="1">
  <advance width="518"/>
  <unicode hex="0062"/>
  <note>
	b
  </note>
  <outline>
    <contour>
      <point x="389" y="-9"/>
      <point x="464" y="82"/>
      <point x="464" y="247" type="curve" smooth="yes"/>
      <point x="464" y="377"/>
      <point x="419" y="476"/>
      <point x="300" y="476" type="curve" smooth="yes"/>
      <point x="238" y="476"/>
      <point x="185" y="441"/>
      <point x="143" y="401" type="curve"/>
      <point x="137" y="401" type="line"/>
      <point x="140" y="476" type="line"/>
      <point x="140" y="669" type="line"/>
      <point x="80" y="669" type="line"/>
      <point x="80" y="15" type="line"/>
      <point x="131" y="1"/>
      <point x="184" y="-9"/>
      <point x="240" y="-9" type="curve" smooth="yes"/>
    </contour>
    <contour>
      <point x="206" y="44"/>
      <point x="165" y="50"/>
      <point x="140" y="56" type="curve"/>
      <point x="140" y="350" type="line"/>
      <point x="181" y="397"/>
      <point x="230" y="423"/>
      <point x="283" y="423" type="curve" smooth="yes"/>
      <point x="366" y="423"/>
      <point x="401" y="367"/>
      <point x="401" y="244" type="curve" smooth="yes"/>
      <point x="401" y="101"/>
      <point x="352" y="44"/>
      <point x="242" y="44" type="curve" smooth="yes"/>
    </contour>
  </outline>
</glyph>
<glyph name="j" format="1">
  <advance width="263"/>
  <unicode hex="006A"/>
  <note>
	j
  </note>
  <outline>
    <contour>
      <point x="139" y="-191"/>
      <point x="185" y="-146"/>
      <point x="185" y="-65" type="curve" smooth="yes"/>
      <point x="185" y="468" type="line"/>
      <point x="126" y="468" type="line"/>
      <point x="126" y="-61" type="line" smooth="yes"/>
      <point x="126" y="-88"/>
      <point x="125" y="-108"/>
      <point x="118" y="-128" type="curve"/>
      <point x="100" y="-134"/>
      <point x="85" y="-137"/>
      <point x="61" y="-137" type="curve" smooth="yes"/>
      <point x="34" y="-137"/>
      <point x="15" y="-134"/>
      <point x="-14" y="-126" type="curve"/>
      <point x="-28" y="-178" type="line"/>
      <point x="0" y="-187"/>
      <point x="32" y="-191"/>
      <point x="60" y="-191" type="curve" smooth="yes"/>
    </contour>
    <contour>
      <point x="187" y="554" type="line"/>
      <point x="187" y="647" type="line"/>
      <point x="124" y="647" type="line"/>
      <point x="124" y="554" type="line"/>
    </contour>
  </outline>
</glyph>
<glyph name="k" format="1">
  <advance width="492"/>
  <unicode hex="006B"/>
  <note>
	k
  </note>
  <outline>
    <contour>
      <point x="436" y="-7"/>
      <point x="447" y="-5"/>
      <point x="462" y="-1" type="curve"/>
      <point x="462" y="31" type="line"/>
      <point x="423" y="38" type="line"/>
      <point x="369" y="159" type="line" smooth="yes"/>
      <point x="348" y="205"/>
      <point x="328" y="228"/>
      <point x="277" y="243" type="curve"/>
      <point x="277" y="249" type="line"/>
      <point x="327" y="264"/>
      <point x="348" y="292"/>
      <point x="367" y="333" type="curve" smooth="yes"/>
      <point x="420" y="452" type="line"/>
      <point x="362" y="474" type="line"/>
      <point x="308" y="353" type="line" smooth="yes"/>
      <point x="289" y="309"/>
      <point x="263" y="270"/>
      <point x="188" y="270" type="curve" smooth="yes"/>
      <point x="135" y="270" type="line"/>
      <point x="135" y="669" type="line"/>
      <point x="76" y="669" type="line"/>
      <point x="76" y="0" type="line"/>
      <point x="135" y="0" type="line"/>
      <point x="135" y="221" type="line"/>
      <point x="193" y="221" type="line" smooth="yes"/>
      <point x="265" y="221"/>
      <point x="292" y="188"/>
      <point x="317" y="131" type="curve" smooth="yes"/>
      <point x="363" y="27" type="line" smooth="yes"/>
      <point x="374" y="4"/>
      <point x="390" y="-7"/>
      <point x="418" y="-7" type="curve" smooth="yes"/>
    </contour>
  </outline>
</glyph>
<glyph name="p" format="1">
  <advance width="524"/>
  <unicode hex="0070"/>
  <note>
	p
  </note>
  <outline>
    <contour>
      <point x="140" y="-187" type="line"/>
      <point x="140" y="-18" type="line"/>
      <point x="137" y="59" type="line"/>
      <point x="144" y="59" type="line"/>
      <point x="183" y="20"/>
      <point x="238" y="-5"/>
      <point x="295" y="-5" type="curve" smooth="yes"/>
      <point x="423" y="-5"/>
      <point x="469" y="104"/>
      <point x="469" y="235" type="curve" smooth="yes"/>
      <point x="469" y="391"/>
      <point x="418" y="476"/>
      <point x="302" y="476" type="curve" smooth="yes"/>
      <point x="236" y="476"/>
      <point x="187" y="444"/>
      <point x="145" y="401" type="curve"/>
      <point x="137" y="401" type="line"/>
      <point x="133" y="468" type="line"/>
      <point x="80" y="468" type="line"/>
      <point x="80" y="-187" type="line"/>
    </contour>
    <contour>
      <point x="231" y="48"/>
      <point x="183" y="66"/>
      <point x="141" y="111" type="curve"/>
      <point x="141" y="342" type="line"/>
      <point x="171" y="384"/>
      <point x="221" y="423"/>
      <point x="283" y="423" type="curve" smooth="yes"/>
      <point x="377" y="423"/>
      <point x="406" y="363"/>
      <point x="406" y="237" type="curve" smooth="yes"/>
      <point x="406" y="118"/>
      <point x="373" y="48"/>
      <point x="281" y="48" type="curve" smooth="yes"/>
    </contour>
  </outline>
</glyph>
<glyph name="q" format="1">
  <advance width="518"/>
  <unicode hex="0071"/>
  <note>
	q
  </note>
  <outline>
    <contour>
      <point x="434" y="-193" type="line"/>
      <point x="434" y="451" type="line"/>
      <point x="383" y="466"/>
      <point x="334" y="477"/>
      <point x="277" y="477" type="curve" smooth="yes"/>
      <point x="129" y="477"/>
      <point x="53" y="386"/>
      <point x="53" y="220" type="curve" smooth="yes"/>
      <point x="53" y="98"/>
      <point x="101" y="-5"/>
      <point x="224" y="-5" type="curve" smooth="yes"/>
      <point x="295" y="-5"/>
      <point x="338" y="29"/>
      <point x="371" y="66" type="curve"/>
      <point x="378" y="66" type="line"/>
      <point x="374" y="-7" type="line"/>
      <point x="374" y="-193" type="line"/>
    </contour>
    <contour>
      <point x="153" y="48"/>
      <point x="116" y="109"/>
      <point x="116" y="223" type="curve" smooth="yes"/>
      <point x="116" y="367"/>
      <point x="166" y="424"/>
      <point x="276" y="424" type="curve" smooth="yes"/>
      <point x="314" y="424"/>
      <point x="349" y="418"/>
      <point x="374" y="412" type="curve"/>
      <point x="374" y="119" type="line"/>
      <point x="342" y="78"/>
      <point x="296" y="48"/>
      <point x="240" y="48" type="curve" smooth="yes"/>
    </contour>
  </outline>
</glyph>
<glyph name="r" format="1">
  <advance width="360"/>
  <unicode hex="0072"/>
  <note>
	r
  </note>
  <outline>
    <contour>
      <point x="140" y="0" type="line"/>
      <point x="140" y="315" type="line"/>
      <point x="161" y="372"/>
      <point x="213" y="403"/>
      <point x="280" y="403" type="curve" smooth="yes"/>
      <point x="321" y="403" type="line"/>
      <point x="328" y="450" type="line"/>
      <point x="323" y="458"/>
      <point x="306" y="472"/>
      <point x="296" y="472" type="curve" smooth="yes"/>
      <point x="233" y="472"/>
      <point x="173" y="434"/>
      <point x="143" y="376" type="curve"/>
      <point x="134" y="376" type="line"/>
      <point x="129" y="466" type="line"/>
      <point x="80" y="466" type="line"/>
      <point x="80" y="0" type="line"/>
    </contour>
  </outline>
</glyph>
<glyph name="x" format="1">
  <advance width="479"/>
  <unicode hex="0078"/>
  <note>
	x
  </note>
  <outline>
    <contour>
      <point x="132" y="68"/>
      <point x="177" y="137"/>
      <point x="226" y="209" type="curve"/>
      <point x="251" y="209" type="line"/>
      <point x="295" y="141"/>
      <point x="341" y="67"/>
      <point x="379" y="-7" type="curve"/>
      <point x="439" y="5" type="line"/>
      <point x="399" y="78"/>
      <point x="342" y="170"/>
      <point x="296" y="237" type="curve"/>
      <point x="348" y="307"/>
      <point x="401" y="386"/>
      <point x="443" y="462" type="curve"/>
      <point x="384" y="472" type="line"/>
      <point x="344" y="395"/>
      <point x="303" y="331"/>
      <point x="251" y="260" type="curve"/>
      <point x="226" y="260" type="line"/>
      <point x="178" y="329"/>
      <point x="139" y="396"/>
      <point x="99" y="472" type="curve"/>
      <point x="37" y="461" type="line"/>
      <point x="78" y="387"/>
      <point x="134" y="300"/>
      <point x="181" y="233" type="curve"/>
      <point x="132" y="164"/>
      <point x="76" y="79"/>
      <point x="34" y="5" type="curve"/>
      <point x="93" y="-7" type="line"/>
    </contour>
  </outline>
</glyph>
<glyph name="braceleft" format="1">
  <advance width="409"/>
  <unicode hex="007B"/>
  <note>
	braceleft
  </note>
  <outline>
    <contour>
      <point x="352" y="-66" type="line"/>
      <point x="310" y="-65"/>
      <point x="276" y="-60"/>
      <point x="249" y="-49" type="curve"/>
      <point x="240" y="-13"/>
      <point x="237" y="27"/>
      <point x="239" y="81" type="curve" smooth="yes"/>
      <point x="243" y="175" type="line" smooth="yes"/>
      <point x="247" y="249"/>
      <point x="217" y="296"/>
      <point x="153" y="314" type="curve"/>
      <point x="153" y="319" type="line"/>
      <point x="217" y="337"/>
      <point x="247" y="383"/>
      <point x="243" y="457" type="curve" smooth="yes"/>
      <point x="239" y="539" type="line" smooth="yes"/>
      <point x="237" y="593"/>
      <point x="240" y="633"/>
      <point x="249" y="669" type="curve"/>
      <point x="276" y="680"/>
      <point x="310" y="685"/>
      <point x="352" y="686" type="curve"/>
      <point x="352" y="742" type="line"/>
      <point x="221" y="737"/>
      <point x="172" y="683"/>
      <point x="180" y="542" type="curve" smooth="yes"/>
      <point x="184" y="472" type="line" smooth="yes"/>
      <point x="188" y="403"/>
      <point x="167" y="340"/>
      <point x="66" y="340" type="curve"/>
      <point x="66" y="292" type="line"/>
      <point x="167" y="292"/>
      <point x="188" y="229"/>
      <point x="184" y="161" type="curve" smooth="yes"/>
      <point x="180" y="78" type="line" smooth="yes"/>
      <point x="172" y="-63"/>
      <point x="221" y="-117"/>
      <point x="352" y="-122" type="curve"/>
    </contour>
  </outline>
</glyph>
<glyph name="asciitilde" format="1">
  <advance width="448"/>
  <unicode hex="007E"/>
  <note>
	asciitilde
  </note>
  <outline>
    <contour>
      <point x="111" y="265"/>
      <point x="126" y="286"/>
      <point x="157" y="286" type="curve" smooth="yes"/>
      <point x="193" y="286"/>
      <point x="232" y="233"/>
      <point x="296" y="233" type="curve" smooth="yes"/>
      <point x="348" y="233"/>
      <point x="384" y="260"/>
      <point x="391" y="337" type="curve"/>
      <point x="342" y="345" type="line"/>
      <point x="337" y="307"/>
      <point x="321" y="287"/>
      <point x="291" y="287" type="curve" smooth="yes"/>
      <point x="247" y="287"/>
      <point x="217" y="340"/>
      <point x="151" y="340" type="curve" smooth="yes"/>
      <point x="99" y="340"/>
      <point x="64" y="313"/>
      <point x="56" y="236" type="curve"/>
      <point x="105" y="228" type="line"/>
    </contour>
  </outline>
</glyph>
<glyph name="exclamdown" format="1">
  <advance width="232"/>
  <unicode hex="00A1"/>
  <note>
	exclamdown
  </note>
  <outline>
    <contour>
      <point x="149" y="0" type="line"/>
      <point x="149" y="197" type="line"/>
      <point x="142" y="443" type="line"/>
      <point x="90" y="443" type="line"/>
      <point x="83" y="197" type="line"/>
      <point x="83" y="0" type="line"/>
    </contour>
    <contour>
      <point x="150" y="528" type="line"/>
      <point x="150" y="614" type="line"/>
      <point x="82" y="614" type="line"/>
      <point x="82" y="528" type="line"/>
    </contour>
  </outline>
</glyph>
<glyph name="cent" format="1">
  <advance width="448"/>
  <unicode hex="00A2"/>
  <note>
	cent
  </note>
  <outline>
    <contour>
      <point x="278" y="-144" type="line"/>
      <point x="278" y="-9" type="line"/>
      <point x="338" y="-5"/>
      <point x="379" y="15"/>
      <point x="416" y="44" type="curve"/>
      <point x="387" y="87" type="line"/>
      <point x="352" y="60"/>
      <point x="311" y="45"/>
      <point x="260" y="45" type="curve" smooth="yes"/>
      <point x="153" y="45"/>
      <point x="115" y="108"/>
      <point x="115" y="217" type="curve" smooth="yes"/>
      <point x="115" y="292"/>
      <point x="128" y="360"/>
      <point x="145" y="398" type="curve"/>
      <point x="172" y="410"/>
      <point x="211" y="415"/>
      <point x="247" y="415" type="curve" smooth="yes"/>
      <point x="279" y="415"/>
      <point x="306" y="411"/>
      <point x="329" y="405" type="curve"/>
      <point x="337" y="337" type="line"/>
      <point x="378" y="337" type="line"/>
      <point x="385" y="356"/>
      <point x="389" y="381"/>
      <point x="389" y="405" type="curve" smooth="yes"/>
      <point x="389" y="431" type="line"/>
      <point x="361" y="449"/>
      <point x="323" y="464"/>
      <point x="277" y="468" type="curve"/>
      <point x="277" y="614" type="line"/>
      <point x="225" y="614" type="line"/>
      <point x="225" y="468" type="line"/>
      <point x="104" y="456"/>
      <point x="56" y="357"/>
      <point x="56" y="216" type="curve" smooth="yes"/>
      <point x="56" y="93"/>
      <point x="98" y="5"/>
      <point x="224" y="-8" type="curve"/>
      <point x="224" y="-144" type="line"/>
    </contour>
  </outline>
</glyph>
<glyph name="currency" format="1">
  <advance width="566"/>
  <unicode hex="00A4"/>
  <note>
	currency
  </note>
  <outline>
    <contour>
      <point x="173" y="140" type="line"/>
      <point x="206" y="117"/>
      <point x="240" y="104"/>
      <point x="285" y="104" type="curve" smooth="yes"/>
      <point x="330" y="104"/>
      <point x="364" y="117"/>
      <point x="397" y="140" type="curve"/>
      <point x="463" y="76" type="line"/>
      <point x="500" y="111" type="line"/>
      <point x="435" y="178" type="line"/>
      <point x="460" y="214"/>
      <point x="471" y="247"/>
      <point x="471" y="291" type="curve" smooth="yes"/>
      <point x="471" y="334"/>
      <point x="460" y="367"/>
      <point x="435" y="404" type="curve"/>
      <point x="501" y="471" type="line"/>
      <point x="463" y="507" type="line"/>
      <point x="397" y="443" type="line"/>
      <point x="363" y="466"/>
      <point x="329" y="479"/>
      <point x="285" y="479" type="curve" smooth="yes"/>
      <point x="241" y="479"/>
      <point x="206" y="466"/>
      <point x="173" y="443" type="curve"/>
      <point x="106" y="507" type="line"/>
      <point x="69" y="471" type="line"/>
      <point x="134" y="404" type="line"/>
      <point x="110" y="367"/>
      <point x="98" y="334"/>
      <point x="98" y="291" type="curve" smooth="yes"/>
      <point x="98" y="247"/>
      <point x="110" y="214"/>
      <point x="134" y="178" type="curve"/>
      <point x="70" y="111" type="line"/>
      <point x="106" y="76" type="line"/>
    </contour>
    <contour>
      <point x="205" y="157"/>
      <point x="152" y="212"/>
      <point x="152" y="291" type="curve" smooth="yes"/>
      <point x="152" y="368"/>
      <point x="202" y="426"/>
      <point x="285" y="426" type="curve" smooth="yes"/>
      <point x="368" y="426"/>
      <point x="418" y="368"/>
      <point x="418" y="291" type="curve" smooth="yes"/>
      <point x="418" y="212"/>
      <point x="366" y="157"/>
      <point x="285" y="157" type="curve" smooth="yes"/>
    </contour>
  </outline>
</glyph>
<glyph name="yen" format="1">
  <advance width="622"/>
  <unicode hex="00A5"/>
  <note>
	yen
  </note>
  <outline>
    <contour>
      <point x="342" y="0" type="line"/>
      <point x="342" y="96" type="line"/>
      <point x="457" y="96" type="line"/>
      <point x="457" y="142" type="line"/>
      <point x="342" y="142" type="line"/>
      <point x="342" y="213" type="line"/>
      <point x="457" y="213" type="line"/>
      <point x="457" y="259" type="line"/>
      <point x="386" y="259" type="line"/>
      <point x="462" y="367"/>
      <point x="520" y="466"/>
      <point x="580" y="602" type="curve"/>
      <point x="518" y="619" type="line"/>
      <point x="461" y="484"/>
      <point x="393" y="369"/>
      <point x="328" y="275" type="curve"/>
      <point x="294" y="275" type="line"/>
      <point x="229" y="369"/>
      <point x="161" y="484"/>
      <point x="104" y="619" type="curve"/>
      <point x="42" y="602" type="line"/>
      <point x="102" y="466"/>
      <point x="159" y="367"/>
      <point x="236" y="259" type="curve"/>
      <point x="165" y="259" type="line"/>
      <point x="165" y="213" type="line"/>
      <point x="279" y="213" type="line"/>
      <point x="279" y="142" type="line"/>
      <point x="165" y="142" type="line"/>
      <point x="165" y="96" type="line"/>
      <point x="279" y="96" type="line"/>
      <point x="279" y="0" type="line"/>
    </contour>
  </outline>
</glyph>
<glyph name="brokenbar" format="1">
  <advance width="232"/>
  <unicode hex="00A6"/>
  <note>
	brokenbar
  </note>
  <outline>
    <contour>
      <point x="143" y="304" type="line"/>
      <point x="143" y="624" type="line"/>
      <point x="88" y="624" type="line"/>
      <point x="88" y="304" type="line"/>
    </contour>
    <contour>
      <point x="143" y="-110" type="line"/>
      <point x="143" y="210" type="line"/>
      <point x="88" y="210" type="line"/>
      <point x="88" y="-110" type="line"/>
    </contour>
  </outline>
</glyph>
<glyph name="section" format="1">
  <advance width="546"/>
  <unicode hex="00A7"/>
  <note>
	section
  </note>
  <outline>
    <contour>
      <point x="376" y="-127"/>
      <point x="424" y="-59"/>
      <point x="424" y="19" type="curve" smooth="yes"/>
      <point x="424" y="58"/>
      <point x="413" y="85"/>
      <point x="388" y="106" type="curve"/>
      <point x="388" y="112" type="line"/>
      <point x="449" y="144"/>
      <point x="478" y="182"/>
      <point x="478" y="242" type="curve" smooth="yes"/>
      <point x="478" y="333"/>
      <point x="413" y="357"/>
      <point x="302" y="382" type="curve" smooth="yes"/>
      <point x="201" y="404"/>
      <point x="162" y="424"/>
      <point x="162" y="487" type="curve" smooth="yes"/>
      <point x="162" y="546"/>
      <point x="201" y="567"/>
      <point x="280" y="567" type="curve" smooth="yes"/>
      <point x="310" y="567"/>
      <point x="336" y="564"/>
      <point x="358" y="561" type="curve"/>
      <point x="367" y="498" type="line"/>
      <point x="411" y="498" type="line"/>
      <point x="417" y="518"/>
      <point x="423" y="545"/>
      <point x="423" y="568" type="curve" smooth="yes"/>
      <point x="423" y="591" type="line"/>
      <point x="388" y="608"/>
      <point x="346" y="621"/>
      <point x="283" y="621" type="curve" smooth="yes"/>
      <point x="159" y="621"/>
      <point x="100" y="557"/>
      <point x="100" y="478" type="curve" smooth="yes"/>
      <point x="100" y="433"/>
      <point x="119" y="404"/>
      <point x="150" y="379" type="curve"/>
      <point x="150" y="373" type="line"/>
      <point x="97" y="343"/>
      <point x="68" y="307"/>
      <point x="68" y="250" type="curve" smooth="yes"/>
      <point x="68" y="167"/>
      <point x="128" y="135"/>
      <point x="230" y="108" type="curve" smooth="yes"/>
      <point x="336" y="79"/>
      <point x="362" y="66"/>
      <point x="362" y="8" type="curve" smooth="yes"/>
      <point x="362" y="-15"/>
      <point x="357" y="-41"/>
      <point x="350" y="-60" type="curve"/>
      <point x="320" y="-68"/>
      <point x="291" y="-72"/>
      <point x="250" y="-72" type="curve" smooth="yes"/>
      <point x="198" y="-72"/>
      <point x="166" y="-68"/>
      <point x="119" y="-53" type="curve"/>
      <point x="100" y="-102" type="line"/>
      <point x="157" y="-122"/>
      <point x="195" y="-127"/>
      <point x="247" y="-127" type="curve" smooth="yes"/>
    </contour>
    <contour>
      <point x="326" y="143"/>
      <point x="304" y="148"/>
      <point x="245" y="164" type="curve" smooth="yes"/>
      <point x="156" y="188"/>
      <point x="131" y="211"/>
      <point x="131" y="259" type="curve" smooth="yes"/>
      <point x="131" y="302"/>
      <point x="148" y="330"/>
      <point x="187" y="351" type="curve"/>
      <point x="220" y="341"/>
      <point x="242" y="335"/>
      <point x="287" y="325" type="curve" smooth="yes"/>
      <point x="389" y="303"/>
      <point x="415" y="286"/>
      <point x="415" y="231" type="curve" smooth="yes"/>
      <point x="415" y="187"/>
      <point x="385" y="158"/>
      <point x="358" y="135" type="curve"/>
    </contour>
  </outline>
</glyph>
<glyph name="dieresis" format="1">
  <advance width="370"/>
  <unicode hex="00A8"/>
  <note>
	dieresis
  </note>
  <outline>
    <contour>
      <point x="289" y="481"/>
      <point x="303" y="495"/>
      <point x="303" y="517" type="curve" smooth="yes"/>
      <point x="303" y="541"/>
      <point x="289" y="554"/>
      <point x="265" y="554" type="curve" smooth="yes"/>
      <point x="240" y="554"/>
      <point x="225" y="541"/>
      <point x="225" y="517" type="curve" smooth="yes"/>
      <point x="225" y="495"/>
      <point x="240" y="481"/>
      <point x="265" y="481" type="curve" smooth="yes"/>
    </contour>
    <contour>
      <point x="131" y="481"/>
      <point x="145" y="495"/>
      <point x="145" y="517" type="curve" smooth="yes"/>
      <point x="145" y="541"/>
      <point x="131" y="554"/>
      <point x="107" y="554" type="curve" smooth="yes"/>
      <point x="83" y="554"/>
      <point x="68" y="541"/>
      <point x="68" y="517" type="curve" smooth="yes"/>
      <point x="68" y="495"/>
      <point x="83" y="481"/>
      <point x="107" y="481" type="curve" smooth="yes"/>
    </contour>
  </outline>
</glyph>
<glyph name="guillemotleft" format="1">
  <advance width="463"/>
  <unicode hex="00AB"/>
  <note>
	guillemotleft
  </note>
  <outline>
    <contour>
      <point x="391" y="97" type="line"/>
      <point x="278" y="248" type="line"/>
      <point x="278" y="254" type="line"/>
      <point x="391" y="405" type="line"/>
      <point x="347" y="425" type="line"/>
      <point x="217" y="251" type="line"/>
      <point x="347" y="77" type="line"/>
    </contour>
    <contour>
      <point x="231" y="97" type="line"/>
      <point x="118" y="248" type="line"/>
      <point x="118" y="254" type="line"/>
      <point x="231" y="405" type="line"/>
      <point x="187" y="425" type="line"/>
      <point x="57" y="251" type="line"/>
      <point x="187" y="77" type="line"/>
    </contour>
  </outline>
</glyph>
<glyph name="registered" format="1">
  <advance width="738"/>
  <unicode hex="00AE"/>
  <note>
	registered
  </note>
  <outline>
    <contour>
      <point x="556" y="5"/>
      <point x="671" y="131"/>
      <point x="671" y="308" type="curve" smooth="yes"/>
      <point x="671" y="485"/>
      <point x="556" y="611"/>
      <point x="369" y="611" type="curve" smooth="yes"/>
      <point x="181" y="611"/>
      <point x="66" y="485"/>
      <point x="66" y="308" type="curve" smooth="yes"/>
      <point x="66" y="131"/>
      <point x="181" y="5"/>
      <point x="369" y="5" type="curve" smooth="yes"/>
    </contour>
    <contour>
      <point x="201" y="38"/>
      <point x="100" y="145"/>
      <point x="100" y="308" type="curve" smooth="yes"/>
      <point x="100" y="471"/>
      <point x="201" y="578"/>
      <point x="368" y="578" type="curve" smooth="yes"/>
      <point x="536" y="578"/>
      <point x="637" y="471"/>
      <point x="637" y="308" type="curve" smooth="yes"/>
      <point x="637" y="145"/>
      <point x="536" y="38"/>
      <point x="368" y="38" type="curve" smooth="yes"/>
    </contour>
    <contour>
      <point x="502" y="133"/>
      <point x="510" y="135"/>
      <point x="520" y="138" type="curve"/>
      <point x="520" y="161" type="line"/>
      <point x="497" y="166" type="line"/>
      <point x="457" y="253" type="line" smooth="yes"/>
      <point x="446" y="273"/>
      <point x="435" y="284"/>
      <point x="418" y="292" type="curve"/>
      <point x="418" y="295" type="line"/>
      <point x="461" y="313"/>
      <point x="481" y="347"/>
      <point x="481" y="394" type="curve" smooth="yes"/>
      <point x="481" y="465"/>
      <point x="441" y="502"/>
      <point x="349" y="502" type="curve" smooth="yes"/>
      <point x="315" y="502"/>
      <point x="285" y="496"/>
      <point x="254" y="488" type="curve"/>
      <point x="254" y="136" type="line"/>
      <point x="298" y="136" type="line"/>
      <point x="298" y="282" type="line"/>
      <point x="345" y="282" type="line" smooth="yes"/>
      <point x="387" y="282"/>
      <point x="402" y="266"/>
      <point x="416" y="234" type="curve" smooth="yes"/>
      <point x="449" y="161" type="line" smooth="yes"/>
      <point x="459" y="141"/>
      <point x="472" y="133"/>
      <point x="491" y="133" type="curve" smooth="yes"/>
    </contour>
    <contour>
      <point x="298" y="456" type="line"/>
      <point x="315" y="459"/>
      <point x="331" y="460"/>
      <point x="350" y="460" type="curve" smooth="yes"/>
      <point x="413" y="460"/>
      <point x="437" y="441"/>
      <point x="437" y="392" type="curve" smooth="yes"/>
      <point x="437" y="341"/>
      <point x="414" y="325"/>
      <point x="335" y="325" type="curve" smooth="yes"/>
      <point x="298" y="325" type="line"/>
    </contour>
  </outline>
</glyph>
<glyph name="plusminus" format="1">
  <advance width="586"/>
  <unicode hex="00B1"/>
  <note>
	plusminus
  </note>
  <outline>
    <contour>
      <point x="321" y="119" type="line"/>
      <point x="321" y="313" type="line"/>
      <point x="504" y="313" type="line"/>
      <point x="504" y="364" type="line"/>
      <point x="321" y="364" type="line"/>
      <point x="321" y="544" type="line"/>
      <point x="264" y="544" type="line"/>
      <point x="264" y="364" type="line"/>
      <point x="81" y="364" type="line"/>
      <point x="81" y="313" type="line"/>
      <point x="264" y="313" type="line"/>
      <point x="264" y="119" type="line"/>
    </contour>
    <contour>
      <point x="502" y="0" type="line"/>
      <point x="502" y="48" type="line"/>
      <point x="93" y="48" type="line"/>
      <point x="93" y="0" type="line"/>
    </contour>
  </outline>
</glyph>
<glyph name="threesuperior" format="1">
  <advance width="307"/>
  <unicode hex="00B3"/>
  <note>
	threesuperior
  </note>
  <outline>
    <contour>
      <point x="232" y="330"/>
      <point x="265" y="369"/>
      <point x="265" y="425" type="curve" smooth="yes"/>
      <point x="265" y="464"/>
      <point x="249" y="493"/>
      <point x="197" y="509" type="curve"/>
      <point x="197" y="512" type="line"/>
      <point x="237" y="529"/>
      <point x="258" y="553"/>
      <point x="258" y="598" type="curve" smooth="yes"/>
      <point x="258" y="655"/>
      <point x="222" y="695"/>
      <point x="147" y="695" type="curve" smooth="yes"/>
      <point x="104" y="695"/>
      <point x="70" y="688"/>
      <point x="35" y="674" type="curve"/>
      <point x="35" y="655" type="line" smooth="yes"/>
      <point x="35" y="640"/>
      <point x="38" y="620"/>
      <point x="44" y="606" type="curve"/>
      <point x="86" y="606" type="line"/>
      <point x="86" y="642" type="line"/>
      <point x="108" y="645"/>
      <point x="121" y="646"/>
      <point x="143" y="646" type="curve" smooth="yes"/>
      <point x="183" y="646"/>
      <point x="203" y="630"/>
      <point x="203" y="592" type="curve" smooth="yes"/>
      <point x="203" y="552"/>
      <point x="181" y="533"/>
      <point x="134" y="533" type="curve" smooth="yes"/>
      <point x="92" y="533" type="line"/>
      <point x="92" y="486" type="line"/>
      <point x="134" y="486" type="line" smooth="yes"/>
      <point x="184" y="486"/>
      <point x="211" y="468"/>
      <point x="211" y="430" type="curve" smooth="yes"/>
      <point x="211" y="415"/>
      <point x="209" y="398"/>
      <point x="202" y="384" type="curve"/>
      <point x="180" y="379"/>
      <point x="164" y="378"/>
      <point x="138" y="378" type="curve" smooth="yes"/>
      <point x="103" y="378"/>
      <point x="72" y="382"/>
      <point x="39" y="390" type="curve"/>
      <point x="32" y="343" type="line"/>
      <point x="64" y="335"/>
      <point x="102" y="330"/>
      <point x="138" y="330" type="curve" smooth="yes"/>
    </contour>
  </outline>
</glyph>
<glyph name="acute" format="1">
  <advance width="323"/>
  <unicode hex="00B4"/>
  <note>
	acute
  </note>
  <outline>
    <contour>
      <point x="229" y="892" type="line"/>
      <point x="148" y="901" type="line"/>
      <point x="65" y="758" type="line"/>
      <point x="110" y="750" type="line"/>
    </contour>
  </outline>
</glyph>
<glyph name="mu" format="1">
  <advance width="514"/>
  <unicode hex="00B5"/>
  <note>
	mu
  </note>
  <outline>
    <contour>
      <point x="141" y="-213" type="line"/>
      <point x="141" y="19" type="line"/>
      <point x="148" y="19" type="line"/>
      <point x="168" y="4"/>
      <point x="194" y="-6"/>
      <point x="227" y="-6" type="curve" smooth="yes"/>
      <point x="300" y="-6"/>
      <point x="333" y="25"/>
      <point x="374" y="72" type="curve"/>
      <point x="381" y="72" type="line"/>
      <point x="387" y="0" type="line"/>
      <point x="437" y="0" type="line"/>
      <point x="437" y="470" type="line"/>
      <point x="376" y="470" type="line"/>
      <point x="376" y="120" type="line"/>
      <point x="341" y="76"/>
      <point x="297" y="49"/>
      <point x="230" y="49" type="curve" smooth="yes"/>
      <point x="196" y="49"/>
      <point x="168" y="54"/>
      <point x="141" y="68" type="curve"/>
      <point x="141" y="470" type="line"/>
      <point x="80" y="470" type="line"/>
      <point x="80" y="-213" type="line"/>
    </contour>
  </outline>
</glyph>
<glyph name="periodcentered" format="1">
  <advance width="345"/>
  <unicode hex="00B7"/>
  <note>
	periodcentered
  </note>
  <outline>
    <contour>
      <point x="202" y="221"/>
      <point x="222" y="241"/>
      <point x="222" y="269" type="curve" smooth="yes"/>
      <point x="222" y="298"/>
      <point x="201" y="318"/>
      <point x="173" y="318" type="curve" smooth="yes"/>
      <point x="145" y="318"/>
      <point x="123" y="298"/>
      <point x="123" y="269" type="curve" smooth="yes"/>
      <point x="123" y="241"/>
      <point x="144" y="221"/>
      <point x="173" y="221" type="curve" smooth="yes"/>
    </contour>
  </outline>
</glyph>
<glyph name="ordmasculine" format="1">
  <advance width="373"/>
  <unicode hex="00BA"/>
  <note>
	ordmasculine
  </note>
  <outline>
    <contour>
      <point x="284" y="265"/>
      <point x="325" y="329"/>
      <point x="325" y="436" type="curve" smooth="yes"/>
      <point x="325" y="542"/>
      <point x="285" y="605"/>
      <point x="197" y="605" type="curve" smooth="yes"/>
      <point x="89" y="605"/>
      <point x="48" y="541"/>
      <point x="48" y="433" type="curve" smooth="yes"/>
      <point x="48" y="329"/>
      <point x="88" y="265"/>
      <point x="176" y="265" type="curve" smooth="yes"/>
    </contour>
    <contour>
      <point x="123" y="312"/>
      <point x="102" y="352"/>
      <point x="102" y="442" type="curve" smooth="yes"/>
      <point x="102" y="486"/>
      <point x="107" y="519"/>
      <point x="119" y="547" type="curve"/>
      <point x="140" y="555"/>
      <point x="157" y="558"/>
      <point x="186" y="558" type="curve" smooth="yes"/>
      <point x="251" y="558"/>
      <point x="272" y="519"/>
      <point x="272" y="428" type="curve" smooth="yes"/>
      <point x="272" y="384"/>
      <point x="267" y="351"/>
      <point x="255" y="322" type="curve"/>
      <point x="234" y="315"/>
      <point x="217" y="312"/>
      <point x="188" y="312" type="curve" smooth="yes"/>
    </contour>
  </outline>
</glyph>
<glyph name="onehalf" format="1">
  <advance width="788"/>
  <unicode hex="00BD"/>
  <note>
	onehalf
  </note>
  <outline>
    <contour>
      <point x="591" y="608" type="line"/>
      <point x="543" y="621" type="line"/>
      <point x="160" y="9" type="line"/>
      <point x="209" y="-5" type="line"/>
    </contour>
    <contour>
      <point x="202" y="256" type="line"/>
      <point x="202" y="587" type="line" smooth="yes"/>
      <point x="202" y="600"/>
      <point x="167" y="617"/>
      <point x="145" y="618" type="curve"/>
      <point x="61" y="568" type="line"/>
      <point x="74" y="532" type="line"/>
      <point x="140" y="558" type="line"/>
      <point x="145" y="554" type="line"/>
      <point x="145" y="256" type="line"/>
    </contour>
    <contour>
      <point x="764" y="0" type="line"/>
      <point x="764" y="23" type="line" smooth="yes"/>
      <point x="764" y="43"/>
      <point x="762" y="61"/>
      <point x="756" y="79" type="curve"/>
      <point x="713" y="79" type="line"/>
      <point x="713" y="47" type="line"/>
      <point x="577" y="47" type="line"/>
      <point x="577" y="51" type="line"/>
      <point x="668" y="108"/>
      <point x="757" y="173"/>
      <point x="757" y="257" type="curve" smooth="yes"/>
      <point x="757" y="315"/>
      <point x="731" y="360"/>
      <point x="648" y="360" type="curve" smooth="yes"/>
      <point x="606" y="360"/>
      <point x="568" y="351"/>
      <point x="535" y="337" type="curve"/>
      <point x="535" y="318" type="line" smooth="yes"/>
      <point x="535" y="299"/>
      <point x="538" y="275"/>
      <point x="543" y="261" type="curve"/>
      <point x="586" y="261" type="line"/>
      <point x="586" y="303" type="line"/>
      <point x="608" y="308"/>
      <point x="621" y="309"/>
      <point x="643" y="309" type="curve" smooth="yes"/>
      <point x="686" y="309"/>
      <point x="702" y="296"/>
      <point x="702" y="254" type="curve" smooth="yes"/>
      <point x="702" y="196"/>
      <point x="634" y="139"/>
      <point x="523" y="71" type="curve"/>
      <point x="523" y="0" type="line"/>
    </contour>
  </outline>
</glyph>
<glyph name="threequarters" format="1">
  <advance width="819"/>
  <unicode hex="00BE"/>
  <note>
	threequarters
  </note>
  <outline>
    <contour>
      <point x="646" y="608" type="line"/>
      <point x="598" y="621" type="line"/>
      <point x="215" y="9" type="line"/>
      <point x="264" y="-5" type="line"/>
    </contour>
    <contour>
      <point x="264" y="249"/>
      <point x="297" y="288"/>
      <point x="297" y="344" type="curve" smooth="yes"/>
      <point x="297" y="383"/>
      <point x="281" y="412"/>
      <point x="229" y="428" type="curve"/>
      <point x="229" y="431" type="line"/>
      <point x="269" y="448"/>
      <point x="290" y="472"/>
      <point x="290" y="517" type="curve" smooth="yes"/>
      <point x="290" y="574"/>
      <point x="254" y="614"/>
      <point x="179" y="614" type="curve" smooth="yes"/>
      <point x="136" y="614"/>
      <point x="102" y="607"/>
      <point x="67" y="593" type="curve"/>
      <point x="67" y="574" type="line" smooth="yes"/>
      <point x="67" y="559"/>
      <point x="70" y="539"/>
      <point x="76" y="525" type="curve"/>
      <point x="118" y="525" type="line"/>
      <point x="118" y="561" type="line"/>
      <point x="140" y="564"/>
      <point x="153" y="565"/>
      <point x="175" y="565" type="curve" smooth="yes"/>
      <point x="215" y="565"/>
      <point x="235" y="549"/>
      <point x="235" y="511" type="curve" smooth="yes"/>
      <point x="235" y="471"/>
      <point x="213" y="452"/>
      <point x="166" y="452" type="curve" smooth="yes"/>
      <point x="124" y="452" type="line"/>
      <point x="124" y="405" type="line"/>
      <point x="166" y="405" type="line" smooth="yes"/>
      <point x="216" y="405"/>
      <point x="243" y="387"/>
      <point x="243" y="349" type="curve" smooth="yes"/>
      <point x="243" y="334"/>
      <point x="241" y="317"/>
      <point x="234" y="303" type="curve"/>
      <point x="212" y="298"/>
      <point x="196" y="297"/>
      <point x="170" y="297" type="curve" smooth="yes"/>
      <point x="135" y="297"/>
      <point x="104" y="301"/>
      <point x="71" y="309" type="curve"/>
      <point x="64" y="262" type="line"/>
      <point x="96" y="254"/>
      <point x="134" y="249"/>
      <point x="170" y="249" type="curve" smooth="yes"/>
    </contour>
    <contour>
      <point x="704" y="0" type="line"/>
      <point x="704" y="66" type="line"/>
      <point x="756" y="66" type="line"/>
      <point x="756" y="112" type="line"/>
      <point x="704" y="112" type="line"/>
      <point x="704" y="355" type="line"/>
      <point x="647" y="355" type="line"/>
      <point x="478" y="113" type="line"/>
      <point x="497" y="66" type="line"/>
      <point x="649" y="66" type="line"/>
      <point x="649" y="0" type="line"/>
    </contour>
    <contour>
      <point x="540" y="117" type="line"/>
      <point x="654" y="292" type="line"/>
      <point x="658" y="292" type="line"/>
      <point x="653" y="246"/>
      <point x="651" y="211"/>
      <point x="651" y="170" type="curve" smooth="yes"/>
      <point x="651" y="112" type="line"/>
      <point x="542" y="112" type="line"/>
    </contour>
  </outline>
</glyph>
<glyph name="Agrave" format="1">
  <advance width="591"/>
  <unicode hex="00C0"/>
  <note>
	Agrave
  </note>
  <outline>
    <contour>
      <point x="322" y="707" type="line"/>
      <point x="239" y="850" type="line"/>
      <point x="158" y="841" type="line"/>
      <point x="277" y="700" type="line"/>
    </contour>
    <component base="A"/>
  </outline>
</glyph>
<glyph name="Aacute" format="1">
  <advance width="591"/>
  <unicode hex="00C1"/>
  <note>
	Aacute
  </note>
  <outline>
    <contour>
      <point x="434" y="840" type="line"/>
      <point x="353" y="848" type="line"/>
      <point x="270" y="706" type="line"/>
      <point x="315" y="698" type="line"/>
    </contour>
    <component base="A"/>
  </outline>
</glyph>
<glyph name="Atilde" format="1">
  <advance width="591"/>
  <unicode hex="00C3"/>
  <note>
	Atilde
  </note>
  <outline>
    <contour>
      <point x="197" y="729"/>
      <point x="208" y="749"/>
      <point x="237" y="749" type="curve" smooth="yes"/>
      <point x="272" y="749"/>
      <point x="301" y="701"/>
      <point x="349" y="701" type="curve" smooth="yes"/>
      <point x="398" y="701"/>
      <point x="423" y="733"/>
      <point x="427" y="791" type="curve"/>
      <point x="386" y="804" type="line"/>
      <point x="382" y="774"/>
      <point x="370" y="754"/>
      <point x="342" y="754" type="curve" smooth="yes"/>
      <point x="308" y="754"/>
      <point x="274" y="802"/>
      <point x="230" y="802" type="curve" smooth="yes"/>
      <point x="181" y="802"/>
      <point x="156" y="770"/>
      <point x="152" y="712" type="curve"/>
      <point x="193" y="699" type="line"/>
    </contour>
    <component base="A"/>
  </outline>
</glyph>
<glyph name="Adieresis" format="1">
  <advance width="591"/>
  <unicode hex="00C4"/>
  <note>
	Adieresis
  </note>
  <outline>
    <contour>
      <point x="399" y="701"/>
      <point x="413" y="715"/>
      <point x="413" y="738" type="curve" smooth="yes"/>
      <point x="413" y="762"/>
      <point x="399" y="775"/>
      <point x="375" y="775" type="curve" smooth="yes"/>
      <point x="350" y="775"/>
      <point x="335" y="762"/>
      <point x="335" y="738" type="curve" smooth="yes"/>
      <point x="335" y="715"/>
      <point x="350" y="701"/>
      <point x="375" y="701" type="curve" smooth="yes"/>
    </contour>
    <contour>
      <point x="241" y="701"/>
      <point x="255" y="715"/>
      <point x="255" y="738" type="curve" smooth="yes"/>
      <point x="255" y="762"/>
      <point x="241" y="775"/>
      <point x="217" y="775" type="curve" smooth="yes"/>
      <point x="193" y="775"/>
      <point x="178" y="762"/>
      <point x="178" y="738" type="curve" smooth="yes"/>
      <point x="178" y="715"/>
      <point x="193" y="701"/>
      <point x="217" y="701" type="curve" smooth="yes"/>
    </contour>
    <component base="A"/>
  </outline>
</glyph>
<glyph name="Ccedilla" format="1">
  <advance width="555"/>
  <unicode hex="00C7"/>
  <note>
	Ccedilla
  </note>
  <outline>
    <contour>
      <point x="369" y="-216"/>
      <point x="404" y="-188"/>
      <point x="404" y="-130" type="curve" smooth="yes"/>
      <point x="404" y="-84"/>
      <point x="382" y="-56"/>
      <point x="329" y="-56" type="curve" smooth="yes"/>
      <point x="311" y="-56"/>
      <point x="296" y="-59"/>
      <point x="284" y="-64" type="curve"/>
      <point x="324" y="-9" type="line"/>
      <point x="331" y="-9"/>
      <point x="337" y="-8"/>
      <point x="343" y="-8" type="curve" smooth="yes"/>
      <point x="414" y="-4"/>
      <point x="470" y="14"/>
      <point x="509" y="44" type="curve"/>
      <point x="480" y="91" type="line"/>
      <point x="441" y="65"/>
      <point x="382" y="50"/>
      <point x="319" y="50" type="curve" smooth="yes"/>
      <point x="179" y="50"/>
      <point x="120" y="127"/>
      <point x="120" y="295" type="curve" smooth="yes"/>
      <point x="120" y="395"/>
      <point x="143" y="482"/>
      <point x="187" y="548" type="curve"/>
      <point x="231" y="560"/>
      <point x="270" y="565"/>
      <point x="311" y="565" type="curve" smooth="yes"/>
      <point x="355" y="565"/>
      <point x="394" y="561"/>
      <point x="423" y="554" type="curve"/>
      <point x="433" y="472" type="line"/>
      <point x="474" y="472" type="line"/>
      <point x="481" y="489"/>
      <point x="485" y="516"/>
      <point x="485" y="539" type="curve" smooth="yes"/>
      <point x="485" y="585" type="line"/>
      <point x="451" y="606"/>
      <point x="383" y="624"/>
      <point x="312" y="624" type="curve" smooth="yes"/>
      <point x="134" y="624"/>
      <point x="57" y="481"/>
      <point x="57" y="291" type="curve" smooth="yes"/>
      <point x="57" y="113"/>
      <point x="127" y="8"/>
      <point x="277" y="-7" type="curve"/>
      <point x="226" y="-68" type="line"/>
      <point x="262" y="-104" type="line"/>
      <point x="275" y="-99"/>
      <point x="289" y="-97"/>
      <point x="306" y="-97" type="curve" smooth="yes"/>
      <point x="336" y="-97"/>
      <point x="352" y="-108"/>
      <point x="352" y="-134" type="curve" smooth="yes"/>
      <point x="352" y="-147"/>
      <point x="350" y="-157"/>
      <point x="346" y="-167" type="curve"/>
      <point x="331" y="-170"/>
      <point x="317" y="-172"/>
      <point x="296" y="-172" type="curve" smooth="yes"/>
      <point x="275" y="-172"/>
      <point x="248" y="-168"/>
      <point x="228" y="-160" type="curve"/>
      <point x="214" y="-200" type="line"/>
      <point x="244" y="-213"/>
      <point x="271" y="-216"/>
      <point x="298" y="-216" type="curve" smooth="yes"/>
    </contour>
  </outline>
</glyph>
<glyph name="Ecircumflex" format="1">
  <advance width="528"/>
  <unicode hex="00CA"/>
  <note>
	Ecircumflex
  </note>
  <outline>
    <contour>
      <point x="358" y="-9"/>
      <point x="414" y="-3"/>
      <point x="463" y="10" type="curve"/>
      <point x="449" y="65" type="line"/>
      <point x="401" y="54"/>
      <point x="345" y="49"/>
      <point x="289" y="49" type="curve" smooth="yes"/>
      <point x="233" y="49"/>
      <point x="191" y="52"/>
      <point x="143" y="61" type="curve"/>
      <point x="143" y="280" type="line"/>
      <point x="423" y="280" type="line"/>
      <point x="423" y="336" type="line"/>
      <point x="143" y="336" type="line"/>
      <point x="143" y="556" type="line"/>
      <point x="452" y="556" type="line"/>
      <point x="452" y="614" type="line"/>
      <point x="81" y="614" type="line"/>
      <point x="81" y="74" type="line" smooth="yes"/>
      <point x="81" y="9"/>
      <point x="172" y="-9"/>
      <point x="286" y="-9" type="curve" smooth="yes"/>
    </contour>
    <contour>
      <point x="264" y="786" type="line"/>
      <point x="270" y="786" type="line"/>
      <point x="357" y="697" type="line"/>
      <point x="398" y="706" type="line"/>
      <point x="297" y="838" type="line"/>
      <point x="237" y="838" type="line"/>
      <point x="136" y="706" type="line"/>
      <point x="175" y="697" type="line"/>
    </contour>
  </outline>
</glyph>
<glyph name="Edieresis" format="1">
  <advance width="528"/>
  <unicode hex="00CB"/>
  <note>
	Edieresis
  </note>
  <outline>
    <contour>
      <point x="358" y="-9"/>
      <point x="414" y="-3"/>
      <point x="463" y="10" type="curve"/>
      <point x="449" y="65" type="line"/>
      <point x="401" y="54"/>
      <point x="345" y="49"/>
      <point x="289" y="49" type="curve" smooth="yes"/>
      <point x="233" y="49"/>
      <point x="191" y="52"/>
      <point x="143" y="61" type="curve"/>
      <point x="143" y="280" type="line"/>
      <point x="423" y="280" type="line"/>
      <point x="423" y="336" type="line"/>
      <point x="143" y="336" type="line"/>
      <point x="143" y="556" type="line"/>
      <point x="452" y="556" type="line"/>
      <point x="452" y="614" type="line"/>
      <point x="81" y="614" type="line"/>
      <point x="81" y="74" type="line" smooth="yes"/>
      <point x="81" y="9"/>
      <point x="172" y="-9"/>
      <point x="286" y="-9" type="curve" smooth="yes"/>
    </contour>
    <contour>
      <point x="220" y="701"/>
      <point x="234" y="715"/>
      <point x="234" y="738" type="curve" smooth="yes"/>
      <point x="234" y="762"/>
      <point x="220" y="775"/>
      <point x="196" y="775" type="curve" smooth="yes"/>
      <point x="172" y="775"/>
      <point x="157" y="762"/>
      <point x="157" y="738" type="curve" smooth="yes"/>
      <point x="157" y="715"/>
      <point x="172" y="701"/>
      <point x="196" y="701" type="curve" smooth="yes"/>
    </contour>
    <contour>
      <point x="378" y="701"/>
      <point x="392" y="715"/>
      <point x="392" y="738" type="curve" smooth="yes"/>
      <point x="392" y="762"/>
      <point x="378" y="775"/>
      <point x="354" y="775" type="curve" smooth="yes"/>
      <point x="329" y="775"/>
      <point x="314" y="762"/>
      <point x="314" y="738" type="curve" smooth="yes"/>
      <point x="314" y="715"/>
      <point x="329" y="701"/>
      <point x="354" y="701" type="curve" smooth="yes"/>
    </contour>
  </outline>
</glyph>
<glyph name="Ocircumflex" format="1">
  <advance width="610"/>
  <unicode hex="00D4"/>
  <note>
	Ocircumflex
  </note>
  <outline>
    <contour>
      <point x="489" y="-9"/>
      <point x="553" y="111"/>
      <point x="553" y="317" type="curve" smooth="yes"/>
      <point x="553" y="518"/>
      <point x="480" y="624"/>
      <point x="314" y="624" type="curve" smooth="yes"/>
      <point x="121" y="624"/>
      <point x="57" y="504"/>
      <point x="57" y="297" type="curve" smooth="yes"/>
      <point x="57" y="96"/>
      <point x="134" y="-9"/>
      <point x="296" y="-9" type="curve" smooth="yes"/>
    </contour>
    <contour>
      <point x="167" y="50"/>
      <point x="120" y="134"/>
      <point x="120" y="311" type="curve" smooth="yes"/>
      <point x="120" y="406"/>
      <point x="140" y="484"/>
      <point x="172" y="541" type="curve"/>
      <point x="201" y="556"/>
      <point x="253" y="565"/>
      <point x="300" y="565" type="curve" smooth="yes"/>
      <point x="443" y="565"/>
      <point x="490" y="480"/>
      <point x="490" y="303" type="curve" smooth="yes"/>
      <point x="490" y="208"/>
      <point x="466" y="129"/>
      <point x="435" y="73" type="curve"/>
      <point x="406" y="59"/>
      <point x="357" y="50"/>
      <point x="310" y="50" type="curve" smooth="yes"/>
    </contour>
    <contour>
      <point x="309" y="786" type="line"/>
      <point x="315" y="786" type="line"/>
      <point x="402" y="697" type="line"/>
      <point x="443" y="706" type="line"/>
      <point x="342" y="838" type="line"/>
      <point x="282" y="838" type="line"/>
      <point x="181" y="706" type="line"/>
      <point x="220" y="697" type="line"/>
    </contour>
  </outline>
</glyph>
<glyph name="Odieresis" format="1">
  <advance width="610"/>
  <unicode hex="00D6"/>
  <note>
	Odieresis
  </note>
  <outline>
    <contour>
      <point x="489" y="-9"/>
      <point x="553" y="111"/>
      <point x="553" y="317" type="curve" smooth="yes"/>
      <point x="553" y="518"/>
      <point x="480" y="624"/>
      <point x="314" y="624" type="curve" smooth="yes"/>
      <point x="121" y="624"/>
      <point x="57" y="504"/>
      <point x="57" y="297" type="curve" smooth="yes"/>
      <point x="57" y="96"/>
      <point x="134" y="-9"/>
      <point x="296" y="-9" type="curve" smooth="yes"/>
    </contour>
    <contour>
      <point x="167" y="50"/>
      <point x="120" y="134"/>
      <point x="120" y="311" type="curve" smooth="yes"/>
      <point x="120" y="406"/>
      <point x="140" y="484"/>
      <point x="172" y="541" type="curve"/>
      <point x="201" y="556"/>
      <point x="253" y="565"/>
      <point x="300" y="565" type="curve" smooth="yes"/>
      <point x="443" y="565"/>
      <point x="490" y="480"/>
      <point x="490" y="303" type="curve" smooth="yes"/>
      <point x="490" y="208"/>
      <point x="466" y="129"/>
      <point x="435" y="73" type="curve"/>
      <point x="406" y="59"/>
      <point x="357" y="50"/>
      <point x="310" y="50" type="curve" smooth="yes"/>
    </contour>
    <contour>
      <point x="254" y="701"/>
      <point x="268" y="715"/>
      <point x="268" y="738" type="curve" smooth="yes"/>
      <point x="268" y="762"/>
      <point x="254" y="775"/>
      <point x="230" y="775" type="curve" smooth="yes"/>
      <point x="206" y="775"/>
      <point x="191" y="762"/>
      <point x="191" y="738" type="curve" smooth="yes"/>
      <point x="191" y="715"/>
      <point x="206" y="701"/>
      <point x="230" y="701" type="curve" smooth="yes"/>
    </contour>
    <contour>
      <point x="412" y="701"/>
      <point x="426" y="715"/>
      <point x="426" y="738" type="curve" smooth="yes"/>
      <point x="426" y="762"/>
      <point x="412" y="775"/>
      <point x="388" y="775" type="curve" smooth="yes"/>
      <point x="363" y="775"/>
      <point x="348" y="762"/>
      <point x="348" y="738" type="curve" smooth="yes"/>
      <point x="348" y="715"/>
      <point x="363" y="701"/>
      <point x="388" y="701" type="curve" smooth="yes"/>
    </contour>
  </outline>
</glyph>
<glyph name="multiply" format="1">
  <advance width="474"/>
  <unicode hex="00D7"/>
  <note>
	multiply
  </note>
  <outline>
    <contour>
      <point x="237" y="277" type="line"/>
      <point x="380" y="136" type="line"/>
      <point x="417" y="171" type="line"/>
      <point x="274" y="308" type="line"/>
      <point x="418" y="445" type="line"/>
      <point x="380" y="480" type="line"/>
      <point x="237" y="339" type="line"/>
      <point x="94" y="480" type="line"/>
      <point x="56" y="445" type="line"/>
      <point x="200" y="308" type="line"/>
      <point x="56" y="171" type="line"/>
      <point x="94" y="136" type="line"/>
    </contour>
  </outline>
</glyph>
<glyph name="germandbls" format="1">
  <advance width="541"/>
  <unicode hex="00DF"/>
  <note>
	germandbls
  </note>
  <outline>
    <contour>
      <point x="413" y="-9"/>
      <point x="469" y="60"/>
      <point x="469" y="176" type="curve" smooth="yes"/>
      <point x="469" y="264"/>
      <point x="429" y="327"/>
      <point x="323" y="352" type="curve"/>
      <point x="323" y="358" type="line"/>
      <point x="398" y="383"/>
      <point x="432" y="425"/>
      <point x="432" y="502" type="curve" smooth="yes"/>
      <point x="432" y="600"/>
      <point x="366" y="662"/>
      <point x="259" y="662" type="curve" smooth="yes"/>
      <point x="151" y="662"/>
      <point x="78" y="617"/>
      <point x="78" y="514" type="curve" smooth="yes"/>
      <point x="78" y="0" type="line"/>
      <point x="140" y="0" type="line"/>
      <point x="140" y="592" type="line"/>
      <point x="175" y="601"/>
      <point x="211" y="605"/>
      <point x="250" y="605" type="curve" smooth="yes"/>
      <point x="329" y="605"/>
      <point x="370" y="570"/>
      <point x="370" y="498" type="curve" smooth="yes"/>
      <point x="370" y="427"/>
      <point x="333" y="379"/>
      <point x="242" y="379" type="curve"/>
      <point x="242" y="322" type="line"/>
      <point x="359" y="318"/>
      <point x="408" y="264"/>
      <point x="408" y="175" type="curve" smooth="yes"/>
      <point x="408" y="122"/>
      <point x="398" y="87"/>
      <point x="383" y="57" type="curve"/>
      <point x="357" y="47"/>
      <point x="326" y="47"/>
      <point x="296" y="47" type="curve" smooth="yes"/>
      <point x="271" y="47"/>
      <point x="242" y="51"/>
      <point x="221" y="57" type="curve"/>
      <point x="211" y="3" type="line"/>
      <point x="235" y="-4"/>
      <point x="264" y="-9"/>
      <point x="294" y="-9" type="curve" smooth="yes"/>
    </contour>
  </outline>
</glyph>
<glyph name="aring" format="1">
  <advance width="465"/>
  <unicode hex="00E5"/>
  <note>
	aring
  </note>
  <outline>
    <contour>
      <point x="242" y="-9"/>
      <point x="294" y="20"/>
      <point x="328" y="66" type="curve"/>
      <point x="336" y="66" type="line"/>
      <point x="340" y="0" type="line"/>
      <point x="392" y="0" type="line"/>
      <point x="392" y="331" type="line" smooth="yes"/>
      <point x="392" y="424"/>
      <point x="339" y="476"/>
      <point x="247" y="476" type="curve" smooth="yes"/>
      <point x="187" y="476"/>
      <point x="118" y="452"/>
      <point x="80" y="430" type="curve"/>
      <point x="80" y="411" type="line" smooth="yes"/>
      <point x="80" y="391"/>
      <point x="85" y="367"/>
      <point x="91" y="350" type="curve"/>
      <point x="136" y="350" type="line"/>
      <point x="146" y="422" type="line"/>
      <point x="167" y="425"/>
      <point x="197" y="427"/>
      <point x="223" y="427" type="curve" smooth="yes"/>
      <point x="301" y="427"/>
      <point x="331" y="403"/>
      <point x="331" y="322" type="curve" smooth="yes"/>
      <point x="331" y="254" type="line"/>
      <point x="309" y="256"/>
      <point x="281" y="258"/>
      <point x="254" y="258" type="curve" smooth="yes"/>
      <point x="126" y="258"/>
      <point x="45" y="211"/>
      <point x="45" y="108" type="curve" smooth="yes"/>
      <point x="45" y="38"/>
      <point x="90" y="-9"/>
      <point x="179" y="-9" type="curve" smooth="yes"/>
    </contour>
    <contour>
      <point x="139" y="40"/>
      <point x="108" y="57"/>
      <point x="108" y="117" type="curve" smooth="yes"/>
      <point x="108" y="150"/>
      <point x="115" y="175"/>
      <point x="131" y="205" type="curve"/>
      <point x="158" y="213"/>
      <point x="198" y="216"/>
      <point x="234" y="216" type="curve" smooth="yes"/>
      <point x="271" y="216"/>
      <point x="306" y="213"/>
      <point x="334" y="208" type="curve"/>
      <point x="334" y="119" type="line"/>
      <point x="301" y="70"/>
      <point x="249" y="40"/>
      <point x="189" y="40" type="curve" smooth="yes"/>
    </contour>
    <contour>
      <point x="316" y="555"/>
      <point x="359" y="597"/>
      <point x="359" y="646" type="curve" smooth="yes"/>
      <point x="359" y="703"/>
      <point x="322" y="735"/>
      <point x="256" y="735" type="curve" smooth="yes"/>
      <point x="181" y="735"/>
      <point x="139" y="690"/>
      <point x="139" y="641" type="curve" smooth="yes"/>
      <point x="139" y="585"/>
      <point x="177" y="555"/>
      <point x="241" y="555" type="curve" smooth="yes"/>
    </contour>
    <contour>
      <point x="205" y="594"/>
      <point x="184" y="612"/>
      <point x="184" y="642" type="curve" smooth="yes"/>
      <point x="184" y="658"/>
      <point x="185" y="671"/>
      <point x="191" y="689" type="curve"/>
      <point x="210" y="695"/>
      <point x="229" y="696"/>
      <point x="254" y="696" type="curve" smooth="yes"/>
      <point x="293" y="696"/>
      <point x="314" y="676"/>
      <point x="314" y="644" type="curve" smooth="yes"/>
      <point x="314" y="629"/>
      <point x="311" y="616"/>
      <point x="307" y="601" type="curve"/>
      <point x="289" y="595"/>
      <point x="268" y="594"/>
      <point x="244" y="594" type="curve" smooth="yes"/>
    </contour>
  </outline>
</glyph>
<glyph name="ccedilla" format="1">
  <advance width="448"/>
  <unicode hex="00E7"/>
  <note>
	ccedilla
  </note>
  <outline>
    <contour>
      <point x="312" y="-216"/>
      <point x="347" y="-188"/>
      <point x="347" y="-130" type="curve" smooth="yes"/>
      <point x="347" y="-84"/>
      <point x="325" y="-56"/>
      <point x="272" y="-56" type="curve" smooth="yes"/>
      <point x="254" y="-56"/>
      <point x="239" y="-59"/>
      <point x="227" y="-64" type="curve"/>
      <point x="267" y="-9" type="line"/>
      <point x="334" y="-7"/>
      <point x="378" y="14"/>
      <point x="417" y="46" type="curve"/>
      <point x="388" y="88" type="line"/>
      <point x="353" y="61"/>
      <point x="312" y="46"/>
      <point x="261" y="46" type="curve" smooth="yes"/>
      <point x="154" y="46"/>
      <point x="112" y="108"/>
      <point x="112" y="217" type="curve" smooth="yes"/>
      <point x="112" y="292"/>
      <point x="126" y="360"/>
      <point x="146" y="404" type="curve"/>
      <point x="173" y="416"/>
      <point x="213" y="420"/>
      <point x="249" y="420" type="curve" smooth="yes"/>
      <point x="280" y="420"/>
      <point x="308" y="417"/>
      <point x="331" y="411" type="curve"/>
      <point x="338" y="334" type="line"/>
      <point x="379" y="334" type="line"/>
      <point x="386" y="353"/>
      <point x="391" y="378"/>
      <point x="391" y="408" type="curve" smooth="yes"/>
      <point x="391" y="437" type="line"/>
      <point x="358" y="459"/>
      <point x="310" y="476"/>
      <point x="253" y="476" type="curve" smooth="yes"/>
      <point x="112" y="476"/>
      <point x="53" y="368"/>
      <point x="53" y="216" type="curve" smooth="yes"/>
      <point x="53" y="95"/>
      <point x="97" y="8"/>
      <point x="220" y="-6" type="curve"/>
      <point x="169" y="-68" type="line"/>
      <point x="205" y="-104" type="line"/>
      <point x="218" y="-99"/>
      <point x="232" y="-97"/>
      <point x="249" y="-97" type="curve" smooth="yes"/>
      <point x="279" y="-97"/>
      <point x="295" y="-108"/>
      <point x="295" y="-134" type="curve" smooth="yes"/>
      <point x="295" y="-147"/>
      <point x="293" y="-157"/>
      <point x="289" y="-167" type="curve"/>
      <point x="274" y="-170"/>
      <point x="260" y="-172"/>
      <point x="239" y="-172" type="curve" smooth="yes"/>
      <point x="218" y="-172"/>
      <point x="191" y="-168"/>
      <point x="171" y="-160" type="curve"/>
      <point x="157" y="-200" type="line"/>
      <point x="187" y="-213"/>
      <point x="214" y="-216"/>
      <point x="241" y="-216" type="curve" smooth="yes"/>
    </contour>
  </outline>
</glyph>
<glyph name="igrave" format="1">
  <advance width="239"/>
  <unicode hex="00EC"/>
  <note>
	igrave
  </note>
  <outline>
    <contour>
      <point x="141" y="0" type="line"/>
      <point x="141" y="467" type="line"/>
      <point x="82" y="467" type="line"/>
      <point x="82" y="0" type="line"/>
    </contour>
    <contour>
      <point x="139" y="562" type="line"/>
      <point x="55" y="704" type="line"/>
      <point x="-25" y="696" type="line"/>
      <point x="93" y="554" type="line"/>
    </contour>
  </outline>
</glyph>
<glyph name="iacute" format="1">
  <advance width="239"/>
  <unicode hex="00ED"/>
  <note>
	iacute
  </note>
  <outline>
    <contour>
      <point x="141" y="0" type="line"/>
      <point x="141" y="467" type="line"/>
      <point x="82" y="467" type="line"/>
      <point x="82" y="0" type="line"/>
    </contour>
    <contour>
      <point x="249" y="696" type="line"/>
      <point x="168" y="704" type="line"/>
      <point x="85" y="562" type="line"/>
      <point x="130" y="554" type="line"/>
    </contour>
  </outline>
</glyph>
<glyph name="icircumflex" format="1">
  <advance width="239"/>
  <unicode hex="00EE"/>
  <note>
	icircumflex
  </note>
  <outline>
    <contour>
      <point x="117" y="639" type="line"/>
      <point x="122" y="639" type="line"/>
      <point x="210" y="551" type="line"/>
      <point x="250" y="559" type="line"/>
      <point x="149" y="691" type="line"/>
      <point x="90" y="691" type="line"/>
      <point x="-12" y="559" type="line"/>
      <point x="27" y="551" type="line"/>
    </contour>
    <contour>
      <point x="149" y="0" type="line"/>
      <point x="149" y="467" type="line"/>
      <point x="90" y="467" type="line"/>
      <point x="90" y="0" type="line"/>
    </contour>
  </outline>
</glyph>
<glyph name="eth" format="1">
  <advance width="561"/>
  <unicode hex="00F0"/>
  <note>
	eth
  </note>
  <outline>
    <contour>
      <point x="427" y="-11"/>
      <point x="465" y="108"/>
      <point x="465" y="248" type="curve" smooth="yes"/>
      <point x="465" y="344"/>
      <point x="449" y="421"/>
      <point x="397" y="493" type="curve"/>
      <point x="490" y="526" type="line"/>
      <point x="471" y="565" type="line"/>
      <point x="367" y="527" type="line"/>
      <point x="333" y="562"/>
      <point x="291" y="591"/>
      <point x="240" y="615" type="curve"/>
      <point x="210" y="574" type="line"/>
      <point x="249" y="557"/>
      <point x="284" y="535"/>
      <point x="314" y="507" type="curve"/>
      <point x="208" y="468" type="line"/>
      <point x="224" y="430" type="line"/>
      <point x="344" y="473" type="line"/>
      <point x="379" y="429"/>
      <point x="399" y="371"/>
      <point x="402" y="299" type="curve"/>
      <point x="396" y="299" type="line"/>
      <point x="365" y="331"/>
      <point x="320" y="354"/>
      <point x="263" y="354" type="curve" smooth="yes"/>
      <point x="159" y="354"/>
      <point x="81" y="291"/>
      <point x="81" y="177" type="curve" smooth="yes"/>
      <point x="81" y="56"/>
      <point x="154" y="-11"/>
      <point x="262" y="-11" type="curve" smooth="yes"/>
    </contour>
    <contour>
      <point x="188" y="44"/>
      <point x="142" y="84"/>
      <point x="142" y="179" type="curve" smooth="yes"/>
      <point x="142" y="260"/>
      <point x="185" y="299"/>
      <point x="272" y="299" type="curve" smooth="yes"/>
      <point x="324" y="299"/>
      <point x="365" y="278"/>
      <point x="402" y="245" type="curve"/>
      <point x="404" y="229"/>
      <point x="404" y="218"/>
      <point x="404" y="202" type="curve" smooth="yes"/>
      <point x="404" y="154"/>
      <point x="396" y="100"/>
      <point x="380" y="63" type="curve"/>
      <point x="347" y="49"/>
      <point x="315" y="44"/>
      <point x="274" y="44" type="curve" smooth="yes"/>
    </contour>
  </outline>
</glyph>
<glyph name="ograve" format="1">
  <advance width="507"/>
  <unicode hex="00F2"/>
  <note>
	ograve
  </note>
  <outline>
    <contour>
      <point x="402" y="-9"/>
      <point x="452" y="92"/>
      <point x="452" y="237" type="curve" smooth="yes"/>
      <point x="452" y="381"/>
      <point x="399" y="480"/>
      <point x="265" y="480" type="curve" smooth="yes"/>
      <point x="104" y="480"/>
      <point x="55" y="374"/>
      <point x="55" y="229" type="curve" smooth="yes"/>
      <point x="55" y="85"/>
      <point x="108" y="-9"/>
      <point x="242" y="-9" type="curve" smooth="yes"/>
    </contour>
    <contour>
      <point x="147" y="44"/>
      <point x="115" y="105"/>
      <point x="115" y="240" type="curve" smooth="yes"/>
      <point x="115" y="310"/>
      <point x="127" y="371"/>
      <point x="146" y="405" type="curve"/>
      <point x="172" y="419"/>
      <point x="209" y="426"/>
      <point x="248" y="426" type="curve" smooth="yes"/>
      <point x="360" y="426"/>
      <point x="392" y="361"/>
      <point x="392" y="225" type="curve" smooth="yes"/>
      <point x="392" y="154"/>
      <point x="380" y="99"/>
      <point x="361" y="65" type="curve"/>
      <point x="335" y="52"/>
      <point x="298" y="44"/>
      <point x="259" y="44" type="curve" smooth="yes"/>
    </contour>
    <contour>
      <point x="297" y="562" type="line"/>
      <point x="214" y="704" type="line"/>
      <point x="133" y="696" type="line"/>
      <point x="252" y="554" type="line"/>
    </contour>
  </outline>
</glyph>
<glyph name="otilde" format="1">
  <advance width="507"/>
  <unicode hex="00F5"/>
  <note>
	otilde
  </note>
  <outline>
    <contour>
      <point x="402" y="-9"/>
      <point x="452" y="92"/>
      <point x="452" y="237" type="curve" smooth="yes"/>
      <point x="452" y="381"/>
      <point x="399" y="480"/>
      <point x="265" y="480" type="curve" smooth="yes"/>
      <point x="104" y="480"/>
      <point x="55" y="374"/>
      <point x="55" y="229" type="curve" smooth="yes"/>
      <point x="55" y="85"/>
      <point x="108" y="-9"/>
      <point x="242" y="-9" type="curve" smooth="yes"/>
    </contour>
    <contour>
      <point x="147" y="44"/>
      <point x="115" y="105"/>
      <point x="115" y="240" type="curve" smooth="yes"/>
      <point x="115" y="310"/>
      <point x="127" y="371"/>
      <point x="146" y="405" type="curve"/>
      <point x="172" y="419"/>
      <point x="209" y="426"/>
      <point x="248" y="426" type="curve" smooth="yes"/>
      <point x="360" y="426"/>
      <point x="392" y="361"/>
      <point x="392" y="225" type="curve" smooth="yes"/>
      <point x="392" y="154"/>
      <point x="380" y="99"/>
      <point x="361" y="65" type="curve"/>
      <point x="335" y="52"/>
      <point x="298" y="44"/>
      <point x="259" y="44" type="curve" smooth="yes"/>
    </contour>
    <contour>
      <point x="161" y="583"/>
      <point x="172" y="603"/>
      <point x="201" y="603" type="curve" smooth="yes"/>
      <point x="236" y="603"/>
      <point x="265" y="555"/>
      <point x="313" y="555" type="curve" smooth="yes"/>
      <point x="362" y="555"/>
      <point x="387" y="587"/>
      <point x="391" y="644" type="curve"/>
      <point x="350" y="657" type="line"/>
      <point x="346" y="628"/>
      <point x="334" y="607"/>
      <point x="306" y="607" type="curve" smooth="yes"/>
      <point x="272" y="607"/>
      <point x="238" y="655"/>
      <point x="194" y="655" type="curve" smooth="yes"/>
      <point x="145" y="655"/>
      <point x="120" y="624"/>
      <point x="116" y="566" type="curve"/>
      <point x="157" y="553" type="line"/>
    </contour>
  </outline>
</glyph>
<glyph name="odieresis" format="1">
  <advance width="507"/>
  <unicode hex="00F6"/>
  <note>
	odieresis
  </note>
  <outline>
    <contour>
      <point x="402" y="-9"/>
      <point x="452" y="92"/>
      <point x="452" y="237" type="curve" smooth="yes"/>
      <point x="452" y="381"/>
      <point x="399" y="480"/>
      <point x="265" y="480" type="curve" smooth="yes"/>
      <point x="104" y="480"/>
      <point x="55" y="374"/>
      <point x="55" y="229" type="curve" smooth="yes"/>
      <point x="55" y="85"/>
      <point x="108" y="-9"/>
      <point x="242" y="-9" type="curve" smooth="yes"/>
    </contour>
    <contour>
      <point x="147" y="44"/>
      <point x="115" y="105"/>
      <point x="115" y="240" type="curve" smooth="yes"/>
      <point x="115" y="310"/>
      <point x="127" y="371"/>
      <point x="146" y="405" type="curve"/>
      <point x="172" y="419"/>
      <point x="209" y="426"/>
      <point x="248" y="426" type="curve" smooth="yes"/>
      <point x="360" y="426"/>
      <point x="392" y="361"/>
      <point x="392" y="225" type="curve" smooth="yes"/>
      <point x="392" y="154"/>
      <point x="380" y="99"/>
      <point x="361" y="65" type="curve"/>
      <point x="335" y="52"/>
      <point x="298" y="44"/>
      <point x="259" y="44" type="curve" smooth="yes"/>
    </contour>
    <contour>
      <point x="198" y="555"/>
      <point x="212" y="568"/>
      <point x="212" y="591" type="curve" smooth="yes"/>
      <point x="212" y="615"/>
      <point x="198" y="628"/>
      <point x="174" y="628" type="curve" smooth="yes"/>
      <point x="150" y="628"/>
      <point x="135" y="615"/>
      <point x="135" y="591" type="curve" smooth="yes"/>
      <point x="135" y="568"/>
      <point x="150" y="555"/>
      <point x="174" y="555" type="curve" smooth="yes"/>
    </contour>
    <contour>
      <point x="356" y="555"/>
      <point x="370" y="568"/>
      <point x="370" y="591" type="curve" smooth="yes"/>
      <point x="370" y="615"/>
      <point x="356" y="628"/>
      <point x="332" y="628" type="curve" smooth="yes"/>
      <point x="307" y="628"/>
      <point x="292" y="615"/>
      <point x="292" y="591" type="curve" smooth="yes"/>
      <point x="292" y="568"/>
      <point x="307" y="555"/>
      <point x="332" y="555" type="curve" smooth="yes"/>
    </contour>
  </outline>
</glyph>
<glyph name="divide" format="1">
  <advance width="532"/>
  <unicode hex="00F7"/>
  <note>
	divide
  </note>
  <outline>
    <contour>
      <point x="475" y="281" type="line"/>
      <point x="475" y="332" type="line"/>
      <point x="56" y="332" type="line"/>
      <point x="56" y="281" type="line"/>
    </contour>
    <contour>
      <point x="293" y="101"/>
      <point x="313" y="120"/>
      <point x="313" y="148" type="curve" smooth="yes"/>
      <point x="313" y="176"/>
      <point x="293" y="195"/>
      <point x="266" y="195" type="curve" smooth="yes"/>
      <point x="238" y="195"/>
      <point x="218" y="176"/>
      <point x="218" y="148" type="curve" smooth="yes"/>
      <point x="218" y="120"/>
      <point x="238" y="101"/>
      <point x="266" y="101" type="curve" smooth="yes"/>
    </contour>
    <contour>
      <point x="293" y="418"/>
      <point x="313" y="437"/>
      <point x="313" y="465" type="curve" smooth="yes"/>
      <point x="313" y="493"/>
      <point x="293" y="512"/>
      <point x="266" y="512" type="curve" smooth="yes"/>
      <point x="238" y="512"/>
      <point x="218" y="493"/>
      <point x="218" y="465" type="curve" smooth="yes"/>
      <point x="218" y="437"/>
      <point x="238" y="418"/>
      <point x="266" y="418" type="curve" smooth="yes"/>
    </contour>
  </outline>
</glyph>
<glyph name="ucircumflex" format="1">
  <advance width="511"/>
  <unicode hex="00FB"/>
  <note>
	ucircumflex
  </note>
  <outline>
    <contour>
      <point x="271" y="-9"/>
      <point x="321" y="23"/>
      <point x="367" y="72" type="curve"/>
      <point x="375" y="72" type="line"/>
      <point x="379" y="0" type="line"/>
      <point x="430" y="0" type="line"/>
      <point x="430" y="468" type="line"/>
      <point x="370" y="468" type="line"/>
      <point x="370" y="117" type="line"/>
      <point x="333" y="75"/>
      <point x="278" y="45"/>
      <point x="208" y="45" type="curve" smooth="yes"/>
      <point x="183" y="45"/>
      <point x="160" y="48"/>
      <point x="134" y="56" type="curve"/>
      <point x="134" y="468" type="line"/>
      <point x="74" y="468" type="line"/>
      <point x="74" y="100" type="line" smooth="yes"/>
      <point x="74" y="21"/>
      <point x="116" y="-9"/>
      <point x="198" y="-9" type="curve" smooth="yes"/>
    </contour>
    <contour>
      <point x="249" y="640" type="line"/>
      <point x="255" y="640" type="line"/>
      <point x="342" y="551" type="line"/>
      <point x="383" y="560" type="line"/>
      <point x="282" y="692" type="line"/>
      <point x="222" y="692" type="line"/>
      <point x="121" y="560" type="line"/>
      <point x="160" y="551" type="line"/>
    </contour>
  </outline>
</glyph>
<glyph name="ydieresis" format="1">
  <advance width="488"/>
  <unicode hex="00FF"/>
  <note>
	ydieresis
  </note>
  <outline>
    <contour>
      <point x="190" y="-189"/>
      <point x="240" y="-165"/>
      <point x="262" y="-114" type="curve" smooth="yes"/>
      <point x="326" y="39"/>
      <point x="393" y="249"/>
      <point x="446" y="466" type="curve"/>
      <point x="385" y="472" type="line"/>
      <point x="354" y="339"/>
      <point x="314" y="196"/>
      <point x="274" y="75" type="curve"/>
      <point x="224" y="75" type="line"/>
      <point x="180" y="188"/>
      <point x="135" y="323"/>
      <point x="96" y="472" type="curve"/>
      <point x="36" y="466" type="line"/>
      <point x="78" y="310"/>
      <point x="122" y="186"/>
      <point x="189" y="22" type="curve"/>
      <point x="256" y="22" type="line"/>
      <point x="236" y="-34"/>
      <point x="215" y="-91"/>
      <point x="197" y="-134" type="curve"/>
      <point x="183" y="-136"/>
      <point x="170" y="-138"/>
      <point x="153" y="-138" type="curve" smooth="yes"/>
      <point x="137" y="-138"/>
      <point x="123" y="-137"/>
      <point x="111" y="-135" type="curve"/>
      <point x="111" y="-88" type="line"/>
      <point x="67" y="-88" type="line"/>
      <point x="60" y="-109"/>
      <point x="58" y="-126"/>
      <point x="58" y="-147" type="curve" smooth="yes"/>
      <point x="58" y="-172" type="line"/>
      <point x="78" y="-182"/>
      <point x="106" y="-189"/>
      <point x="140" y="-189" type="curve" smooth="yes"/>
    </contour>
    <contour>
      <point x="191" y="555"/>
      <point x="205" y="568"/>
      <point x="205" y="591" type="curve" smooth="yes"/>
      <point x="205" y="615"/>
      <point x="191" y="628"/>
      <point x="167" y="628" type="curve" smooth="yes"/>
      <point x="143" y="628"/>
      <point x="128" y="615"/>
      <point x="128" y="591" type="curve" smooth="yes"/>
      <point x="128" y="568"/>
      <point x="143" y="555"/>
      <point x="167" y="555" type="curve" smooth="yes"/>
    </contour>
    <contour>
      <point x="349" y="555"/>
      <point x="363" y="568"/>
      <point x="363" y="591" type="curve" smooth="yes"/>
      <point x="363" y="615"/>
      <point x="349" y="628"/>
      <point x="325" y="628" type="curve" smooth="yes"/>
      <point x="300" y="628"/>
      <point x="285" y="615"/>
      <point x="285" y="591" type="curve" smooth="yes"/>
      <point x="285" y="568"/>
      <point x="300" y="555"/>
      <point x="325" y="555" type="curve" smooth="yes"/>
    </contour>
  </outline>
</glyph>
<glyph name="Amacron" format="1">
  <advance width="591"/>
  <unicode hex="0100"/>
  <note>
	Amacron
  </note>
  <outline>
    <contour>
      <point x="419" y="706" type="line"/>
      <point x="419" y="759" type="line"/>
      <point x="171" y="759" type="line"/>
      <point x="171" y="706" type="line"/>
    </contour>
    <component base="A"/>
  </outline>
</glyph>
<glyph name="ccircumflex" format="1">
  <advance width="448"/>
  <unicode hex="0109"/>
  <note>
	ccircumflex
  </note>
  <outline>
    <contour>
      <point x="330" y="-9"/>
      <point x="376" y="12"/>
      <point x="417" y="46" type="curve"/>
      <point x="388" y="88" type="line"/>
      <point x="353" y="61"/>
      <point x="312" y="46"/>
      <point x="261" y="46" type="curve" smooth="yes"/>
      <point x="154" y="46"/>
      <point x="112" y="108"/>
      <point x="112" y="217" type="curve" smooth="yes"/>
      <point x="112" y="292"/>
      <point x="126" y="360"/>
      <point x="146" y="404" type="curve"/>
      <point x="173" y="416"/>
      <point x="213" y="420"/>
      <point x="249" y="420" type="curve" smooth="yes"/>
      <point x="280" y="420"/>
      <point x="308" y="417"/>
      <point x="331" y="411" type="curve"/>
      <point x="338" y="334" type="line"/>
      <point x="379" y="334" type="line"/>
      <point x="386" y="353"/>
      <point x="391" y="378"/>
      <point x="391" y="408" type="curve" smooth="yes"/>
      <point x="391" y="437" type="line"/>
      <point x="358" y="459"/>
      <point x="310" y="476"/>
      <point x="253" y="476" type="curve" smooth="yes"/>
      <point x="112" y="476"/>
      <point x="53" y="368"/>
      <point x="53" y="216" type="curve" smooth="yes"/>
      <point x="53" y="83"/>
      <point x="106" y="-9"/>
      <point x="259" y="-9" type="curve" smooth="yes"/>
    </contour>
    <contour>
      <point x="244" y="639" type="line"/>
      <point x="250" y="639" type="line"/>
      <point x="337" y="551" type="line"/>
      <point x="378" y="559" type="line"/>
      <point x="277" y="691" type="line"/>
      <point x="217" y="691" type="line"/>
      <point x="116" y="559" type="line"/>
      <point x="155" y="551" type="line"/>
    </contour>
  </outline>
</glyph>
<glyph name="Ccaron" format="1">
  <advance width="551"/>
  <unicode hex="010C"/>
  <note>
	Ccaron
  </note>
  <outline>
    <contour>
      <point x="394" y="-9"/>
      <point x="462" y="10"/>
      <point x="505" y="44" type="curve"/>
      <point x="476" y="91" type="line"/>
      <point x="437" y="65"/>
      <point x="378" y="50"/>
      <point x="315" y="50" type="curve" smooth="yes"/>
      <point x="175" y="50"/>
      <point x="116" y="127"/>
      <point x="116" y="295" type="curve" smooth="yes"/>
      <point x="116" y="395"/>
      <point x="139" y="482"/>
      <point x="183" y="548" type="curve"/>
      <point x="227" y="560"/>
      <point x="266" y="565"/>
      <point x="307" y="565" type="curve" smooth="yes"/>
      <point x="351" y="565"/>
      <point x="390" y="561"/>
      <point x="419" y="554" type="curve"/>
      <point x="429" y="472" type="line"/>
      <point x="470" y="472" type="line"/>
      <point x="477" y="489"/>
      <point x="481" y="516"/>
      <point x="481" y="539" type="curve" smooth="yes"/>
      <point x="481" y="585" type="line"/>
      <point x="447" y="606"/>
      <point x="379" y="624"/>
      <point x="308" y="624" type="curve" smooth="yes"/>
      <point x="130" y="624"/>
      <point x="53" y="481"/>
      <point x="53" y="291" type="curve" smooth="yes"/>
      <point x="53" y="98"/>
      <point x="135" y="-9"/>
      <point x="313" y="-9" type="curve" smooth="yes"/>
    </contour>
    <contour>
      <point x="333" y="706" type="line"/>
      <point x="434" y="839" type="line"/>
      <point x="393" y="847" type="line"/>
      <point x="306" y="759" type="line"/>
      <point x="300" y="759" type="line"/>
      <point x="211" y="847" type="line"/>
      <point x="172" y="839" type="line"/>
      <point x="273" y="706" type="line"/>
    </contour>
  </outline>
</glyph>
<glyph name="dcaron" format="1">
  <advance width="592"/>
  <unicode hex="010F"/>
  <note>
	dcaron
  </note>
  <outline>
    <contour>
      <point x="301" y="-9"/>
      <point x="347" y="27"/>
      <point x="376" y="66" type="curve"/>
      <point x="384" y="66" type="line"/>
      <point x="388" y="0" type="line"/>
      <point x="439" y="0" type="line"/>
      <point x="439" y="669" type="line"/>
      <point x="379" y="669" type="line"/>
      <point x="379" y="488" type="line"/>
      <point x="383" y="412" type="line"/>
      <point x="376" y="412" type="line"/>
      <point x="338" y="450"/>
      <point x="290" y="476"/>
      <point x="229" y="476" type="curve" smooth="yes"/>
      <point x="99" y="476"/>
      <point x="55" y="356"/>
      <point x="55" y="235" type="curve" smooth="yes"/>
      <point x="55" y="83"/>
      <point x="103" y="-9"/>
      <point x="233" y="-9" type="curve" smooth="yes"/>
    </contour>
    <contour>
      <point x="147" y="44"/>
      <point x="118" y="109"/>
      <point x="118" y="232" type="curve" smooth="yes"/>
      <point x="118" y="354"/>
      <point x="155" y="423"/>
      <point x="247" y="423" type="curve" smooth="yes"/>
      <point x="297" y="423"/>
      <point x="336" y="405"/>
      <point x="379" y="362" type="curve"/>
      <point x="379" y="126" type="line"/>
      <point x="358" y="86"/>
      <point x="315" y="44"/>
      <point x="248" y="44" type="curve" smooth="yes"/>
    </contour>
    <contour>
      <point x="586" y="518"/>
      <point x="604" y="562"/>
      <point x="604" y="605" type="curve" smooth="yes"/>
      <point x="604" y="649"/>
      <point x="584" y="671"/>
      <point x="543" y="671" type="curve" smooth="yes"/>
      <point x="528" y="671"/>
      <point x="513" y="669"/>
      <point x="500" y="664" type="curve"/>
      <point x="500" y="621" type="line"/>
      <point x="554" y="621" type="line"/>
      <point x="554" y="570"/>
      <point x="541" y="531"/>
      <point x="519" y="491" type="curve"/>
      <point x="557" y="482" type="line"/>
    </contour>
  </outline>
</glyph>
<glyph name="Dcroat" format="1">
  <advance width="618"/>
  <unicode hex="0110"/>
  <note>
	Dcroat
  </note>
  <outline>
    <contour>
      <point x="284" y="0" type="line" smooth="yes"/>
      <point x="517" y="0"/>
      <point x="568" y="136"/>
      <point x="568" y="316" type="curve" smooth="yes"/>
      <point x="568" y="511"/>
      <point x="495" y="624"/>
      <point x="294" y="624" type="curve" smooth="yes"/>
      <point x="235" y="624"/>
      <point x="178" y="617"/>
      <point x="126" y="605" type="curve"/>
      <point x="126" y="334" type="line"/>
      <point x="45" y="334" type="line"/>
      <point x="45" y="278" type="line"/>
      <point x="126" y="278" type="line"/>
      <point x="126" y="0" type="line"/>
    </contour>
    <contour>
      <point x="189" y="278" type="line"/>
      <point x="286" y="278" type="line"/>
      <point x="286" y="334" type="line"/>
      <point x="189" y="334" type="line"/>
      <point x="189" y="558" type="line"/>
      <point x="226" y="563"/>
      <point x="255" y="566"/>
      <point x="290" y="566" type="curve" smooth="yes"/>
      <point x="452" y="566"/>
      <point x="505" y="483"/>
      <point x="505" y="310" type="curve" smooth="yes"/>
      <point x="505" y="211"/>
      <point x="485" y="128"/>
      <point x="449" y="78" type="curve"/>
      <point x="401" y="64"/>
      <point x="351" y="58"/>
      <point x="283" y="58" type="curve" smooth="yes"/>
      <point x="189" y="58" type="line"/>
    </contour>
  </outline>
</glyph>
<glyph name="Edotaccent" format="1">
  <advance width="528"/>
  <unicode hex="0116"/>
  <note>
	Edotaccent
  </note>
  <outline>
    <contour>
      <point x="358" y="-9"/>
      <point x="414" y="-3"/>
      <point x="463" y="10" type="curve"/>
      <point x="449" y="65" type="line"/>
      <point x="401" y="54"/>
      <point x="345" y="49"/>
      <point x="289" y="49" type="curve" smooth="yes"/>
      <point x="233" y="49"/>
      <point x="191" y="52"/>
      <point x="143" y="61" type="curve"/>
      <point x="143" y="280" type="line"/>
      <point x="423" y="280" type="line"/>
      <point x="423" y="336" type="line"/>
      <point x="143" y="336" type="line"/>
      <point x="143" y="556" type="line"/>
      <point x="452" y="556" type="line"/>
      <point x="452" y="614" type="line"/>
      <point x="81" y="614" type="line"/>
      <point x="81" y="74" type="line" smooth="yes"/>
      <point x="81" y="9"/>
      <point x="172" y="-9"/>
      <point x="286" y="-9" type="curve" smooth="yes"/>
    </contour>
    <contour>
      <point x="308" y="701"/>
      <point x="326" y="719"/>
      <point x="326" y="748" type="curve" smooth="yes"/>
      <point x="326" y="780"/>
      <point x="308" y="797"/>
      <point x="276" y="797" type="curve" smooth="yes"/>
      <point x="245" y="797"/>
      <point x="226" y="780"/>
      <point x="226" y="748" type="curve" smooth="yes"/>
      <point x="226" y="719"/>
      <point x="245" y="701"/>
      <point x="276" y="701" type="curve" smooth="yes"/>
    </contour>
  </outline>
</glyph>
<glyph name="eogonek" format="1">
  <advance width="476"/>
  <unicode hex="0119"/>
  <note>
	eogonek
  </note>
  <outline>
    <contour>
      <point x="410" y="-133"/>
      <point x="428" y="-129"/>
      <point x="444" y="-122" type="curve"/>
      <point x="434" y="-81" type="line"/>
      <point x="420" y="-84"/>
      <point x="407" y="-86"/>
      <point x="393" y="-86" type="curve" smooth="yes"/>
      <point x="379" y="-86"/>
      <point x="366" y="-85"/>
      <point x="354" y="-82" type="curve"/>
      <point x="350" y="-73"/>
      <point x="348" y="-63"/>
      <point x="348" y="-52" type="curve" smooth="yes"/>
      <point x="348" y="-23"/>
      <point x="359" y="-2"/>
      <point x="390" y="20" type="curve"/>
      <point x="400" y="25"/>
      <point x="409" y="31"/>
      <point x="419" y="36" type="curve"/>
      <point x="399" y="83" type="line"/>
      <point x="359" y="59"/>
      <point x="322" y="44"/>
      <point x="260" y="44" type="curve" smooth="yes"/>
      <point x="161" y="44"/>
      <point x="116" y="101"/>
      <point x="114" y="210" type="curve"/>
      <point x="374" y="208" type="line"/>
      <point x="425" y="259" type="line"/>
      <point x="437" y="392"/>
      <point x="377" y="476"/>
      <point x="257" y="476" type="curve" smooth="yes"/>
      <point x="123" y="476"/>
      <point x="55" y="381"/>
      <point x="55" y="231" type="curve" smooth="yes"/>
      <point x="55" y="82"/>
      <point x="113" y="-9"/>
      <point x="257" y="-9" type="curve" smooth="yes"/>
      <point x="276" y="-9"/>
      <point x="293" y="-7"/>
      <point x="308" y="-5" type="curve"/>
      <point x="298" y="-19"/>
      <point x="293" y="-35"/>
      <point x="293" y="-55" type="curve" smooth="yes"/>
      <point x="293" y="-104"/>
      <point x="327" y="-133"/>
      <point x="384" y="-133" type="curve" smooth="yes"/>
    </contour>
    <contour>
      <point x="118" y="363"/>
      <point x="149" y="423"/>
      <point x="253" y="423" type="curve" smooth="yes"/>
      <point x="333" y="423"/>
      <point x="371" y="377"/>
      <point x="371" y="307" type="curve" smooth="yes"/>
      <point x="371" y="293"/>
      <point x="369" y="275"/>
      <point x="365" y="259" type="curve"/>
      <point x="113" y="255" type="line"/>
    </contour>
  </outline>
</glyph>
<glyph name="Ecaron" format="1">
  <advance width="528"/>
  <unicode hex="011A"/>
  <note>
	Ecaron
  </note>
  <outline>
    <contour>
      <point x="358" y="-9"/>
      <point x="414" y="-3"/>
      <point x="463" y="10" type="curve"/>
      <point x="449" y="65" type="line"/>
      <point x="401" y="54"/>
      <point x="345" y="49"/>
      <point x="289" y="49" type="curve" smooth="yes"/>
      <point x="233" y="49"/>
      <point x="191" y="52"/>
      <point x="143" y="61" type="curve"/>
      <point x="143" y="280" type="line"/>
      <point x="423" y="280" type="line"/>
      <point x="423" y="336" type="line"/>
      <point x="143" y="336" type="line"/>
      <point x="143" y="556" type="line"/>
      <point x="452" y="556" type="line"/>
      <point x="452" y="614" type="line"/>
      <point x="81" y="614" type="line"/>
      <point x="81" y="74" type="line" smooth="yes"/>
      <point x="81" y="9"/>
      <point x="172" y="-9"/>
      <point x="286" y="-9" type="curve" smooth="yes"/>
    </contour>
    <contour>
      <point x="303" y="706" type="line"/>
      <point x="404" y="839" type="line"/>
      <point x="363" y="847" type="line"/>
      <point x="276" y="759" type="line"/>
      <point x="270" y="759" type="line"/>
      <point x="181" y="847" type="line"/>
      <point x="142" y="839" type="line"/>
      <point x="243" y="706" type="line"/>
    </contour>
  </outline>
</glyph>
<glyph name="gcircumflex" format="1">
  <advance width="504"/>
  <unicode hex="011D"/>
  <note>
	gcircumflex
  </note>
  <outline>
    <contour>
      <point x="353" y="-192"/>
      <point x="428" y="-152"/>
      <point x="428" y="-56" type="curve" smooth="yes"/>
      <point x="428" y="472" type="line"/>
      <point x="377" y="472" type="line"/>
      <point x="372" y="396" type="line"/>
      <point x="366" y="396" type="line"/>
      <point x="339" y="442"/>
      <point x="298" y="476"/>
      <point x="232" y="476" type="curve" smooth="yes"/>
      <point x="98" y="476"/>
      <point x="56" y="373"/>
      <point x="56" y="226" type="curve" smooth="yes"/>
      <point x="56" y="106"/>
      <point x="99" y="4"/>
      <point x="221" y="4" type="curve" smooth="yes"/>
      <point x="283" y="4"/>
      <point x="332" y="39"/>
      <point x="366" y="78" type="curve"/>
      <point x="373" y="78" type="line"/>
      <point x="370" y="15" type="line"/>
      <point x="370" y="-112" type="line"/>
      <point x="338" y="-130"/>
      <point x="301" y="-138"/>
      <point x="241" y="-138" type="curve" smooth="yes"/>
      <point x="194" y="-138"/>
      <point x="142" y="-126"/>
      <point x="104" y="-108" type="curve"/>
      <point x="86" y="-155" type="line"/>
      <point x="123" y="-176"/>
      <point x="181" y="-192"/>
      <point x="246" y="-192" type="curve" smooth="yes"/>
    </contour>
    <contour>
      <point x="154" y="56"/>
      <point x="117" y="114"/>
      <point x="117" y="232" type="curve" smooth="yes"/>
      <point x="117" y="354"/>
      <point x="144" y="424"/>
      <point x="237" y="424" type="curve" smooth="yes"/>
      <point x="297" y="424"/>
      <point x="338" y="389"/>
      <point x="368" y="349" type="curve"/>
      <point x="368" y="129" type="line"/>
      <point x="334" y="85"/>
      <point x="290" y="56"/>
      <point x="234" y="56" type="curve" smooth="yes"/>
    </contour>
    <contour>
      <point x="256" y="639" type="line"/>
      <point x="262" y="639" type="line"/>
      <point x="349" y="551" type="line"/>
      <point x="390" y="559" type="line"/>
      <point x="289" y="691" type="line"/>
      <point x="229" y="691" type="line"/>
      <point x="128" y="559" type="line"/>
      <point x="167" y="551" type="line"/>
    </contour>
  </outline>
</glyph>
<glyph name="Hcircumflex" format="1">
  <advance width="591"/>
  <unicode hex="0124"/>
  <note>
	Hcircumflex
  </note>
  <outline>
    <contour>
      <point x="144" y="0" type="line"/>
      <point x="144" y="268" type="line"/>
      <point x="446" y="268" type="line"/>
      <point x="446" y="0" type="line"/>
      <point x="509" y="0" type="line"/>
      <point x="509" y="614" type="line"/>
      <point x="446" y="614" type="line"/>
      <point x="446" y="327" type="line"/>
      <point x="144" y="327" type="line"/>
      <point x="144" y="614" type="line"/>
      <point x="81" y="614" type="line"/>
      <point x="81" y="0" type="line"/>
    </contour>
    <contour>
      <point x="293" y="786" type="line"/>
      <point x="299" y="786" type="line"/>
      <point x="386" y="697" type="line"/>
      <point x="427" y="706" type="line"/>
      <point x="326" y="838" type="line"/>
      <point x="266" y="838" type="line"/>
      <point x="165" y="706" type="line"/>
      <point x="204" y="697" type="line"/>
    </contour>
  </outline>
</glyph>
<glyph name="Itilde" format="1">
  <advance width="232"/>
  <unicode hex="0128"/>
  <note>
	Itilde
  </note>
  <outline>
    <contour>
      <point x="147" y="0" type="line"/>
      <point x="147" y="614" type="line"/>
      <point x="84" y="614" type="line"/>
      <point x="84" y="0" type="line"/>
    </contour>
    <contour>
      <point x="23" y="727"/>
      <point x="35" y="748"/>
      <point x="63" y="748" type="curve" smooth="yes"/>
      <point x="99" y="748"/>
      <point x="127" y="699"/>
      <point x="175" y="699" type="curve" smooth="yes"/>
      <point x="224" y="699"/>
      <point x="249" y="731"/>
      <point x="253" y="789" type="curve"/>
      <point x="212" y="802" type="line"/>
      <point x="208" y="772"/>
      <point x="197" y="752"/>
      <point x="168" y="752" type="curve" smooth="yes"/>
      <point x="134" y="752"/>
      <point x="101" y="800"/>
      <point x="56" y="800" type="curve" smooth="yes"/>
      <point x="7" y="800"/>
      <point x="-18" y="768"/>
      <point x="-22" y="711" type="curve"/>
      <point x="19" y="698" type="line"/>
    </contour>
  </outline>
</glyph>
<glyph name="itilde" format="1">
  <advance width="239"/>
  <unicode hex="0129"/>
  <note>
	itilde
  </note>
  <outline>
    <contour>
      <point x="27" y="546"/>
      <point x="39" y="567"/>
      <point x="67" y="567" type="curve" smooth="yes"/>
      <point x="103" y="567"/>
      <point x="131" y="519"/>
      <point x="179" y="519" type="curve" smooth="yes"/>
      <point x="228" y="519"/>
      <point x="253" y="550"/>
      <point x="257" y="608" type="curve"/>
      <point x="216" y="621" type="line"/>
      <point x="212" y="591"/>
      <point x="201" y="571"/>
      <point x="172" y="571" type="curve" smooth="yes"/>
      <point x="138" y="571"/>
      <point x="104" y="619"/>
      <point x="60" y="619" type="curve" smooth="yes"/>
      <point x="11" y="619"/>
      <point x="-14" y="587"/>
      <point x="-18" y="530" type="curve"/>
      <point x="23" y="517" type="line"/>
    </contour>
    <contour>
      <point x="149" y="0" type="line"/>
      <point x="149" y="467" type="line"/>
      <point x="90" y="467" type="line"/>
      <point x="90" y="0" type="line"/>
    </contour>
  </outline>
</glyph>
<glyph name="dotlessi" format="1">
  <advance width="224"/>
  <unicode hex="0131"/>
  <note>
	dotlessi
  </note>
  <outline>
    <contour>
      <point x="141" y="0" type="line"/>
      <point x="141" y="467" type="line"/>
      <point x="82" y="467" type="line"/>
      <point x="82" y="0" type="line"/>
    </contour>
  </outline>
</glyph>
<glyph name="kcommaaccent" format="1">
  <advance width="492"/>
  <unicode hex="0137"/>
  <note>
	kcommaaccent
  </note>
  <outline>
    <contour>
      <point x="436" y="-7"/>
      <point x="447" y="-5"/>
      <point x="462" y="-1" type="curve"/>
      <point x="462" y="31" type="line"/>
      <point x="423" y="38" type="line"/>
      <point x="369" y="159" type="line" smooth="yes"/>
      <point x="348" y="205"/>
      <point x="328" y="228"/>
      <point x="277" y="243" type="curve"/>
      <point x="277" y="249" type="line"/>
      <point x="327" y="264"/>
      <point x="348" y="292"/>
      <point x="367" y="333" type="curve" smooth="yes"/>
      <point x="420" y="452" type="line"/>
      <point x="362" y="474" type="line"/>
      <point x="308" y="353" type="line" smooth="yes"/>
      <point x="289" y="309"/>
      <point x="263" y="270"/>
      <point x="188" y="270" type="curve" smooth="yes"/>
      <point x="135" y="270" type="line"/>
      <point x="135" y="646" type="line"/>
      <point x="76" y="646" type="line"/>
      <point x="76" y="0" type="line"/>
      <point x="135" y="0" type="line"/>
      <point x="135" y="221" type="line"/>
      <point x="193" y="221" type="line" smooth="yes"/>
      <point x="265" y="221"/>
      <point x="292" y="188"/>
      <point x="317" y="131" type="curve" smooth="yes"/>
      <point x="363" y="27" type="line" smooth="yes"/>
      <point x="374" y="4"/>
      <point x="390" y="-7"/>
      <point x="418" y="-7" type="curve" smooth="yes"/>
    </contour>
    <contour>
      <point x="287" y="-211"/>
      <point x="305" y="-167"/>
      <point x="305" y="-124" type="curve" smooth="yes"/>
      <point x="305" y="-80"/>
      <point x="285" y="-58"/>
      <point x="244" y="-58" type="curve" smooth="yes"/>
      <point x="229" y="-58"/>
      <point x="214" y="-60"/>
      <point x="201" y="-65" type="curve"/>
      <point x="201" y="-108" type="line"/>
      <point x="255" y="-108" type="line"/>
      <point x="255" y="-159"/>
      <point x="242" y="-198"/>
      <point x="220" y="-238" type="curve"/>
      <point x="258" y="-247" type="line"/>
    </contour>
  </outline>
</glyph>
<glyph name="kgreenlandic" format="1">
  <advance width="496"/>
  <unicode hex="0138"/>
  <note>
	kgreenlandic
  </note>
  <outline>
    <contour>
      <point x="428" y="-5"/>
      <point x="440" y="-2"/>
      <point x="454" y="2" type="curve"/>
      <point x="454" y="32" type="line"/>
      <point x="422" y="41" type="line"/>
      <point x="370" y="159" type="line" smooth="yes"/>
      <point x="350" y="206"/>
      <point x="331" y="227"/>
      <point x="280" y="243" type="curve"/>
      <point x="280" y="249" type="line"/>
      <point x="331" y="266"/>
      <point x="352" y="293"/>
      <point x="369" y="332" type="curve" smooth="yes"/>
      <point x="424" y="460" type="line"/>
      <point x="363" y="476" type="line"/>
      <point x="310" y="350" type="line" smooth="yes"/>
      <point x="291" y="308"/>
      <point x="266" y="270"/>
      <point x="188" y="270" type="curve" smooth="yes"/>
      <point x="135" y="270" type="line"/>
      <point x="135" y="477" type="line"/>
      <point x="76" y="477" type="line"/>
      <point x="76" y="0" type="line"/>
      <point x="135" y="0" type="line"/>
      <point x="135" y="221" type="line"/>
      <point x="193" y="221" type="line" smooth="yes"/>
      <point x="271" y="221"/>
      <point x="295" y="184"/>
      <point x="319" y="129" type="curve" smooth="yes"/>
      <point x="364" y="27" type="line" smooth="yes"/>
      <point x="374" y="5"/>
      <point x="390" y="-5"/>
      <point x="415" y="-5" type="curve" smooth="yes"/>
    </contour>
  </outline>
</glyph>
<glyph name="lcaron" format="1">
  <advance width="321"/>
  <unicode hex="013E"/>
  <note>
	lcaron
  </note>
  <outline>
    <contour>
      <point x="187" y="-3"/>
      <point x="222" y="16"/>
      <point x="243" y="41" type="curve"/>
      <point x="217" y="74" type="line"/>
      <point x="155" y="44" type="line"/>
      <point x="141" y="44" type="line"/>
      <point x="134" y="57"/>
      <point x="133" y="65"/>
      <point x="133" y="86" type="curve" smooth="yes"/>
      <point x="133" y="669" type="line"/>
      <point x="74" y="669" type="line"/>
      <point x="74" y="76" type="line" smooth="yes"/>
      <point x="74" y="45"/>
      <point x="121" y="4"/>
      <point x="149" y="-7" type="curve"/>
    </contour>
    <contour>
      <point x="289" y="503"/>
      <point x="307" y="547"/>
      <point x="307" y="591" type="curve" smooth="yes"/>
      <point x="307" y="634"/>
      <point x="287" y="657"/>
      <point x="246" y="657" type="curve" smooth="yes"/>
      <point x="231" y="657"/>
      <point x="216" y="654"/>
      <point x="203" y="649" type="curve"/>
      <point x="203" y="607" type="line"/>
      <point x="257" y="607" type="line"/>
      <point x="257" y="555"/>
      <point x="244" y="516"/>
      <point x="222" y="476" type="curve"/>
      <point x="260" y="468" type="line"/>
    </contour>
  </outline>
</glyph>
<glyph name="Ldot" format="1">
  <advance width="456"/>
  <unicode hex="013F"/>
  <note>
	Ldot
  </note>
  <outline>
    <contour>
      <point x="427" y="0" type="line"/>
      <point x="427" y="58" type="line"/>
      <point x="145" y="58" type="line"/>
      <point x="145" y="614" type="line"/>
      <point x="82" y="614" type="line"/>
      <point x="82" y="0" type="line"/>
    </contour>
    <contour>
      <point x="317" y="238"/>
      <point x="337" y="257"/>
      <point x="337" y="286" type="curve" smooth="yes"/>
      <point x="337" y="314"/>
      <point x="316" y="334"/>
      <point x="288" y="334" type="curve" smooth="yes"/>
      <point x="260" y="334"/>
      <point x="238" y="314"/>
      <point x="238" y="286" type="curve" smooth="yes"/>
      <point x="238" y="257"/>
      <point x="259" y="238"/>
      <point x="288" y="238" type="curve" smooth="yes"/>
    </contour>
  </outline>
</glyph>
<glyph name="Lslash" format="1">
  <advance width="478"/>
  <unicode hex="0141"/>
  <note>
	Lslash
  </note>
  <outline>
    <contour>
      <point x="448" y="0" type="line"/>
      <point x="448" y="58" type="line"/>
      <point x="175" y="58" type="line"/>
      <point x="175" y="283" type="line"/>
      <point x="304" y="324" type="line"/>
      <point x="289" y="372" type="line"/>
      <point x="175" y="335" type="line"/>
      <point x="175" y="614" type="line"/>
      <point x="112" y="614" type="line"/>
      <point x="112" y="315" type="line"/>
      <point x="6" y="281" type="line"/>
      <point x="21" y="233" type="line"/>
      <point x="112" y="263" type="line"/>
      <point x="112" y="0" type="line"/>
    </contour>
  </outline>
</glyph>
<glyph name="lslash" format="1">
  <advance width="282"/>
  <unicode hex="0142"/>
  <note>
	lslash
  </note>
  <outline>
    <contour>
      <point x="197" y="-2"/>
      <point x="231" y="17"/>
      <point x="253" y="42" type="curve"/>
      <point x="227" y="75" type="line"/>
      <point x="165" y="46" type="line"/>
      <point x="150" y="46" type="line"/>
      <point x="144" y="58"/>
      <point x="143" y="66"/>
      <point x="143" y="87" type="curve" smooth="yes"/>
      <point x="143" y="315" type="line"/>
      <point x="264" y="354" type="line"/>
      <point x="249" y="401" type="line"/>
      <point x="143" y="367" type="line"/>
      <point x="143" y="655" type="line"/>
      <point x="84" y="655" type="line"/>
      <point x="84" y="348" type="line"/>
      <point x="-34" y="310" type="line"/>
      <point x="-19" y="263" type="line"/>
      <point x="84" y="296" type="line"/>
      <point x="84" y="77" type="line" smooth="yes"/>
      <point x="84" y="47"/>
      <point x="130" y="5"/>
      <point x="158" y="-6" type="curve"/>
    </contour>
  </outline>
</glyph>
<glyph name="Nacute" format="1">
  <advance width="616"/>
  <unicode hex="0143"/>
  <note>
	Nacute
  </note>
  <outline>
    <contour>
      <point x="144" y="0" type="line"/>
      <point x="144" y="326" type="line"/>
      <point x="136" y="516" type="line"/>
      <point x="143" y="518" type="line"/>
      <point x="463" y="0" type="line"/>
      <point x="534" y="0" type="line"/>
      <point x="534" y="614" type="line"/>
      <point x="471" y="614" type="line"/>
      <point x="471" y="288" type="line"/>
      <point x="480" y="98" type="line"/>
      <point x="472" y="96" type="line"/>
      <point x="152" y="614" type="line"/>
      <point x="81" y="614" type="line"/>
      <point x="81" y="0" type="line"/>
    </contour>
    <contour>
      <point x="439" y="839" type="line"/>
      <point x="358" y="848" type="line"/>
      <point x="275" y="705" type="line"/>
      <point x="320" y="698" type="line"/>
    </contour>
  </outline>
</glyph>
<glyph name="nacute" format="1">
  <advance width="516"/>
  <unicode hex="0144"/>
  <note>
	nacute
  </note>
  <outline>
    <contour>
      <point x="140" y="0" type="line"/>
      <point x="140" y="352" type="line"/>
      <point x="179" y="394"/>
      <point x="236" y="421"/>
      <point x="305" y="421" type="curve" smooth="yes"/>
      <point x="331" y="421"/>
      <point x="355" y="419"/>
      <point x="380" y="410" type="curve"/>
      <point x="380" y="0" type="line"/>
      <point x="440" y="0" type="line"/>
      <point x="440" y="366" type="line" smooth="yes"/>
      <point x="440" y="446"/>
      <point x="398" y="476"/>
      <point x="316" y="476" type="curve" smooth="yes"/>
      <point x="245" y="476"/>
      <point x="190" y="445"/>
      <point x="143" y="398" type="curve"/>
      <point x="136" y="398" type="line"/>
      <point x="131" y="468" type="line"/>
      <point x="80" y="468" type="line"/>
      <point x="80" y="0" type="line"/>
    </contour>
    <contour>
      <point x="402" y="693" type="line"/>
      <point x="321" y="702" type="line"/>
      <point x="238" y="559" type="line"/>
      <point x="283" y="552" type="line"/>
    </contour>
  </outline>
</glyph>
<glyph name="ncaron" format="1">
  <advance width="517"/>
  <unicode hex="0148"/>
  <note>
	ncaron
  </note>
  <outline>
    <contour>
      <point x="140" y="0" type="line"/>
      <point x="140" y="352" type="line"/>
      <point x="179" y="394"/>
      <point x="236" y="421"/>
      <point x="305" y="421" type="curve" smooth="yes"/>
      <point x="331" y="421"/>
      <point x="355" y="419"/>
      <point x="380" y="410" type="curve"/>
      <point x="380" y="0" type="line"/>
      <point x="440" y="0" type="line"/>
      <point x="440" y="366" type="line" smooth="yes"/>
      <point x="440" y="446"/>
      <point x="398" y="476"/>
      <point x="316" y="476" type="curve" smooth="yes"/>
      <point x="245" y="476"/>
      <point x="190" y="445"/>
      <point x="143" y="398" type="curve"/>
      <point x="136" y="398" type="line"/>
      <point x="131" y="468" type="line"/>
      <point x="80" y="468" type="line"/>
      <point x="80" y="0" type="line"/>
    </contour>
    <contour>
      <point x="303" y="560" type="line"/>
      <point x="404" y="692" type="line"/>
      <point x="363" y="701" type="line"/>
      <point x="276" y="612" type="line"/>
      <point x="270" y="612" type="line"/>
      <point x="181" y="701" type="line"/>
      <point x="142" y="692" type="line"/>
      <point x="243" y="560" type="line"/>
    </contour>
  </outline>
</glyph>
<glyph name="napostrophe" format="1">
  <advance width="612"/>
  <unicode hex="0149"/>
  <note>
	napostrophe
  </note>
  <outline>
    <contour>
      <point x="236" y="0" type="line"/>
      <point x="236" y="352" type="line"/>
      <point x="275" y="394"/>
      <point x="332" y="421"/>
      <point x="401" y="421" type="curve" smooth="yes"/>
      <point x="427" y="421"/>
      <point x="451" y="419"/>
      <point x="476" y="410" type="curve"/>
      <point x="476" y="0" type="line"/>
      <point x="536" y="0" type="line"/>
      <point x="536" y="366" type="line" smooth="yes"/>
      <point x="536" y="446"/>
      <point x="494" y="476"/>
      <point x="412" y="476" type="curve" smooth="yes"/>
      <point x="341" y="476"/>
      <point x="286" y="445"/>
      <point x="239" y="398" type="curve"/>
      <point x="232" y="398" type="line"/>
      <point x="227" y="468" type="line"/>
      <point x="176" y="468" type="line"/>
      <point x="176" y="0" type="line"/>
    </contour>
    <contour>
      <point x="98" y="363"/>
      <point x="116" y="407"/>
      <point x="116" y="451" type="curve" smooth="yes"/>
      <point x="116" y="495"/>
      <point x="96" y="517"/>
      <point x="55" y="517" type="curve" smooth="yes"/>
      <point x="40" y="517"/>
      <point x="25" y="514"/>
      <point x="12" y="510" type="curve"/>
      <point x="12" y="467" type="line"/>
      <point x="66" y="467" type="line"/>
      <point x="66" y="415"/>
      <point x="53" y="376"/>
      <point x="31" y="336" type="curve"/>
      <point x="69" y="328" type="line"/>
    </contour>
  </outline>
</glyph>
<glyph name="Eng" format="1">
  <advance width="616"/>
  <unicode hex="014A"/>
  <note>
	Eng
  </note>
  <outline>
    <contour>
      <point x="494" y="-182"/>
      <point x="534" y="-130"/>
      <point x="534" y="-30" type="curve" smooth="yes"/>
      <point x="534" y="614" type="line"/>
      <point x="471" y="614" type="line"/>
      <point x="471" y="288" type="line"/>
      <point x="480" y="98" type="line"/>
      <point x="472" y="96" type="line"/>
      <point x="152" y="614" type="line"/>
      <point x="81" y="614" type="line"/>
      <point x="81" y="0" type="line"/>
      <point x="144" y="0" type="line"/>
      <point x="144" y="326" type="line"/>
      <point x="136" y="516" type="line"/>
      <point x="143" y="518" type="line"/>
      <point x="467" y="0" type="line"/>
      <point x="467" y="-46" type="line" smooth="yes"/>
      <point x="467" y="-74"/>
      <point x="465" y="-96"/>
      <point x="460" y="-116" type="curve"/>
      <point x="430" y="-136"/>
      <point x="391" y="-150"/>
      <point x="346" y="-162" type="curve"/>
      <point x="375" y="-225" type="line"/>
    </contour>
  </outline>
</glyph>
<glyph name="Obreve" format="1">
  <advance width="610"/>
  <unicode hex="014E"/>
  <note>
	Obreve
  </note>
  <outline>
    <contour>
      <point x="489" y="-9"/>
      <point x="553" y="111"/>
      <point x="553" y="317" type="curve" smooth="yes"/>
      <point x="553" y="518"/>
      <point x="480" y="624"/>
      <point x="314" y="624" type="curve" smooth="yes"/>
      <point x="121" y="624"/>
      <point x="57" y="504"/>
      <point x="57" y="297" type="curve" smooth="yes"/>
      <point x="57" y="96"/>
      <point x="134" y="-9"/>
      <point x="296" y="-9" type="curve" smooth="yes"/>
    </contour>
    <contour>
      <point x="167" y="50"/>
      <point x="120" y="134"/>
      <point x="120" y="311" type="curve" smooth="yes"/>
      <point x="120" y="406"/>
      <point x="140" y="484"/>
      <point x="172" y="541" type="curve"/>
      <point x="201" y="556"/>
      <point x="253" y="565"/>
      <point x="300" y="565" type="curve" smooth="yes"/>
      <point x="443" y="565"/>
      <point x="490" y="480"/>
      <point x="490" y="303" type="curve" smooth="yes"/>
      <point x="490" y="208"/>
      <point x="466" y="129"/>
      <point x="435" y="73" type="curve"/>
      <point x="406" y="59"/>
      <point x="357" y="50"/>
      <point x="310" y="50" type="curve" smooth="yes"/>
    </contour>
    <contour>
      <point x="385" y="701"/>
      <point x="422" y="745"/>
      <point x="432" y="807" type="curve"/>
      <point x="373" y="817" type="line"/>
      <point x="368" y="777"/>
      <point x="355" y="751"/>
      <point x="305" y="751" type="curve" smooth="yes"/>
      <point x="254" y="751"/>
      <point x="241" y="777"/>
      <point x="236" y="817" type="curve"/>
      <point x="177" y="807" type="line"/>
      <point x="187" y="745"/>
      <point x="224" y="701"/>
      <point x="305" y="701" type="curve" smooth="yes"/>
    </contour>
  </outline>
</glyph>
<glyph name="Ohungarumlaut" format="1">
  <advance width="610"/>
  <unicode hex="0150"/>
  <note>
	Ohungarumlaut
  </note>
  <outline>
    <contour>
      <point x="489" y="-9"/>
      <point x="553" y="111"/>
      <point x="553" y="317" type="curve" smooth="yes"/>
      <point x="553" y="518"/>
      <point x="480" y="624"/>
      <point x="314" y="624" type="curve" smooth="yes"/>
      <point x="121" y="624"/>
      <point x="57" y="504"/>
      <point x="57" y="297" type="curve" smooth="yes"/>
      <point x="57" y="96"/>
      <point x="134" y="-9"/>
      <point x="296" y="-9" type="curve" smooth="yes"/>
    </contour>
    <contour>
      <point x="167" y="50"/>
      <point x="120" y="134"/>
      <point x="120" y="311" type="curve" smooth="yes"/>
      <point x="120" y="406"/>
      <point x="140" y="484"/>
      <point x="172" y="541" type="curve"/>
      <point x="201" y="556"/>
      <point x="253" y="565"/>
      <point x="300" y="565" type="curve" smooth="yes"/>
      <point x="443" y="565"/>
      <point x="490" y="480"/>
      <point x="490" y="303" type="curve" smooth="yes"/>
      <point x="490" y="208"/>
      <point x="466" y="129"/>
      <point x="435" y="73" type="curve"/>
      <point x="406" y="59"/>
      <point x="357" y="50"/>
      <point x="310" y="50" type="curve" smooth="yes"/>
    </contour>
    <contour>
      <point x="260" y="734"/>
      <point x="277" y="777"/>
      <point x="277" y="821" type="curve" smooth="yes"/>
      <point x="277" y="865"/>
      <point x="258" y="887"/>
      <point x="217" y="887" type="curve" smooth="yes"/>
      <point x="202" y="887"/>
      <point x="188" y="885"/>
      <point x="175" y="880" type="curve"/>
      <point x="175" y="837" type="line"/>
      <point x="229" y="837" type="line"/>
      <point x="229" y="785"/>
      <point x="216" y="747"/>
      <point x="194" y="706" type="curve"/>
      <point x="231" y="698" type="line"/>
    </contour>
    <contour>
      <point x="425" y="734"/>
      <point x="442" y="777"/>
      <point x="442" y="821" type="curve" smooth="yes"/>
      <point x="442" y="865"/>
      <point x="424" y="887"/>
      <point x="383" y="887" type="curve" smooth="yes"/>
      <point x="368" y="887"/>
      <point x="353" y="885"/>
      <point x="340" y="880" type="curve"/>
      <point x="340" y="837" type="line"/>
      <point x="394" y="837" type="line"/>
      <point x="394" y="785"/>
      <point x="381" y="747"/>
      <point x="359" y="706" type="curve"/>
      <point x="396" y="698" type="line"/>
    </contour>
  </outline>
</glyph>
<glyph name="oe" format="1">
  <advance width="813"/>
  <unicode hex="0153"/>
  <note>
	oe
  </note>
  <outline>
    <contour>
      <point x="334" y="-7"/>
      <point x="388" y="27"/>
      <point x="418" y="83" type="curve"/>
      <point x="425" y="83" type="line"/>
      <point x="455" y="26"/>
      <point x="510" y="-5"/>
      <point x="594" y="-5" type="curve" smooth="yes"/>
      <point x="672" y="-5"/>
      <point x="716" y="16"/>
      <point x="756" y="40" type="curve"/>
      <point x="736" y="87" type="line"/>
      <point x="697" y="62"/>
      <point x="660" y="47"/>
      <point x="597" y="47" type="curve" smooth="yes"/>
      <point x="498" y="47"/>
      <point x="455" y="102"/>
      <point x="451" y="210" type="curve"/>
      <point x="711" y="208" type="line"/>
      <point x="762" y="259" type="line"/>
      <point x="775" y="392"/>
      <point x="714" y="476"/>
      <point x="595" y="476" type="curve" smooth="yes"/>
      <point x="515" y="476"/>
      <point x="459" y="441"/>
      <point x="428" y="383" type="curve"/>
      <point x="424" y="383" type="line"/>
      <point x="396" y="444"/>
      <point x="344" y="480"/>
      <point x="265" y="480" type="curve" smooth="yes"/>
      <point x="104" y="480"/>
      <point x="55" y="375"/>
      <point x="55" y="230" type="curve" smooth="yes"/>
      <point x="55" y="86"/>
      <point x="108" y="-7"/>
      <point x="242" y="-7" type="curve" smooth="yes"/>
    </contour>
    <contour>
      <point x="147" y="46"/>
      <point x="115" y="106"/>
      <point x="115" y="241" type="curve" smooth="yes"/>
      <point x="115" y="312"/>
      <point x="127" y="371"/>
      <point x="146" y="405" type="curve"/>
      <point x="172" y="419"/>
      <point x="209" y="426"/>
      <point x="248" y="426" type="curve" smooth="yes"/>
      <point x="360" y="426"/>
      <point x="392" y="362"/>
      <point x="392" y="222" type="curve" smooth="yes"/>
      <point x="392" y="153"/>
      <point x="379" y="100"/>
      <point x="361" y="67" type="curve"/>
      <point x="335" y="53"/>
      <point x="298" y="46"/>
      <point x="259" y="46" type="curve" smooth="yes"/>
    </contour>
    <contour>
      <point x="454" y="363"/>
      <point x="487" y="423"/>
      <point x="591" y="423" type="curve" smooth="yes"/>
      <point x="670" y="423"/>
      <point x="708" y="377"/>
      <point x="708" y="307" type="curve" smooth="yes"/>
      <point x="708" y="293"/>
      <point x="707" y="275"/>
      <point x="703" y="259" type="curve"/>
      <point x="451" y="255" type="line"/>
    </contour>
  </outline>
</glyph>
<glyph name="Rcommaaccent" format="1">
  <advance width="575"/>
  <unicode hex="0156"/>
  <note>
	Rcommaaccent
  </note>
  <outline>
    <contour>
      <point x="516" y="-7"/>
      <point x="530" y="-4"/>
      <point x="546" y="1" type="curve"/>
      <point x="546" y="37" type="line"/>
      <point x="496" y="45" type="line"/>
      <point x="426" y="200" type="line" smooth="yes"/>
      <point x="410" y="235"/>
      <point x="395" y="254"/>
      <point x="363" y="269" type="curve"/>
      <point x="363" y="277" type="line"/>
      <point x="428" y="311"/>
      <point x="463" y="364"/>
      <point x="463" y="443" type="curve" smooth="yes"/>
      <point x="463" y="565"/>
      <point x="393" y="624"/>
      <point x="245" y="624" type="curve" smooth="yes"/>
      <point x="194" y="624"/>
      <point x="133" y="615"/>
      <point x="81" y="600" type="curve"/>
      <point x="81" y="0" type="line"/>
      <point x="144" y="0" type="line"/>
      <point x="144" y="254" type="line"/>
      <point x="260" y="254" type="line" smooth="yes"/>
      <point x="333" y="252"/>
      <point x="349" y="218"/>
      <point x="370" y="170" type="curve" smooth="yes"/>
      <point x="431" y="32" type="line" smooth="yes"/>
      <point x="443" y="5"/>
      <point x="462" y="-7"/>
      <point x="493" y="-7" type="curve" smooth="yes"/>
    </contour>
    <contour>
      <point x="324" y="-211"/>
      <point x="342" y="-167"/>
      <point x="342" y="-124" type="curve" smooth="yes"/>
      <point x="342" y="-80"/>
      <point x="322" y="-58"/>
      <point x="281" y="-58" type="curve" smooth="yes"/>
      <point x="266" y="-58"/>
      <point x="251" y="-60"/>
      <point x="238" y="-65" type="curve"/>
      <point x="238" y="-108" type="line"/>
      <point x="292" y="-108" type="line"/>
      <point x="292" y="-159"/>
      <point x="279" y="-198"/>
      <point x="257" y="-238" type="curve"/>
      <point x="295" y="-247" type="line"/>
    </contour>
    <contour>
      <point x="144" y="556" type="line"/>
      <point x="173" y="562"/>
      <point x="209" y="566"/>
      <point x="242" y="566" type="curve" smooth="yes"/>
      <point x="351" y="566"/>
      <point x="399" y="532"/>
      <point x="399" y="441" type="curve" smooth="yes"/>
      <point x="399" y="375"/>
      <point x="375" y="341"/>
      <point x="328" y="311" type="curve"/>
      <point x="144" y="311" type="line"/>
    </contour>
  </outline>
</glyph>
<glyph name="rcaron" format="1">
  <advance width="363"/>
  <unicode hex="0159"/>
  <note>
	rcaron
  </note>
  <outline>
    <contour>
      <point x="140" y="0" type="line"/>
      <point x="140" y="315" type="line"/>
      <point x="161" y="372"/>
      <point x="213" y="403"/>
      <point x="280" y="403" type="curve" smooth="yes"/>
      <point x="321" y="403" type="line"/>
      <point x="328" y="450" type="line"/>
      <point x="323" y="458"/>
      <point x="306" y="472"/>
      <point x="296" y="472" type="curve" smooth="yes"/>
      <point x="233" y="472"/>
      <point x="173" y="434"/>
      <point x="143" y="376" type="curve"/>
      <point x="134" y="376" type="line"/>
      <point x="129" y="466" type="line"/>
      <point x="80" y="466" type="line"/>
      <point x="80" y="0" type="line"/>
    </contour>
    <contour>
      <point x="233" y="560" type="line"/>
      <point x="334" y="692" type="line"/>
      <point x="293" y="701" type="line"/>
      <point x="206" y="612" type="line"/>
      <point x="200" y="612" type="line"/>
      <point x="111" y="701" type="line"/>
      <point x="72" y="692" type="line"/>
      <point x="173" y="560" type="line"/>
    </contour>
  </outline>
</glyph>
<glyph name="Scedilla" format="1">
  <advance width="514"/>
  <unicode hex="015E"/>
  <note>
	Scedilla
  </note>
  <outline>
    <contour>
      <point x="330" y="-216"/>
      <point x="365" y="-188"/>
      <point x="365" y="-130" type="curve" smooth="yes"/>
      <point x="365" y="-84"/>
      <point x="343" y="-56"/>
      <point x="289" y="-56" type="curve" smooth="yes"/>
      <point x="272" y="-56"/>
      <point x="257" y="-59"/>
      <point x="245" y="-64" type="curve"/>
      <point x="286" y="-7" type="line"/>
      <point x="417" y="6"/>
      <point x="453" y="88"/>
      <point x="453" y="174" type="curve" smooth="yes"/>
      <point x="453" y="267"/>
      <point x="397" y="308"/>
      <point x="274" y="337" type="curve" smooth="yes"/>
      <point x="170" y="361"/>
      <point x="130" y="386"/>
      <point x="130" y="455" type="curve" smooth="yes"/>
      <point x="130" y="530"/>
      <point x="164" y="567"/>
      <point x="261" y="567" type="curve" smooth="yes"/>
      <point x="298" y="567"/>
      <point x="332" y="563"/>
      <point x="364" y="559" type="curve"/>
      <point x="374" y="470" type="line"/>
      <point x="418" y="470" type="line"/>
      <point x="426" y="495"/>
      <point x="433" y="528"/>
      <point x="433" y="555" type="curve" smooth="yes"/>
      <point x="433" y="586" type="line"/>
      <point x="393" y="608"/>
      <point x="348" y="624"/>
      <point x="267" y="624" type="curve" smooth="yes"/>
      <point x="110" y="624"/>
      <point x="67" y="537"/>
      <point x="67" y="447" type="curve" smooth="yes"/>
      <point x="67" y="337"/>
      <point x="155" y="301"/>
      <point x="255" y="277" type="curve" smooth="yes"/>
      <point x="350" y="253"/>
      <point x="389" y="225"/>
      <point x="389" y="155" type="curve" smooth="yes"/>
      <point x="389" y="123"/>
      <point x="383" y="93"/>
      <point x="373" y="71" type="curve"/>
      <point x="344" y="60"/>
      <point x="306" y="51"/>
      <point x="255" y="51" type="curve" smooth="yes"/>
      <point x="189" y="51"/>
      <point x="134" y="63"/>
      <point x="76" y="91" type="curve"/>
      <point x="54" y="36" type="line"/>
      <point x="112" y="6"/>
      <point x="173" y="-7"/>
      <point x="236" y="-8" type="curve"/>
      <point x="187" y="-68" type="line"/>
      <point x="223" y="-104" type="line"/>
      <point x="236" y="-99"/>
      <point x="250" y="-97"/>
      <point x="267" y="-97" type="curve" smooth="yes"/>
      <point x="297" y="-97"/>
      <point x="313" y="-108"/>
      <point x="313" y="-134" type="curve" smooth="yes"/>
      <point x="313" y="-147"/>
      <point x="311" y="-157"/>
      <point x="307" y="-167" type="curve"/>
      <point x="292" y="-170"/>
      <point x="278" y="-172"/>
      <point x="257" y="-172" type="curve" smooth="yes"/>
      <point x="236" y="-172"/>
      <point x="209" y="-168"/>
      <point x="189" y="-160" type="curve"/>
      <point x="175" y="-200" type="line"/>
      <point x="205" y="-213"/>
      <point x="232" y="-216"/>
      <point x="259" y="-216" type="curve" smooth="yes"/>
    </contour>
  </outline>
</glyph>
<glyph name="Tcedilla" format="1">
  <advance width="533"/>
  <unicode hex="0162"/>
  <note>
	Tcedilla
  </note>
  <outline>
    <contour>
      <point x="319" y="-216"/>
      <point x="354" y="-188"/>
      <point x="354" y="-130" type="curve" smooth="yes"/>
      <point x="354" y="-84"/>
      <point x="332" y="-57"/>
      <point x="279" y="-57" type="curve" smooth="yes"/>
      <point x="261" y="-57"/>
      <point x="246" y="-59"/>
      <point x="234" y="-64" type="curve"/>
      <point x="281" y="0" type="line"/>
      <point x="298" y="0" type="line"/>
      <point x="298" y="555" type="line"/>
      <point x="496" y="555" type="line"/>
      <point x="496" y="614" type="line"/>
      <point x="37" y="614" type="line"/>
      <point x="37" y="555" type="line"/>
      <point x="235" y="555" type="line"/>
      <point x="235" y="2" type="line"/>
      <point x="176" y="-68" type="line"/>
      <point x="213" y="-104" type="line"/>
      <point x="225" y="-99"/>
      <point x="239" y="-97"/>
      <point x="256" y="-97" type="curve" smooth="yes"/>
      <point x="287" y="-97"/>
      <point x="302" y="-109"/>
      <point x="302" y="-134" type="curve" smooth="yes"/>
      <point x="302" y="-147"/>
      <point x="300" y="-158"/>
      <point x="297" y="-167" type="curve"/>
      <point x="282" y="-171"/>
      <point x="268" y="-172"/>
      <point x="247" y="-172" type="curve" smooth="yes"/>
      <point x="225" y="-172"/>
      <point x="198" y="-168"/>
      <point x="178" y="-161" type="curve"/>
      <point x="164" y="-200" type="line"/>
      <point x="194" y="-213"/>
      <point x="221" y="-216"/>
      <point x="248" y="-216" type="curve" smooth="yes"/>
    </contour>
  </outline>
</glyph>
<glyph name="tcedilla" format="1">
  <advance width="366"/>
  <unicode hex="0163"/>
  <note>
	tcedilla
  </note>
  <outline>
    <contour>
      <point x="262" y="-216"/>
      <point x="297" y="-188"/>
      <point x="297" y="-130" type="curve" smooth="yes"/>
      <point x="297" y="-84"/>
      <point x="275" y="-56"/>
      <point x="222" y="-56" type="curve" smooth="yes"/>
      <point x="205" y="-56"/>
      <point x="189" y="-59"/>
      <point x="177" y="-64" type="curve"/>
      <point x="220" y="-5" type="line"/>
      <point x="227" y="-6"/>
      <point x="234" y="-6"/>
      <point x="242" y="-6" type="curve" smooth="yes"/>
      <point x="273" y="-6"/>
      <point x="312" y="6"/>
      <point x="333" y="17" type="curve"/>
      <point x="316" y="67" type="line"/>
      <point x="292" y="57"/>
      <point x="257" y="48"/>
      <point x="232" y="48" type="curve" smooth="yes"/>
      <point x="211" y="48"/>
      <point x="195" y="51"/>
      <point x="176" y="57" type="curve"/>
      <point x="170" y="73"/>
      <point x="167" y="85"/>
      <point x="167" y="107" type="curve" smooth="yes"/>
      <point x="167" y="409" type="line"/>
      <point x="315" y="409" type="line"/>
      <point x="323" y="460" type="line"/>
      <point x="167" y="460" type="line"/>
      <point x="167" y="594" type="line"/>
      <point x="109" y="594" type="line"/>
      <point x="109" y="460" type="line"/>
      <point x="35" y="460" type="line"/>
      <point x="27" y="409" type="line"/>
      <point x="109" y="409" type="line"/>
      <point x="109" y="94" type="line" smooth="yes"/>
      <point x="109" y="36"/>
      <point x="145" y="22"/>
      <point x="178" y="2" type="curve"/>
      <point x="120" y="-68" type="line"/>
      <point x="156" y="-104" type="line"/>
      <point x="168" y="-99"/>
      <point x="183" y="-97"/>
      <point x="199" y="-97" type="curve" smooth="yes"/>
      <point x="230" y="-97"/>
      <point x="245" y="-108"/>
      <point x="245" y="-134" type="curve" smooth="yes"/>
      <point x="245" y="-147"/>
      <point x="243" y="-157"/>
      <point x="240" y="-167" type="curve"/>
      <point x="225" y="-170"/>
      <point x="211" y="-172"/>
      <point x="190" y="-172" type="curve" smooth="yes"/>
      <point x="168" y="-172"/>
      <point x="142" y="-168"/>
      <point x="122" y="-160" type="curve"/>
      <point x="107" y="-200" type="line"/>
      <point x="137" y="-213"/>
      <point x="165" y="-216"/>
      <point x="191" y="-216" type="curve" smooth="yes"/>
    </contour>
  </outline>
</glyph>
<glyph name="Utilde" format="1">
  <advance width="599"/>
  <unicode hex="0168"/>
  <note>
	Utilde
  </note>
  <outline>
    <contour>
      <point x="426" y="-9"/>
      <point x="519" y="23"/>
      <point x="519" y="104" type="curve" smooth="yes"/>
      <point x="519" y="614" type="line"/>
      <point x="456" y="614" type="line"/>
      <point x="456" y="75" type="line"/>
      <point x="422" y="60"/>
      <point x="369" y="50"/>
      <point x="300" y="50" type="curve" smooth="yes"/>
      <point x="190" y="50"/>
      <point x="141" y="79"/>
      <point x="141" y="184" type="curve" smooth="yes"/>
      <point x="141" y="614" type="line"/>
      <point x="78" y="614" type="line"/>
      <point x="78" y="170" type="line" smooth="yes"/>
      <point x="78" y="49"/>
      <point x="152" y="-9"/>
      <point x="293" y="-9" type="curve" smooth="yes"/>
    </contour>
    <contour>
      <point x="210" y="729"/>
      <point x="221" y="749"/>
      <point x="250" y="749" type="curve" smooth="yes"/>
      <point x="285" y="749"/>
      <point x="314" y="701"/>
      <point x="362" y="701" type="curve" smooth="yes"/>
      <point x="411" y="701"/>
      <point x="436" y="733"/>
      <point x="440" y="791" type="curve"/>
      <point x="399" y="804" type="line"/>
      <point x="395" y="774"/>
      <point x="383" y="754"/>
      <point x="355" y="754" type="curve" smooth="yes"/>
      <point x="321" y="754"/>
      <point x="287" y="802"/>
      <point x="243" y="802" type="curve" smooth="yes"/>
      <point x="194" y="802"/>
      <point x="169" y="770"/>
      <point x="165" y="712" type="curve"/>
      <point x="206" y="699" type="line"/>
    </contour>
  </outline>
</glyph>
<glyph name="utilde" format="1">
  <advance width="511"/>
  <unicode hex="0169"/>
  <note>
	utilde
  </note>
  <outline>
    <contour>
      <point x="271" y="-9"/>
      <point x="321" y="23"/>
      <point x="367" y="72" type="curve"/>
      <point x="375" y="72" type="line"/>
      <point x="379" y="0" type="line"/>
      <point x="430" y="0" type="line"/>
      <point x="430" y="468" type="line"/>
      <point x="370" y="468" type="line"/>
      <point x="370" y="117" type="line"/>
      <point x="333" y="75"/>
      <point x="278" y="45"/>
      <point x="208" y="45" type="curve" smooth="yes"/>
      <point x="183" y="45"/>
      <point x="160" y="48"/>
      <point x="134" y="56" type="curve"/>
      <point x="134" y="468" type="line"/>
      <point x="74" y="468" type="line"/>
      <point x="74" y="100" type="line" smooth="yes"/>
      <point x="74" y="21"/>
      <point x="116" y="-9"/>
      <point x="198" y="-9" type="curve" smooth="yes"/>
    </contour>
    <contour>
      <point x="163" y="583"/>
      <point x="174" y="603"/>
      <point x="203" y="603" type="curve" smooth="yes"/>
      <point x="238" y="603"/>
      <point x="267" y="555"/>
      <point x="315" y="555" type="curve" smooth="yes"/>
      <point x="364" y="555"/>
      <point x="389" y="587"/>
      <point x="393" y="644" type="curve"/>
      <point x="352" y="657" type="line"/>
      <point x="348" y="628"/>
      <point x="336" y="607"/>
      <point x="308" y="607" type="curve" smooth="yes"/>
      <point x="274" y="607"/>
      <point x="240" y="655"/>
      <point x="196" y="655" type="curve" smooth="yes"/>
      <point x="147" y="655"/>
      <point x="122" y="624"/>
      <point x="118" y="566" type="curve"/>
      <point x="159" y="553" type="line"/>
    </contour>
  </outline>
</glyph>
<glyph name="Ubreve" format="1">
  <advance width="599"/>
  <unicode hex="016C"/>
  <note>
	Ubreve
  </note>
  <outline>
    <contour>
      <point x="426" y="-9"/>
      <point x="519" y="23"/>
      <point x="519" y="104" type="curve" smooth="yes"/>
      <point x="519" y="614" type="line"/>
      <point x="456" y="614" type="line"/>
      <point x="456" y="75" type="line"/>
      <point x="422" y="60"/>
      <point x="369" y="50"/>
      <point x="300" y="50" type="curve" smooth="yes"/>
      <point x="190" y="50"/>
      <point x="141" y="79"/>
      <point x="141" y="184" type="curve" smooth="yes"/>
      <point x="141" y="614" type="line"/>
      <point x="78" y="614" type="line"/>
      <point x="78" y="170" type="line" smooth="yes"/>
      <point x="78" y="49"/>
      <point x="152" y="-9"/>
      <point x="293" y="-9" type="curve" smooth="yes"/>
    </contour>
    <contour>
      <point x="381" y="701"/>
      <point x="418" y="745"/>
      <point x="428" y="807" type="curve"/>
      <point x="369" y="817" type="line"/>
      <point x="364" y="777"/>
      <point x="351" y="751"/>
      <point x="301" y="751" type="curve" smooth="yes"/>
      <point x="250" y="751"/>
      <point x="237" y="777"/>
      <point x="232" y="817" type="curve"/>
      <point x="173" y="807" type="line"/>
      <point x="183" y="745"/>
      <point x="220" y="701"/>
      <point x="301" y="701" type="curve" smooth="yes"/>
    </contour>
  </outline>
</glyph>
<glyph name="uring" format="1">
  <advance width="511"/>
  <unicode hex="016F"/>
  <note>
	uring
  </note>
  <outline>
    <contour>
      <point x="271" y="-9"/>
      <point x="321" y="23"/>
      <point x="367" y="72" type="curve"/>
      <point x="375" y="72" type="line"/>
      <point x="379" y="0" type="line"/>
      <point x="430" y="0" type="line"/>
      <point x="430" y="468" type="line"/>
      <point x="370" y="468" type="line"/>
      <point x="370" y="117" type="line"/>
      <point x="333" y="75"/>
      <point x="278" y="45"/>
      <point x="208" y="45" type="curve" smooth="yes"/>
      <point x="183" y="45"/>
      <point x="160" y="48"/>
      <point x="134" y="56" type="curve"/>
      <point x="134" y="468" type="line"/>
      <point x="74" y="468" type="line"/>
      <point x="74" y="100" type="line" smooth="yes"/>
      <point x="74" y="21"/>
      <point x="116" y="-9"/>
      <point x="198" y="-9" type="curve" smooth="yes"/>
    </contour>
    <contour>
      <point x="322" y="552"/>
      <point x="365" y="594"/>
      <point x="365" y="643" type="curve" smooth="yes"/>
      <point x="365" y="700"/>
      <point x="328" y="732"/>
      <point x="262" y="732" type="curve" smooth="yes"/>
      <point x="187" y="732"/>
      <point x="145" y="687"/>
      <point x="145" y="638" type="curve" smooth="yes"/>
      <point x="145" y="582"/>
      <point x="183" y="552"/>
      <point x="247" y="552" type="curve" smooth="yes"/>
    </contour>
    <contour>
      <point x="211" y="591"/>
      <point x="190" y="609"/>
      <point x="190" y="640" type="curve" smooth="yes"/>
      <point x="190" y="655"/>
      <point x="191" y="668"/>
      <point x="197" y="686" type="curve"/>
      <point x="216" y="692"/>
      <point x="235" y="693"/>
      <point x="260" y="693" type="curve" smooth="yes"/>
      <point x="299" y="693"/>
      <point x="320" y="673"/>
      <point x="320" y="642" type="curve" smooth="yes"/>
      <point x="320" y="626"/>
      <point x="317" y="613"/>
      <point x="313" y="598" type="curve"/>
      <point x="295" y="592"/>
      <point x="274" y="591"/>
      <point x="250" y="591" type="curve" smooth="yes"/>
    </contour>
  </outline>
</glyph>
<glyph name="uogonek" format="1">
  <advance width="511"/>
  <unicode hex="0173"/>
  <note>
	uogonek
  </note>
  <outline>
    <contour>
      <point x="271" y="-9"/>
      <point x="321" y="23"/>
      <point x="367" y="72" type="curve"/>
      <point x="375" y="72" type="line"/>
      <point x="379" y="0" type="line"/>
      <point x="430" y="0" type="line"/>
      <point x="430" y="468" type="line"/>
      <point x="370" y="468" type="line"/>
      <point x="370" y="117" type="line"/>
      <point x="333" y="75"/>
      <point x="278" y="45"/>
      <point x="208" y="45" type="curve" smooth="yes"/>
      <point x="183" y="45"/>
      <point x="160" y="48"/>
      <point x="134" y="56" type="curve"/>
      <point x="134" y="468" type="line"/>
      <point x="74" y="468" type="line"/>
      <point x="74" y="100" type="line" smooth="yes"/>
      <point x="74" y="21"/>
      <point x="116" y="-9"/>
      <point x="198" y="-9" type="curve" smooth="yes"/>
    </contour>
    <contour>
      <point x="415" y="-166"/>
      <point x="433" y="-162"/>
      <point x="449" y="-155" type="curve"/>
      <point x="439" y="-114" type="line"/>
      <point x="424" y="-118"/>
      <point x="411" y="-119"/>
      <point x="398" y="-119" type="curve" smooth="yes"/>
      <point x="383" y="-119"/>
      <point x="371" y="-118"/>
      <point x="359" y="-115" type="curve"/>
      <point x="355" y="-107"/>
      <point x="353" y="-96"/>
      <point x="353" y="-85" type="curve" smooth="yes"/>
      <point x="353" y="-47"/>
      <point x="370" y="-24"/>
      <point x="425" y="5" type="curve"/>
      <point x="389" y="14" type="line"/>
      <point x="335" y="-7"/>
      <point x="298" y="-36"/>
      <point x="298" y="-88" type="curve" smooth="yes"/>
      <point x="298" y="-138"/>
      <point x="332" y="-166"/>
      <point x="389" y="-166" type="curve" smooth="yes"/>
    </contour>
  </outline>
</glyph>
<glyph name="wcircumflex" format="1">
  <advance width="705"/>
  <unicode hex="0175"/>
  <note>
	wcircumflex
  </note>
  <outline>
    <contour>
      <point x="246" y="0" type="line"/>
      <point x="278" y="87"/>
      <point x="318" y="193"/>
      <point x="348" y="284" type="curve"/>
      <point x="353" y="284" type="line"/>
      <point x="380" y="189"/>
      <point x="413" y="92"/>
      <point x="447" y="0" type="curve"/>
      <point x="523" y="0" type="line"/>
      <point x="580" y="148"/>
      <point x="623" y="295"/>
      <point x="672" y="466" type="curve"/>
      <point x="614" y="473" type="line"/>
      <point x="570" y="306"/>
      <point x="528" y="161"/>
      <point x="489" y="57" type="curve"/>
      <point x="480" y="57" type="line"/>
      <point x="441" y="167"/>
      <point x="400" y="303"/>
      <point x="363" y="465" type="curve"/>
      <point x="309" y="459" type="line"/>
      <point x="315" y="431"/>
      <point x="321" y="401"/>
      <point x="328" y="373" type="curve"/>
      <point x="291" y="250"/>
      <point x="246" y="131"/>
      <point x="218" y="60" type="curve"/>
      <point x="210" y="60" type="line"/>
      <point x="173" y="170"/>
      <point x="138" y="307"/>
      <point x="99" y="471" type="curve"/>
      <point x="40" y="465" type="line"/>
      <point x="80" y="297"/>
      <point x="125" y="145"/>
      <point x="177" y="0" type="curve"/>
    </contour>
    <contour>
      <point x="347" y="639" type="line"/>
      <point x="353" y="639" type="line"/>
      <point x="440" y="551" type="line"/>
      <point x="481" y="559" type="line"/>
      <point x="380" y="691" type="line"/>
      <point x="320" y="691" type="line"/>
      <point x="219" y="559" type="line"/>
      <point x="258" y="551" type="line"/>
    </contour>
  </outline>
</glyph>
<glyph name="Ydieresis" format="1">
  <advance width="601"/>
  <unicode hex="0178"/>
  <note>
	Ydieresis
  </note>
  <outline>
    <contour>
      <point x="332" y="0" type="line"/>
      <point x="332" y="221" type="line"/>
      <point x="351" y="221" type="line"/>
      <point x="440" y="334"/>
      <point x="507" y="452"/>
      <point x="570" y="602" type="curve"/>
      <point x="507" y="619" type="line"/>
      <point x="453" y="484"/>
      <point x="382" y="360"/>
      <point x="318" y="271" type="curve"/>
      <point x="283" y="271" type="line"/>
      <point x="218" y="360"/>
      <point x="147" y="484"/>
      <point x="93" y="619" type="curve"/>
      <point x="30" y="602" type="line"/>
      <point x="94" y="452"/>
      <point x="161" y="334"/>
      <point x="249" y="221" type="curve"/>
      <point x="269" y="221" type="line"/>
      <point x="269" y="0" type="line"/>
    </contour>
    <contour>
      <point x="246" y="701"/>
      <point x="260" y="715"/>
      <point x="260" y="738" type="curve" smooth="yes"/>
      <point x="260" y="762"/>
      <point x="246" y="775"/>
      <point x="222" y="775" type="curve" smooth="yes"/>
      <point x="198" y="775"/>
      <point x="183" y="762"/>
      <point x="183" y="738" type="curve" smooth="yes"/>
      <point x="183" y="715"/>
      <point x="198" y="701"/>
      <point x="222" y="701" type="curve" smooth="yes"/>
    </contour>
    <contour>
      <point x="404" y="701"/>
      <point x="418" y="715"/>
      <point x="418" y="738" type="curve" smooth="yes"/>
      <point x="418" y="762"/>
      <point x="404" y="775"/>
      <point x="380" y="775" type="curve" smooth="yes"/>
      <point x="355" y="775"/>
      <point x="340" y="762"/>
      <point x="340" y="738" type="curve" smooth="yes"/>
      <point x="340" y="715"/>
      <point x="355" y="701"/>
      <point x="380" y="701" type="curve" smooth="yes"/>
    </contour>
  </outline>
</glyph>
<glyph name="zdotaccent" format="1">
  <advance width="442"/>
  <unicode hex="017C"/>
  <note>
	zdotaccent
  </note>
  <outline>
    <contour>
      <point x="391" y="0" type="line"/>
      <point x="391" y="46" type="line" smooth="yes"/>
      <point x="391" y="66"/>
      <point x="386" y="93"/>
      <point x="380" y="113" type="curve"/>
      <point x="338" y="113" type="line"/>
      <point x="332" y="49" type="line"/>
      <point x="119" y="49" type="line"/>
      <point x="119" y="59" type="line"/>
      <point x="379" y="406" type="line"/>
      <point x="379" y="468" type="line"/>
      <point x="62" y="468" type="line"/>
      <point x="62" y="424" type="line" smooth="yes"/>
      <point x="62" y="401"/>
      <point x="67" y="376"/>
      <point x="73" y="357" type="curve"/>
      <point x="115" y="357" type="line"/>
      <point x="122" y="418" type="line"/>
      <point x="313" y="418" type="line"/>
      <point x="313" y="410" type="line"/>
      <point x="53" y="60" type="line"/>
      <point x="53" y="0" type="line"/>
    </contour>
    <contour>
      <point x="255" y="555"/>
      <point x="273" y="572"/>
      <point x="273" y="602" type="curve" smooth="yes"/>
      <point x="273" y="633"/>
      <point x="255" y="651"/>
      <point x="223" y="651" type="curve" smooth="yes"/>
      <point x="192" y="651"/>
      <point x="173" y="633"/>
      <point x="173" y="602" type="curve" smooth="yes"/>
      <point x="173" y="572"/>
      <point x="192" y="555"/>
      <point x="223" y="555" type="curve" smooth="yes"/>
    </contour>
  </outline>
</glyph>
<glyph name="zcaron" format="1">
  <advance width="444"/>
  <unicode hex="017E"/>
  <note>
	zcaron
  </note>
  <outline>
    <contour>
      <point x="393" y="0" type="line"/>
      <point x="393" y="46" type="line" smooth="yes"/>
      <point x="393" y="66"/>
      <point x="388" y="93"/>
      <point x="382" y="113" type="curve"/>
      <point x="340" y="113" type="line"/>
      <point x="334" y="49" type="line"/>
      <point x="121" y="49" type="line"/>
      <point x="121" y="59" type="line"/>
      <point x="381" y="406" type="line"/>
      <point x="381" y="468" type="line"/>
      <point x="64" y="468" type="line"/>
      <point x="64" y="424" type="line" smooth="yes"/>
      <point x="64" y="401"/>
      <point x="69" y="376"/>
      <point x="75" y="357" type="curve"/>
      <point x="117" y="357" type="line"/>
      <point x="124" y="418" type="line"/>
      <point x="315" y="418" type="line"/>
      <point x="315" y="410" type="line"/>
      <point x="55" y="60" type="line"/>
      <point x="55" y="0" type="line"/>
    </contour>
    <contour>
      <point x="259" y="560" type="line"/>
      <point x="360" y="692" type="line"/>
      <point x="319" y="701" type="line"/>
      <point x="232" y="612" type="line"/>
      <point x="226" y="612" type="line"/>
      <point x="137" y="701" type="line"/>
      <point x="98" y="692" type="line"/>
      <point x="199" y="560" type="line"/>
    </contour>
  </outline>
</glyph>
<glyph name="Uhorn" format="1">
  <advance width="722"/>
  <unicode hex="01AF"/>
  <note>
	Uhorn
  </note>
  <outline>
    <contour>
      <point x="426" y="-10"/>
      <point x="519" y="22"/>
      <point x="519" y="102" type="curve" smooth="yes"/>
      <point x="519" y="450" type="line"/>
      <point x="644" y="482"/>
      <point x="722" y="558"/>
      <point x="722" y="694" type="curve"/>
      <point x="659" y="694" type="line"/>
      <point x="658" y="590"/>
      <point x="607" y="540"/>
      <point x="529" y="507" type="curve"/>
      <point x="518" y="507" type="line"/>
      <point x="518" y="614" type="line"/>
      <point x="456" y="614" type="line"/>
      <point x="456" y="74" type="line"/>
      <point x="422" y="59"/>
      <point x="369" y="48"/>
      <point x="300" y="48" type="curve" smooth="yes"/>
      <point x="190" y="48"/>
      <point x="141" y="77"/>
      <point x="141" y="182" type="curve" smooth="yes"/>
      <point x="141" y="614" type="line"/>
      <point x="78" y="614" type="line"/>
      <point x="78" y="169" type="line" smooth="yes"/>
      <point x="78" y="47"/>
      <point x="152" y="-10"/>
      <point x="293" y="-10" type="curve" smooth="yes"/>
    </contour>
  </outline>
</glyph>
<glyph name="udieresismacron" format="1">
  <advance width="511"/>
  <unicode hex="01D6"/>
  <note>
	udieresismacron
  </note>
  <outline>
    <contour>
      <point x="271" y="-9"/>
      <point x="321" y="23"/>
      <point x="367" y="72" type="curve"/>
      <point x="375" y="72" type="line"/>
      <point x="379" y="0" type="line"/>
      <point x="430" y="0" type="line"/>
      <point x="430" y="468" type="line"/>
      <point x="370" y="468" type="line"/>
      <point x="370" y="117" type="line"/>
      <point x="333" y="75"/>
      <point x="278" y="45"/>
      <point x="208" y="45" type="curve" smooth="yes"/>
      <point x="183" y="45"/>
      <point x="160" y="48"/>
      <point x="134" y="56" type="curve"/>
      <point x="134" y="468" type="line"/>
      <point x="74" y="468" type="line"/>
      <point x="74" y="100" type="line" smooth="yes"/>
      <point x="74" y="21"/>
      <point x="116" y="-9"/>
      <point x="198" y="-9" type="curve" smooth="yes"/>
    </contour>
    <contour>
      <point x="200" y="555"/>
      <point x="214" y="568"/>
      <point x="214" y="591" type="curve" smooth="yes"/>
      <point x="214" y="615"/>
      <point x="200" y="628"/>
      <point x="176" y="628" type="curve" smooth="yes"/>
      <point x="152" y="628"/>
      <point x="137" y="615"/>
      <point x="137" y="591" type="curve" smooth="yes"/>
      <point x="137" y="568"/>
      <point x="152" y="555"/>
      <point x="176" y="555" type="curve" smooth="yes"/>
    </contour>
    <contour>
      <point x="358" y="555"/>
      <point x="372" y="568"/>
      <point x="372" y="591" type="curve" smooth="yes"/>
      <point x="372" y="615"/>
      <point x="358" y="628"/>
      <point x="334" y="628" type="curve" smooth="yes"/>
      <point x="309" y="628"/>
      <point x="294" y="615"/>
      <point x="294" y="591" type="curve" smooth="yes"/>
      <point x="294" y="568"/>
      <point x="309" y="555"/>
      <point x="334" y="555" type="curve" smooth="yes"/>
    </contour>
    <contour>
      <point x="397" y="693" type="line"/>
      <point x="397" y="745" type="line"/>
      <point x="112" y="745" type="line"/>
      <point x="112" y="693" type="line"/>
    </contour>
  </outline>
</glyph>
<glyph name="Udieresisacute" format="1">
  <advance width="599"/>
  <unicode hex="01D7"/>
  <note>
	Udieresisacute
  </note>
  <outline>
    <contour>
      <point x="426" y="-9"/>
      <point x="519" y="23"/>
      <point x="519" y="104" type="curve" smooth="yes"/>
      <point x="519" y="614" type="line"/>
      <point x="456" y="614" type="line"/>
      <point x="456" y="75" type="line"/>
      <point x="422" y="60"/>
      <point x="369" y="50"/>
      <point x="300" y="50" type="curve" smooth="yes"/>
      <point x="190" y="50"/>
      <point x="141" y="79"/>
      <point x="141" y="184" type="curve" smooth="yes"/>
      <point x="141" y="614" type="line"/>
      <point x="78" y="614" type="line"/>
      <point x="78" y="170" type="line" smooth="yes"/>
      <point x="78" y="49"/>
      <point x="152" y="-9"/>
      <point x="293" y="-9" type="curve" smooth="yes"/>
    </contour>
    <contour>
      <point x="245" y="704"/>
      <point x="259" y="717"/>
      <point x="259" y="740" type="curve" smooth="yes"/>
      <point x="259" y="764"/>
      <point x="245" y="777"/>
      <point x="221" y="777" type="curve" smooth="yes"/>
      <point x="197" y="777"/>
      <point x="182" y="764"/>
      <point x="182" y="740" type="curve" smooth="yes"/>
      <point x="182" y="717"/>
      <point x="197" y="704"/>
      <point x="221" y="704" type="curve" smooth="yes"/>
    </contour>
    <contour>
      <point x="403" y="704"/>
      <point x="417" y="717"/>
      <point x="417" y="740" type="curve" smooth="yes"/>
      <point x="417" y="764"/>
      <point x="403" y="777"/>
      <point x="379" y="777" type="curve" smooth="yes"/>
      <point x="354" y="777"/>
      <point x="339" y="764"/>
      <point x="339" y="740" type="curve" smooth="yes"/>
      <point x="339" y="717"/>
      <point x="354" y="704"/>
      <point x="379" y="704" type="curve" smooth="yes"/>
    </contour>
    <contour>
      <point x="422" y="972" type="line"/>
      <point x="344" y="982" type="line"/>
      <point x="270" y="854" type="line"/>
      <point x="315" y="847" type="line"/>
    </contour>
  </outline>
</glyph>
<glyph name="Udieresiscaron" format="1">
  <advance width="599"/>
  <unicode hex="01D9"/>
  <note>
	Udieresiscaron
  </note>
  <outline>
    <contour>
      <point x="426" y="-9"/>
      <point x="519" y="23"/>
      <point x="519" y="104" type="curve" smooth="yes"/>
      <point x="519" y="614" type="line"/>
      <point x="456" y="614" type="line"/>
      <point x="456" y="75" type="line"/>
      <point x="422" y="60"/>
      <point x="369" y="50"/>
      <point x="300" y="50" type="curve" smooth="yes"/>
      <point x="190" y="50"/>
      <point x="141" y="79"/>
      <point x="141" y="184" type="curve" smooth="yes"/>
      <point x="141" y="614" type="line"/>
      <point x="78" y="614" type="line"/>
      <point x="78" y="170" type="line" smooth="yes"/>
      <point x="78" y="49"/>
      <point x="152" y="-9"/>
      <point x="293" y="-9" type="curve" smooth="yes"/>
    </contour>
    <contour>
      <point x="243" y="701"/>
      <point x="257" y="715"/>
      <point x="257" y="738" type="curve" smooth="yes"/>
      <point x="257" y="762"/>
      <point x="243" y="775"/>
      <point x="219" y="775" type="curve" smooth="yes"/>
      <point x="195" y="775"/>
      <point x="180" y="762"/>
      <point x="180" y="738" type="curve" smooth="yes"/>
      <point x="180" y="715"/>
      <point x="195" y="701"/>
      <point x="219" y="701" type="curve" smooth="yes"/>
    </contour>
    <contour>
      <point x="401" y="701"/>
      <point x="415" y="715"/>
      <point x="415" y="738" type="curve" smooth="yes"/>
      <point x="415" y="762"/>
      <point x="401" y="775"/>
      <point x="377" y="775" type="curve" smooth="yes"/>
      <point x="352" y="775"/>
      <point x="337" y="762"/>
      <point x="337" y="738" type="curve" smooth="yes"/>
      <point x="337" y="715"/>
      <point x="352" y="701"/>
      <point x="377" y="701" type="curve" smooth="yes"/>
    </contour>
    <contour>
      <point x="325" y="838" type="line"/>
      <point x="421" y="964" type="line"/>
      <point x="381" y="972" type="line"/>
      <point x="298" y="889" type="line"/>
      <point x="292" y="889" type="line"/>
      <point x="208" y="972" type="line"/>
      <point x="169" y="964" type="line"/>
      <point x="265" y="838" type="line"/>
    </contour>
  </outline>
</glyph>
<glyph name="Aringacute" format="1">
  <advance width="591"/>
  <unicode hex="01FA"/>
  <note>
	Aringacute
  </note>
  <outline>
    <contour>
      <point x="361" y="689"/>
      <point x="404" y="731"/>
      <point x="404" y="781" type="curve" smooth="yes"/>
      <point x="404" y="838"/>
      <point x="367" y="870"/>
      <point x="301" y="870" type="curve" smooth="yes"/>
      <point x="226" y="870"/>
      <point x="184" y="825"/>
      <point x="184" y="775" type="curve" smooth="yes"/>
      <point x="184" y="719"/>
      <point x="222" y="689"/>
      <point x="286" y="689" type="curve" smooth="yes"/>
    </contour>
    <contour>
      <point x="250" y="728"/>
      <point x="229" y="747"/>
      <point x="229" y="777" type="curve" smooth="yes"/>
      <point x="229" y="792"/>
      <point x="230" y="806"/>
      <point x="236" y="823" type="curve"/>
      <point x="255" y="829"/>
      <point x="274" y="831"/>
      <point x="299" y="831" type="curve" smooth="yes"/>
      <point x="338" y="831"/>
      <point x="359" y="811"/>
      <point x="359" y="779" type="curve" smooth="yes"/>
      <point x="359" y="764"/>
      <point x="356" y="750"/>
      <point x="352" y="736" type="curve"/>
      <point x="334" y="730"/>
      <point x="313" y="728"/>
      <point x="289" y="728" type="curve" smooth="yes"/>
    </contour>
    <contour>
      <point x="422" y="1072" type="line"/>
      <point x="341" y="1080" type="line"/>
      <point x="258" y="938" type="line"/>
      <point x="303" y="930" type="line"/>
    </contour>
    <component base="A"/>
  </outline>
</glyph>
<glyph name="tcommaaccent" format="1">
  <advance width="366"/>
  <unicode hex="021B"/>
  <note>
	tcommaaccent
  </note>
  <outline>
    <contour>
      <point x="273" y="-6"/>
      <point x="312" y="6"/>
      <point x="333" y="17" type="curve"/>
      <point x="316" y="67" type="line"/>
      <point x="292" y="57"/>
      <point x="257" y="48"/>
      <point x="232" y="48" type="curve" smooth="yes"/>
      <point x="211" y="48"/>
      <point x="195" y="51"/>
      <point x="176" y="57" type="curve"/>
      <point x="170" y="73"/>
      <point x="167" y="85"/>
      <point x="167" y="107" type="curve" smooth="yes"/>
      <point x="167" y="409" type="line"/>
      <point x="315" y="409" type="line"/>
      <point x="323" y="460" type="line"/>
      <point x="167" y="460" type="line"/>
      <point x="167" y="594" type="line"/>
      <point x="109" y="594" type="line"/>
      <point x="109" y="460" type="line"/>
      <point x="35" y="460" type="line"/>
      <point x="27" y="409" type="line"/>
      <point x="109" y="409" type="line"/>
      <point x="109" y="94" type="line" smooth="yes"/>
      <point x="109" y="47"/>
      <point x="145" y="19"/>
      <point x="178" y="1" type="curve"/>
      <point x="197" y="-4"/>
      <point x="219" y="-6"/>
      <point x="242" y="-6" type="curve" smooth="yes"/>
    </contour>
    <contour>
      <point x="248" y="-211"/>
      <point x="266" y="-167"/>
      <point x="266" y="-124" type="curve" smooth="yes"/>
      <point x="266" y="-80"/>
      <point x="246" y="-58"/>
      <point x="205" y="-58" type="curve" smooth="yes"/>
      <point x="190" y="-58"/>
      <point x="175" y="-60"/>
      <point x="162" y="-65" type="curve"/>
      <point x="162" y="-108" type="line"/>
      <point x="216" y="-108" type="line"/>
      <point x="216" y="-159"/>
      <point x="203" y="-198"/>
      <point x="181" y="-238" type="curve"/>
      <point x="219" y="-247" type="line"/>
    </contour>
  </outline>
</glyph>
<glyph name="dotlessj" format="1">
  <advance width="261"/>
  <unicode hex="0237"/>
  <note>
	dotlessj
  </note>
  <outline>
    <contour>
      <point x="139" y="-191"/>
      <point x="185" y="-146"/>
      <point x="185" y="-65" type="curve" smooth="yes"/>
      <point x="185" y="466" type="line"/>
      <point x="126" y="466" type="line"/>
      <point x="126" y="-61" type="line" smooth="yes"/>
      <point x="126" y="-88"/>
      <point x="125" y="-108"/>
      <point x="118" y="-128" type="curve"/>
      <point x="100" y="-134"/>
      <point x="85" y="-137"/>
      <point x="61" y="-137" type="curve" smooth="yes"/>
      <point x="34" y="-137"/>
      <point x="15" y="-134"/>
      <point x="-14" y="-126" type="curve"/>
      <point x="-28" y="-178" type="line"/>
      <point x="0" y="-187"/>
      <point x="32" y="-191"/>
      <point x="60" y="-191" type="curve" smooth="yes"/>
    </contour>
  </outline>
</glyph>
<glyph name="ascript" format="1">
  <advance width="506"/>
  <unicode hex="0251"/>
  <note>
	ascript
  </note>
  <outline>
    <contour>
      <point x="285" y="-8"/>
      <point x="330" y="29"/>
      <point x="366" y="69" type="curve"/>
      <point x="373" y="69" type="line"/>
      <point x="378" y="-1" type="line"/>
      <point x="430" y="0" type="line"/>
      <point x="430" y="474" type="line"/>
      <point x="378" y="474" type="line"/>
      <point x="373" y="393" type="line"/>
      <point x="366" y="393" type="line"/>
      <point x="338" y="441"/>
      <point x="298" y="476"/>
      <point x="230" y="476" type="curve" smooth="yes"/>
      <point x="95" y="476"/>
      <point x="56" y="369"/>
      <point x="56" y="222" type="curve" smooth="yes"/>
      <point x="56" y="99"/>
      <point x="97" y="-8"/>
      <point x="217" y="-8" type="curve" smooth="yes"/>
    </contour>
    <contour>
      <point x="151" y="44"/>
      <point x="117" y="110"/>
      <point x="117" y="228" type="curve" smooth="yes"/>
      <point x="117" y="350"/>
      <point x="144" y="424"/>
      <point x="237" y="424" type="curve" smooth="yes"/>
      <point x="296" y="424"/>
      <point x="338" y="389"/>
      <point x="369" y="344" type="curve"/>
      <point x="369" y="122" type="line"/>
      <point x="333" y="73"/>
      <point x="287" y="44"/>
      <point x="232" y="44" type="curve" smooth="yes"/>
    </contour>
  </outline>
</glyph>
<glyph name="schwa" format="1">
  <advance width="483"/>
  <unicode hex="0259"/>
  <note>
	schwa
  </note>
  <outline>
    <contour>
      <point x="359" y="-5"/>
      <point x="426" y="89"/>
      <point x="426" y="239" type="curve" smooth="yes"/>
      <point x="426" y="386"/>
      <point x="369" y="476"/>
      <point x="225" y="476" type="curve" smooth="yes"/>
      <point x="147" y="476"/>
      <point x="102" y="454"/>
      <point x="62" y="431" type="curve"/>
      <point x="82" y="383" type="line"/>
      <point x="122" y="408"/>
      <point x="159" y="423"/>
      <point x="222" y="423" type="curve" smooth="yes"/>
      <point x="320" y="423"/>
      <point x="365" y="367"/>
      <point x="368" y="260" type="curve"/>
      <point x="107" y="262" type="line"/>
      <point x="56" y="211" type="line"/>
      <point x="44" y="78"/>
      <point x="104" y="-5"/>
      <point x="224" y="-5" type="curve" smooth="yes"/>
    </contour>
    <contour>
      <point x="148" y="47"/>
      <point x="110" y="94"/>
      <point x="110" y="164" type="curve" smooth="yes"/>
      <point x="110" y="178"/>
      <point x="112" y="195"/>
      <point x="116" y="211" type="curve"/>
      <point x="368" y="216" type="line"/>
      <point x="363" y="108"/>
      <point x="332" y="47"/>
      <point x="228" y="47" type="curve" smooth="yes"/>
    </contour>
  </outline>
</glyph>
<glyph name="uni02C9" format="1">
  <advance width="303"/>
  <unicode hex="02C9"/>
  <note>
	uni02C9
  </note>
  <outline>
    <contour>
      <point x="246" y="488" type="line"/>
      <point x="246" y="541" type="line"/>
      <point x="56" y="541" type="line"/>
      <point x="56" y="488" type="line"/>
    </contour>
  </outline>
</glyph>
<glyph name="uni02CA" format="1">
  <advance width="253"/>
  <unicode hex="02CA"/>
  <note>
	uni02CA
  </note>
  <outline>
    <contour>
      <point x="208" y="594" type="line"/>
      <point x="127" y="603" type="line"/>
      <point x="62" y="480" type="line"/>
      <point x="107" y="473" type="line"/>
    </contour>
  </outline>
</glyph>
<glyph name="uni02CC" format="1">
  <advance width="209"/>
  <unicode hex="02CC"/>
  <note>
	uni02CC
  </note>
  <outline>
    <contour>
      <point x="133" y="-207" type="line"/>
      <point x="133" y="-2" type="line"/>
      <point x="76" y="-2" type="line"/>
      <point x="76" y="-207" type="line"/>
    </contour>
  </outline>
</glyph>
<glyph name="ring" format="1">
  <advance width="332"/>
  <unicode hex="02DA"/>
  <note>
	ring
  </note>
  <outline>
    <contour>
      <point x="233" y="447"/>
      <point x="276" y="488"/>
      <point x="276" y="538" type="curve" smooth="yes"/>
      <point x="276" y="595"/>
      <point x="239" y="627"/>
      <point x="173" y="627" type="curve" smooth="yes"/>
      <point x="98" y="627"/>
      <point x="56" y="582"/>
      <point x="56" y="533" type="curve" smooth="yes"/>
      <point x="56" y="477"/>
      <point x="94" y="447"/>
      <point x="158" y="447" type="curve" smooth="yes"/>
    </contour>
    <contour>
      <point x="122" y="486"/>
      <point x="101" y="504"/>
      <point x="101" y="534" type="curve" smooth="yes"/>
      <point x="101" y="549"/>
      <point x="102" y="563"/>
      <point x="108" y="581" type="curve"/>
      <point x="127" y="586"/>
      <point x="146" y="588"/>
      <point x="171" y="588" type="curve" smooth="yes"/>
      <point x="210" y="588"/>
      <point x="231" y="568"/>
      <point x="231" y="536" type="curve" smooth="yes"/>
      <point x="231" y="521"/>
      <point x="228" y="508"/>
      <point x="224" y="493" type="curve"/>
      <point x="206" y="487"/>
      <point x="185" y="486"/>
      <point x="161" y="486" type="curve" smooth="yes"/>
    </contour>
  </outline>
</glyph>
<glyph name="tilde" format="1">
  <advance width="417"/>
  <unicode hex="02DC"/>
  <note>
	tilde
  </note>
  <outline>
    <contour>
      <point x="116" y="546"/>
      <point x="127" y="567"/>
      <point x="156" y="567" type="curve" smooth="yes"/>
      <point x="191" y="567"/>
      <point x="220" y="519"/>
      <point x="268" y="519" type="curve" smooth="yes"/>
      <point x="317" y="519"/>
      <point x="342" y="550"/>
      <point x="346" y="608" type="curve"/>
      <point x="305" y="621" type="line"/>
      <point x="301" y="591"/>
      <point x="289" y="571"/>
      <point x="261" y="571" type="curve" smooth="yes"/>
      <point x="227" y="571"/>
      <point x="193" y="619"/>
      <point x="149" y="619" type="curve" smooth="yes"/>
      <point x="100" y="619"/>
      <point x="75" y="587"/>
      <point x="71" y="530" type="curve"/>
      <point x="112" y="517" type="line"/>
    </contour>
  </outline>
</glyph>
<glyph name="hungarumlaut" format="1">
  <advance width="430"/>
  <unicode hex="02DD"/>
  <note>
	hungarumlaut
  </note>
  <outline>
    <contour>
      <point x="331" y="462"/>
      <point x="348" y="506"/>
      <point x="348" y="550" type="curve" smooth="yes"/>
      <point x="348" y="594"/>
      <point x="330" y="616"/>
      <point x="289" y="616" type="curve" smooth="yes"/>
      <point x="274" y="616"/>
      <point x="259" y="613"/>
      <point x="246" y="609" type="curve"/>
      <point x="246" y="566" type="line"/>
      <point x="300" y="566" type="line"/>
      <point x="300" y="514"/>
      <point x="287" y="475"/>
      <point x="265" y="435" type="curve"/>
      <point x="302" y="427" type="line"/>
    </contour>
    <contour>
      <point x="166" y="462"/>
      <point x="183" y="506"/>
      <point x="183" y="550" type="curve" smooth="yes"/>
      <point x="183" y="594"/>
      <point x="164" y="616"/>
      <point x="123" y="616" type="curve" smooth="yes"/>
      <point x="108" y="616"/>
      <point x="94" y="613"/>
      <point x="81" y="609" type="curve"/>
      <point x="81" y="566" type="line"/>
      <point x="135" y="566" type="line"/>
      <point x="135" y="514"/>
      <point x="122" y="475"/>
      <point x="100" y="435" type="curve"/>
      <point x="137" y="427" type="line"/>
    </contour>
  </outline>
</glyph>
<glyph name="gravecomb" format="1">
  <advance width="0"/>
  <unicode hex="0300"/>
  <note>
	gravecomb
  </note>
  <outline>
    <contour>
      <point x="-104" y="623" type="line"/>
      <point x="-185" y="632" type="line"/>
      <point x="-268" y="489" type="line"/>
      <point x="-223" y="481" type="line"/>
    </contour>
  </outline>
</glyph>
<glyph name="uni0304" format="1">
  <advance width="0"/>
  <unicode hex="0304"/>
  <note>
	uni0304
  </note>
  <outline>
    <contour>
      <point x="-98" y="488" type="line"/>
      <point x="-98" y="541" type="line"/>
      <point x="-288" y="541" type="line"/>
      <point x="-288" y="488" type="line"/>
    </contour>
  </outline>
</glyph>
<glyph name="uni0306" format="1">
  <advance width="0"/>
  <unicode hex="0306"/>
  <note>
	uni0306
  </note>
  <outline>
    <contour>
      <point x="-147" y="499"/>
      <point x="-110" y="543"/>
      <point x="-100" y="605" type="curve"/>
      <point x="-159" y="614" type="line"/>
      <point x="-164" y="574"/>
      <point x="-177" y="548"/>
      <point x="-227" y="548" type="curve" smooth="yes"/>
      <point x="-278" y="548"/>
      <point x="-291" y="574"/>
      <point x="-296" y="614" type="curve"/>
      <point x="-355" y="605" type="line"/>
      <point x="-345" y="543"/>
      <point x="-308" y="499"/>
      <point x="-227" y="499" type="curve" smooth="yes"/>
    </contour>
  </outline>
</glyph>
<glyph name="uni030B" format="1">
  <advance width="0"/>
  <unicode hex="030B"/>
  <note>
	uni030B
  </note>
  <outline>
    <contour>
      <point x="-109" y="462"/>
      <point x="-92" y="506"/>
      <point x="-92" y="550" type="curve" smooth="yes"/>
      <point x="-92" y="594"/>
      <point x="-110" y="616"/>
      <point x="-151" y="616" type="curve" smooth="yes"/>
      <point x="-166" y="616"/>
      <point x="-181" y="613"/>
      <point x="-194" y="609" type="curve"/>
      <point x="-194" y="566" type="line"/>
      <point x="-140" y="566" type="line"/>
      <point x="-140" y="514"/>
      <point x="-153" y="475"/>
      <point x="-175" y="435" type="curve"/>
      <point x="-138" y="427" type="line"/>
    </contour>
    <contour>
      <point x="-274" y="462"/>
      <point x="-257" y="506"/>
      <point x="-257" y="550" type="curve" smooth="yes"/>
      <point x="-257" y="594"/>
      <point x="-276" y="616"/>
      <point x="-317" y="616" type="curve" smooth="yes"/>
      <point x="-332" y="616"/>
      <point x="-346" y="613"/>
      <point x="-359" y="609" type="curve"/>
      <point x="-359" y="566" type="line"/>
      <point x="-305" y="566" type="line"/>
      <point x="-305" y="514"/>
      <point x="-318" y="475"/>
      <point x="-340" y="435" type="curve"/>
      <point x="-303" y="427" type="line"/>
    </contour>
  </outline>
</glyph>
<glyph name="uni0326" format="1">
  <advance width="0"/>
  <unicode hex="0326"/>
  <note>
	uni0326
  </note>
  <outline>
    <contour>
      <point x="145" y="-137" type="line"/>
      <point x="232" y="-32" type="line"/>
      <point x="145" y="-32" type="line"/>
      <point x="89" y="-137" type="line"/>
    </contour>
  </outline>
</glyph>
<glyph name="uni0327" format="1">
  <advance width="0"/>
  <unicode hex="0327"/>
  <note>
	uni0327
  </note>
  <outline>
    <contour>
      <point x="-100" y="-216"/>
      <point x="-65" y="-188"/>
      <point x="-65" y="-130" type="curve" smooth="yes"/>
      <point x="-65" y="-84"/>
      <point x="-87" y="-56"/>
      <point x="-140" y="-56" type="curve" smooth="yes"/>
      <point x="-158" y="-56"/>
      <point x="-173" y="-59"/>
      <point x="-185" y="-64" type="curve"/>
      <point x="-137" y="1" type="line"/>
      <point x="-179" y="9" type="line"/>
      <point x="-243" y="-68" type="line"/>
      <point x="-207" y="-104" type="line"/>
      <point x="-194" y="-99"/>
      <point x="-180" y="-97"/>
      <point x="-163" y="-97" type="curve" smooth="yes"/>
      <point x="-133" y="-97"/>
      <point x="-117" y="-108"/>
      <point x="-117" y="-134" type="curve" smooth="yes"/>
      <point x="-117" y="-147"/>
      <point x="-119" y="-157"/>
      <point x="-123" y="-167" type="curve"/>
      <point x="-138" y="-170"/>
      <point x="-152" y="-172"/>
      <point x="-173" y="-172" type="curve" smooth="yes"/>
      <point x="-194" y="-172"/>
      <point x="-221" y="-168"/>
      <point x="-241" y="-160" type="curve"/>
      <point x="-255" y="-200" type="line"/>
      <point x="-225" y="-213"/>
      <point x="-198" y="-216"/>
      <point x="-171" y="-216" type="curve" smooth="yes"/>
    </contour>
  </outline>
</glyph>
<glyph name="uni0331" format="1">
  <advance width="0"/>
  <unicode hex="0331"/>
  <note>
	uni0331
  </note>
  <outline>
    <contour>
      <point x="-90" y="-105" type="line"/>
      <point x="-90" y="-49" type="line"/>
      <point x="-384" y="-49" type="line"/>
      <point x="-384" y="-105" type="line"/>
    </contour>
  </outline>
</glyph>
<glyph name="khoKhwai-thai" format="1">
  <advance width="568"/>
  <unicode hex="0E04"/>
  <note>
	khoKhwai-thai
  </note>
  <outline>
    <contour>
      <point x="129" y="0" type="line"/>
      <point x="184" y="179" type="line"/>
      <point x="212" y="201"/>
      <point x="248" y="222"/>
      <point x="275" y="229" type="curve"/>
      <point x="282" y="186" type="line"/>
      <point x="329" y="186" type="line"/>
      <point x="334" y="208"/>
      <point x="335" y="236"/>
      <point x="334" y="257" type="curve" smooth="yes"/>
      <point x="333" y="273" type="line"/>
      <point x="280" y="286" type="line"/>
      <point x="229" y="269"/>
      <point x="181" y="232"/>
      <point x="149" y="196" type="curve"/>
      <point x="142" y="196" type="line"/>
      <point x="123" y="235"/>
      <point x="112" y="270"/>
      <point x="112" y="319" type="curve" smooth="yes"/>
      <point x="112" y="429"/>
      <point x="170" y="467"/>
      <point x="286" y="467" type="curve" smooth="yes"/>
      <point x="338" y="467"/>
      <point x="396" y="456"/>
      <point x="427" y="443" type="curve"/>
      <point x="427" y="0" type="line"/>
      <point x="488" y="0" type="line"/>
      <point x="488" y="397" type="line" smooth="yes"/>
      <point x="488" y="476"/>
      <point x="406" y="524"/>
      <point x="290" y="524" type="curve" smooth="yes"/>
      <point x="130" y="524"/>
      <point x="51" y="452"/>
      <point x="51" y="322" type="curve" smooth="yes"/>
      <point x="51" y="250"/>
      <point x="76" y="195"/>
      <point x="116" y="137" type="curve"/>
      <point x="65" y="0" type="line"/>
    </contour>
  </outline>
</glyph>
